/* XPM */
static char * 1_xpm[] = {
"32 32 238 2",
"  	c #717171",
". 	c #707070",
"+ 	c #6F6F6F",
"@ 	c #6E6E6E",
"# 	c #818181",
"$ 	c #777777",
"% 	c #868686",
"& 	c #8E8E8E",
"* 	c #979797",
"= 	c #959595",
"- 	c #8C8C8C",
"; 	c #909090",
"> 	c #888888",
", 	c #666666",
"' 	c #747474",
") 	c #858585",
"! 	c #767676",
"~ 	c #676767",
"{ 	c #919191",
"] 	c #727272",
"^ 	c #929292",
"/ 	c #878787",
"( 	c #7D7D7D",
"_ 	c #7F7F7F",
": 	c #787878",
"< 	c #828282",
"[ 	c #848484",
"} 	c #8A8A8A",
"| 	c #6C6C6C",
"1 	c #8D8D8D",
"2 	c #7E7E7E",
"3 	c #7B7B7B",
"4 	c #7A7A7A",
"5 	c #9A9A9A",
"6 	c #949494",
"7 	c #7C7C7C",
"8 	c #838383",
"9 	c #8F8F8F",
"0 	c #939393",
"a 	c #737373",
"b 	c #808080",
"c 	c #757575",
"d 	c #8B8B8B",
"e 	c #A2A2A2",
"f 	c #9E9E9E",
"g 	c #999999",
"h 	c #6A6A6A",
"i 	c #797979",
"j 	c #696969",
"k 	c #9B9B9B",
"l 	c #969696",
"m 	c #686868",
"n 	c #636363",
"o 	c #6D6D6D",
"p 	c #9D9D9D",
"q 	c #898989",
"r 	c #989898",
"s 	c #A5A5A5",
"t 	c #6B6B6B",
"u 	c #595959",
"v 	c #A3A3A3",
"w 	c #5D5D5D",
"x 	c #505050",
"y 	c #5E5E5E",
"z 	c #6C6C66",
"A 	c #998B40",
"B 	c #CDBA3B",
"C 	c #E5CE04",
"D 	c #E6CF00",
"E 	c #DBC632",
"F 	c #646464",
"G 	c #5C5C5C",
"H 	c #AE9E3F",
"I 	c #B4A43B",
"J 	c #A09350",
"K 	c #CAB743",
"L 	c #606060",
"M 	c #5A5A5A",
"N 	c #525252",
"O 	c #565656",
"P 	c #535353",
"Q 	c #9C9149",
"R 	c #B1A23E",
"S 	c #626262",
"T 	c #2A2A2A",
"U 	c #2C2C2C",
"V 	c #2D2D2D",
"W 	c #2F2F2F",
"X 	c #313131",
"Y 	c #373737",
"Z 	c #323232",
"` 	c #2B2B2B",
" .	c #2E2E2E",
"..	c #282828",
"+.	c #252525",
"@.	c #AB9921",
"#.	c #918225",
"$.	c #383838",
"%.	c #303030",
"&.	c #292929",
"*.	c #353535",
"=.	c #343434",
"-.	c #333333",
";.	c #1C1C1B",
">.	c #1E1D1D",
",.	c #1F1F1E",
"'.	c #1D1D1C",
").	c #1F1E1E",
"!.	c #1C1B1A",
"~.	c #212020",
"{.	c #20201F",
"].	c #201F1F",
"^.	c #1E1E1E",
"/.	c #222120",
"(.	c #201F1E",
"_.	c #BEAB0C",
":.	c #645B14",
"<.	c #202020",
"[.	c #1A1A1A",
"}.	c #222221",
"|.	c #1E1D1C",
"1.	c #1E1E1D",
"2.	c #4F4944",
"3.	c #5A544E",
"4.	c #544F49",
"5.	c #59534D",
"6.	c #59534C",
"7.	c #544E48",
"8.	c #504A44",
"9.	c #47423C",
"0.	c #423D38",
"a.	c #4E4842",
"b.	c #504A45",
"c.	c #4A4540",
"d.	c #423E39",
"e.	c #46413C",
"f.	c #D2BE15",
"g.	c #E3CD04",
"h.	c #4A433A",
"i.	c #45403B",
"j.	c #433E39",
"k.	c #4C4842",
"l.	c #423C38",
"m.	c #49443E",
"n.	c #45403A",
"o.	c #48433E",
"p.	c #46423C",
"q.	c #46403B",
"r.	c #91877D",
"s.	c #9A9085",
"t.	c #9C9287",
"u.	c #A0958B",
"v.	c #9E9489",
"w.	c #9E9388",
"x.	c #968C81",
"y.	c #7E766C",
"z.	c #787066",
"A.	c #7E756C",
"B.	c #90867C",
"C.	c #81786E",
"D.	c #756C64",
"E.	c #7A7268",
"F.	c #E2CB12",
"G.	c #D7C22D",
"H.	c #7D746A",
"I.	c #797067",
"J.	c #776E66",
"K.	c #7F766C",
"L.	c #7C7269",
"M.	c #847B70",
"N.	c #978D82",
"O.	c #80766E",
"P.	c #877D74",
"Q.	c #8C8278",
"R.	c #887E74",
"S.	c #949493",
"T.	c #8B8B8A",
"U.	c #878686",
"V.	c #848483",
"W.	c #60605F",
"X.	c #515151",
"Y.	c #656565",
"Z.	c #6E6950",
"`.	c #C9B643",
" +	c #9C9C9C",
".+	c #9D9C9C",
"++	c #9B9B9A",
"@+	c #616161",
"#+	c #8B8042",
"$+	c #B6A54C",
"%+	c #A0A0A0",
"&+	c #A0902D",
"*+	c #A49458",
"=+	c #9F9F9F",
"-+	c #817954",
";+	c #BDAF63",
">+	c #404040",
",+	c #2C2B2A",
"'+	c #4F4943",
")+	c #80776E",
"!+	c #545454",
"~+	c #282827",
"{+	c #49433E",
"]+	c #827A70",
"^+	c #2C2C2B",
"/+	c #4C4741",
"(+	c #786F66",
"_+	c #585858",
":+	c #3A3A3A",
"<+	c #2F2E2E",
"[+	c #7A7168",
"}+	c #797878",
"|+	c #3C3C3C",
"1+	c #282826",
"2+	c #7E756B",
"3+	c #262625",
"4+	c #524C45",
"5+	c #827970",
"6+	c #363636",
"7+	c #2B2A2A",
"8+	c #847A71",
"9+	c #818180",
"0+	c #272626",
"a+	c #5A544D",
"b+	c #8A8177",
"c+	c #464646",
"d+	c #58534C",
"e+	c #7F766D",
"f+	c #A8A8A8",
"g+	c #292828",
"h+	c #837A70",
"i+	c #818080",
"j+	c #A1A1A1",
"k+	c #3E3E3E",
"l+	c #2A2A29",
"m+	c #56504A",
"n+	c #877E74",
"o+	c #6F6E6E",
"  . + @ # $ % & * = - ; - > $ , ' ) ! ~ ! > { + ] ^ - / / & ( % ",
"( _ : / < [ { ) ; { } } | $ ! 1 % [ 2 3 4 2 < ! ) 5 1 [ { ; < ^ ",
"6 - 7 / 4 8 & 1 9 ^ % < . 0 4 a b $ / c % % d e e 5 % < : _ > f ",
") < a > ( } 9 - - [   4 b : 4 7 @ _ ( : < 4 ; g # b < 2 h [ 9 f ",
"% 7 > % i 1 < ; 9 - a [ - / 2 a , ( ' < < a / ( 3 [ * ( j k l e ",
") / d 8 ( 2 # & ^ ( > [ > c m n | 2 4 [ o $ ( [ 1 & $ | & { 9 p ",
": % 7 7 [ 7 q % % - _ > 4 3 ! c ; r 8 c a : 3 2 . a l 3 ^ 9 * p ",
"3 $ ! < ) / [ } - ) / } ' 7 ] } [     ] / a ) 2 d p s 0 ; = = 9 ",
"] m b   _ 3 % % : - [ 2 ! % _ t h , u 2 ( $ ! 8 / - v ; [ 5 ( < ",
", a @ 3 ' : ( 3 , % ! 7 ( 3 w x a y $ < @ ) > 4 1 9 0 7 [ b > % ",
"( | @ c + $ : 2 @ # ( ] _ z A B C D E ( c ' y , [ 2 # [ 7 7 1 _ ",
". o F i ] : : 4   c G c 4 H I J D D K t ' y a | b ' 8 4 < $ < + ",
"y u u L M L ~ w N y O F G P y Q D D R y y O y o ! S y O h S S w ",
"T U U V U W T X Y Z U `  ...+.@.D D #.X $.%.&.$.*.%.`  .=.Z -.=.",
";.>.,.'.).).!.~.~.{.].^./.(.(._.D D :.].<.[.^.}.|.1.!.1.{.{.,.,.",
"2.3.4.5.6.7.8.9.0.a.b.c.9.d.e.f.D g.h.i.j.e.k.c.l.m.n.o.m.o.p.q.",
"r.s.t.u.v.w.x.y.z.A.B.C.D.E.A.F.D G.H.I.J.I.K.L.M.N.I.O.K.P.Q.R.",
"! > ^ S.^ 6 T.* 6 U.V.W.X.Y.Z.D D `.b 9 ! ; r ; [ ; q ;  +.+s ++",
"} 6 ^ 0 > q ) r [ % ] h @+@ #+D D $+$ - ^ %+- 0 } / l r  +r ; = ",
") < > 3 7 4 ) [ : a y j X.S &+D D *+} > / > : } # 4 q =+* ^ 1 ' ",
"+ < ! 4 _ _ < > < _ @ -+D D D D D D D ;+- & ( . < [ 2 # _ 2 < 4 ",
"i ) q / ) > ] [ 7 o w ,   S >+,+'+)+b = 5 : 3 a %+& : < 7 ' d b ",
"! _ - _ [ / . # i ~ i | y !+=.~+{+]+} { ) 4 r < { - 8 > } ) } 1 ",
"8 > - q % ) % # $ | L ' | y Y ^+/+(+] l  +} r [ { 8 2 [ { 9 & } ",
"# % % b / 8 2 [   | ' % | _+:+<+4.[+}+5 6 b 2 : b ) ( 7 % - b % ",
"b 8 2 < a ' i # ! ) @ 4 | L |+1+a.2+< g 9   ' # t b # . > { d 9 ",
"- % 8 2 $ 4 4 4 ( 3 7 o 4 F *.3+4+5+% } & 3 - $ b ) 6 ; % l p r ",
"l [ > < # ( _ b / ( # 8 ! L 6+7+5.8+9+2 ( > d ! = S & 1 & ^ 0 l ",
"# < b 7 q < 7 1 > [ i 7 7 y Y 0+a+b+# % $ < $ c+[ ~ & 6 ^ 0 6 l ",
") q > # } 8 d } d - [ 4 . m :+~+d+e+) 4 ! @+c j 3 + > f+& 9 } 6 ",
"9 } 0 1 ( 7 % < } [ } > . h :+g+7.h+i+j+c . 8 S 7 2 6 p & b } l ",
"a b 8 [ : _ > 1 % b 7 : b | k+l+m+n+o+{ < a / 4 l 7 } r & & } g "};
