/* XPM */
static char * 6_xpm[] = {
"32 32 261 2",
"  	c #717171",
". 	c #707070",
"+ 	c #6F6F6F",
"@ 	c #6E6E6E",
"# 	c #818181",
"$ 	c #777777",
"% 	c #868686",
"& 	c #8E8E8E",
"* 	c #979797",
"= 	c #959595",
"- 	c #8C8C8C",
"; 	c #909090",
"> 	c #888888",
", 	c #666666",
"' 	c #747474",
") 	c #858585",
"! 	c #767676",
"~ 	c #676767",
"{ 	c #919191",
"] 	c #727272",
"^ 	c #929292",
"/ 	c #878787",
"( 	c #7D7D7D",
"_ 	c #7F7F7F",
": 	c #787878",
"< 	c #828282",
"[ 	c #848484",
"} 	c #8A8A8A",
"| 	c #6C6C6C",
"1 	c #8D8D8D",
"2 	c #7E7E7E",
"3 	c #7B7B7B",
"4 	c #7A7A7A",
"5 	c #9A9A9A",
"6 	c #949494",
"7 	c #7C7C7C",
"8 	c #838383",
"9 	c #8F8F8F",
"0 	c #939393",
"a 	c #737373",
"b 	c #808080",
"c 	c #757575",
"d 	c #8B8B8B",
"e 	c #A2A2A2",
"f 	c #9E9E9E",
"g 	c #999999",
"h 	c #6A6A6A",
"i 	c #797979",
"j 	c #696969",
"k 	c #9B9B9B",
"l 	c #969696",
"m 	c #686868",
"n 	c #636363",
"o 	c #6D6D6D",
"p 	c #9D9D9D",
"q 	c #898989",
"r 	c #989898",
"s 	c #A5A5A5",
"t 	c #6B6B6B",
"u 	c #595959",
"v 	c #A3A3A3",
"w 	c #5D5D5D",
"x 	c #505050",
"y 	c #5E5E5E",
"z 	c #55554D",
"A 	c #AFA053",
"B 	c #D0BC2D",
"C 	c #E1CB1E",
"D 	c #E2CC1C",
"E 	c #D0BD43",
"F 	c #999167",
"G 	c #646464",
"H 	c #5C5C5C",
"I 	c #716C51",
"J 	c #D6C121",
"K 	c #E4CE08",
"L 	c #B4A44D",
"M 	c #817D66",
"N 	c #84806F",
"O 	c #AB9E54",
"P 	c #C6B448",
"Q 	c #606060",
"R 	c #5A5A5A",
"S 	c #525252",
"T 	c #565656",
"U 	c #61615B",
"V 	c #D6C022",
"W 	c #E6CF00",
"X 	c #B3A43F",
"Y 	c #585858",
"Z 	c #626262",
"` 	c #2A2A2A",
" .	c #2C2C2C",
"..	c #2D2D2D",
"+.	c #2F2F2F",
"@.	c #313131",
"#.	c #373737",
"$.	c #323232",
"%.	c #2B2B2B",
"&.	c #A29221",
"*.	c #5B512E",
"=.	c #2E2E2E",
"-.	c #383838",
";.	c #303030",
">.	c #292929",
",.	c #353535",
"'.	c #343434",
").	c #333333",
"!.	c #1C1C1B",
"~.	c #1E1D1D",
"{.	c #1F1F1E",
"].	c #1D1D1C",
"^.	c #1F1E1E",
"/.	c #1C1B1A",
"(.	c #212020",
"_.	c #20201F",
":.	c #201F1F",
"<.	c #1E1E1E",
"[.	c #D5C008",
"}.	c #E3CD01",
"|.	c #CBB708",
"1.	c #DFC903",
"2.	c #E2CB02",
"3.	c #CFB906",
"4.	c #7B6F1A",
"5.	c #202020",
"6.	c #1A1A1A",
"7.	c #222221",
"8.	c #1E1D1C",
"9.	c #1E1E1D",
"0.	c #4F4944",
"a.	c #5A544E",
"b.	c #544F49",
"c.	c #59534D",
"d.	c #59534C",
"e.	c #544E48",
"f.	c #504A44",
"g.	c #47423C",
"h.	c #423D38",
"i.	c #4E4842",
"j.	c #504A45",
"k.	c #665D3D",
"l.	c #A89727",
"m.	c #4F492A",
"n.	c #C8B41B",
"o.	c #E1CB07",
"p.	c #645C36",
"q.	c #46413C",
"r.	c #4C4842",
"s.	c #4A4540",
"t.	c #423C38",
"u.	c #49443E",
"v.	c #45403A",
"w.	c #48433E",
"x.	c #46423C",
"y.	c #46403B",
"z.	c #91877D",
"A.	c #9A9085",
"B.	c #9C9287",
"C.	c #A0958B",
"D.	c #9E9489",
"E.	c #9E9388",
"F.	c #968C81",
"G.	c #7E766C",
"H.	c #787066",
"I.	c #7E756C",
"J.	c #90867C",
"K.	c #9D8F63",
"L.	c #D8C22E",
"M.	c #706860",
"N.	c #6A625B",
"O.	c #AD9B53",
"P.	c #A89854",
"Q.	c #797067",
"R.	c #7F766C",
"S.	c #7C7269",
"T.	c #847B70",
"U.	c #978D82",
"V.	c #80766E",
"W.	c #877D74",
"X.	c #8C8278",
"Y.	c #887E74",
"Z.	c #949493",
"`.	c #8B8B8A",
" +	c #878686",
".+	c #848483",
"++	c #8E8354",
"@+	c #BCAA36",
"#+	c #595856",
"$+	c #635C54",
"%+	c #B3A256",
"&+	c #A29764",
"*+	c #9C9C9C",
"=+	c #9D9C9C",
"-+	c #9B9B9A",
";+	c #767467",
">+	c #E5CE06",
",+	c #B6A432",
"'+	c #363534",
")+	c #58514A",
"!+	c #C5B340",
"~+	c #E1CB25",
"{+	c #98968F",
"]+	c #A0A0A0",
"^+	c #BBAA34",
"/+	c #D7C114",
"(+	c #58512A",
"_+	c #95883C",
":+	c #E4CD0B",
"<+	c #E5CE0D",
"[+	c #ADA372",
"}+	c #9F9F9F",
"|+	c #72706D",
"1+	c #B6A54C",
"2+	c #D9C312",
"3+	c #E4CD02",
"4+	c #DFC90C",
"5+	c #CCB83A",
"6+	c #99916D",
"7+	c #404040",
"8+	c #2C2B2A",
"9+	c #4F4943",
"0+	c #80776E",
"a+	c #545454",
"b+	c #282827",
"c+	c #49433E",
"d+	c #827A70",
"e+	c #2C2C2B",
"f+	c #4C4741",
"g+	c #786F66",
"h+	c #3A3A3A",
"i+	c #2F2E2E",
"j+	c #7A7168",
"k+	c #797878",
"l+	c #3C3C3C",
"m+	c #282826",
"n+	c #7E756B",
"o+	c #262625",
"p+	c #524C45",
"q+	c #827970",
"r+	c #363636",
"s+	c #2B2A2A",
"t+	c #847A71",
"u+	c #818180",
"v+	c #272626",
"w+	c #5A544D",
"x+	c #8A8177",
"y+	c #464646",
"z+	c #58534C",
"A+	c #7F766D",
"B+	c #616161",
"C+	c #A8A8A8",
"D+	c #292828",
"E+	c #837A70",
"F+	c #818080",
"G+	c #A1A1A1",
"H+	c #3E3E3E",
"I+	c #2A2A29",
"J+	c #56504A",
"K+	c #877E74",
"L+	c #6F6E6E",
"  . + @ # $ % & * = - ; - > $ , ' ) ! ~ ! > { + ] ^ - / / & ( % ",
"( _ : / < [ { ) ; { } } | $ ! 1 % [ 2 3 4 2 < ! ) 5 1 [ { ; < ^ ",
"6 - 7 / 4 8 & 1 9 ^ % < . 0 4 a b $ / c % % d e e 5 % < : _ > f ",
") < a > ( } 9 - - [   4 b : 4 7 @ _ ( : < 4 ; g # b < 2 h [ 9 f ",
"% 7 > % i 1 < ; 9 - a [ - / 2 a , ( ' < < a / ( 3 [ * ( j k l e ",
") / d 8 ( 2 # & ^ ( > [ > c m n | 2 4 [ o $ ( [ 1 & $ | & { 9 p ",
": % 7 7 [ 7 q % % - _ > 4 3 ! c ; r 8 c a : 3 2 . a l 3 ^ 9 * p ",
"3 $ ! < ) / [ } - ) / } ' 7 ] } [     ] / a ) 2 d p s 0 ; = = 9 ",
"] m b   _ 3 % % : - [ 2 ! % _ t h , u 2 ( $ ! 8 / - v ; [ 5 ( < ",
", a @ 3 ' : ( 3 , % ! 7 ( 3 w x a y $ < @ ) > 4 1 9 0 7 [ b > % ",
"( | @ c + $ : 2 @ # ( ] _ ~ z A B C D E F ' y , [ 2 # [ 7 7 1 _ ",
". o G i ] : : 4   c H c 4 I J K L M N O P y a | b ' 8 4 < $ < + ",
"y u u Q R Q ~ w S y T G U V W X Y G Y y y T y o ! Z y T h Z Z w ",
"`  . ... .+.` @.#.$. .%.&.W W *.=.$.=.@.-.;.>.-.,.;.%.=.'.$.).'.",
"!.~.{.].^.^./.(.(._.:.<.[.W }.|.1.2.3.4.5.6.<.7.8.9./.9._._.{.{.",
"0.a.b.c.d.e.f.g.h.i.j.k.W W W l.m.n.W o.p.q.r.s.t.u.v.w.u.w.x.y.",
"z.A.B.C.D.E.F.G.H.I.J.K.W W L.M.N.O.W W P.Q.R.S.T.U.Q.V.R.W.X.Y.",
"! > ^ Z.^ 6 `.* 6  +.+++W W @+#+$+%+W W &+; r ; [ ; q ; *+=+s -+",
"} 6 ^ 0 > q ) r [ % ] ;+>+W ,+'+)+!+W ~+{+]+- 0 } / l r *+r ; = ",
") < > 3 7 4 ) [ : a y j ^+W /+(+_+:+<+[+/ > : } # 4 q }+* ^ 1 ' ",
"+ < ! 4 _ _ < > < _ @ H |+1+2+3+4+5+6+/ - & ( . < [ 2 # _ 2 < 4 ",
"i ) q / ) > ] [ 7 o w ,   Z 7+8+9+0+b = 5 : 3 a ]+& : < 7 ' d b ",
"! _ - _ [ / . # i ~ i | y a+'.b+c+d+} { ) 4 r < { - 8 > } ) } 1 ",
"8 > - q % ) % # $ | Q ' | y #.e+f+g+] l *+} r [ { 8 2 [ { 9 & } ",
"# % % b / 8 2 [   | ' % | Y h+i+b.j+k+5 6 b 2 : b ) ( 7 % - b % ",
"b 8 2 < a ' i # ! ) @ 4 | Q l+m+i.n+< g 9   ' # t b # . > { d 9 ",
"- % 8 2 $ 4 4 4 ( 3 7 o 4 G ,.o+p+q+% } & 3 - $ b ) 6 ; % l p r ",
"l [ > < # ( _ b / ( # 8 ! Q r+s+c.t+u+2 ( > d ! = Z & 1 & ^ 0 l ",
"# < b 7 q < 7 1 > [ i 7 7 y #.v+w+x+# % $ < $ y+[ ~ & 6 ^ 0 6 l ",
") q > # } 8 d } d - [ 4 . m h+b+z+A+) 4 ! B+c j 3 + > C+& 9 } 6 ",
"9 } 0 1 ( 7 % < } [ } > . h h+D+e.E+F+G+c . 8 Z 7 2 6 p & b } l ",
"a b 8 [ : _ > 1 % b 7 : b | H+I+J+K+L+{ < a / 4 l 7 } r & & } g "};
