/* XPM */
static char * 7_xpm[] = {
"32 32 242 2",
"  	c #717171",
". 	c #707070",
"+ 	c #6F6F6F",
"@ 	c #6E6E6E",
"# 	c #818181",
"$ 	c #777777",
"% 	c #868686",
"& 	c #8E8E8E",
"* 	c #979797",
"= 	c #959595",
"- 	c #8C8C8C",
"; 	c #909090",
"> 	c #888888",
", 	c #666666",
"' 	c #747474",
") 	c #858585",
"! 	c #767676",
"~ 	c #676767",
"{ 	c #919191",
"] 	c #727272",
"^ 	c #929292",
"/ 	c #878787",
"( 	c #7D7D7D",
"_ 	c #7F7F7F",
": 	c #787878",
"< 	c #828282",
"[ 	c #848484",
"} 	c #8A8A8A",
"| 	c #6C6C6C",
"1 	c #8D8D8D",
"2 	c #7E7E7E",
"3 	c #7B7B7B",
"4 	c #7A7A7A",
"5 	c #9A9A9A",
"6 	c #949494",
"7 	c #7C7C7C",
"8 	c #838383",
"9 	c #8F8F8F",
"0 	c #939393",
"a 	c #737373",
"b 	c #808080",
"c 	c #757575",
"d 	c #8B8B8B",
"e 	c #A2A2A2",
"f 	c #9E9E9E",
"g 	c #999999",
"h 	c #6A6A6A",
"i 	c #797979",
"j 	c #696969",
"k 	c #9B9B9B",
"l 	c #969696",
"m 	c #686868",
"n 	c #636363",
"o 	c #6D6D6D",
"p 	c #9D9D9D",
"q 	c #898989",
"r 	c #989898",
"s 	c #A5A5A5",
"t 	c #6B6B6B",
"u 	c #595959",
"v 	c #A3A3A3",
"w 	c #5D5D5D",
"x 	c #505050",
"y 	c #5E5E5E",
"z 	c #89877B",
"A 	c #E4CD0C",
"B 	c #E6CF00",
"C 	c #A19862",
"D 	c #646464",
"E 	c #5C5C5C",
"F 	c #565656",
"G 	c #555555",
"H 	c #626262",
"I 	c #A39859",
"J 	c #E4CD0D",
"K 	c #736E5A",
"L 	c #606060",
"M 	c #5A5A5A",
"N 	c #525252",
"O 	c #535353",
"P 	c #625F56",
"Q 	c #DCC621",
"R 	c #B4A343",
"S 	c #2A2A2A",
"T 	c #2C2C2C",
"U 	c #2D2D2D",
"V 	c #2F2F2F",
"W 	c #313131",
"X 	c #373737",
"Y 	c #323232",
"Z 	c #2B2B2B",
"` 	c #2E2E2E",
" .	c #282828",
"..	c #252525",
"+.	c #303030",
"@.	c #AC9A1F",
"#.	c #D4BF10",
"$.	c #424237",
"%.	c #292929",
"&.	c #383838",
"*.	c #353535",
"=.	c #343434",
"-.	c #333333",
";.	c #1C1C1B",
">.	c #1E1D1D",
",.	c #1F1F1E",
"'.	c #1D1D1C",
").	c #1F1E1E",
"!.	c #1C1B1A",
"~.	c #212020",
"{.	c #20201F",
"].	c #201F1F",
"^.	c #1E1E1E",
"/.	c #222120",
"(.	c #201F1E",
"_.	c #575018",
":.	c #E2CB02",
"<.	c #E5CE00",
"[.	c #766A1B",
"}.	c #202020",
"|.	c #1A1A1A",
"1.	c #222221",
"2.	c #1E1D1C",
"3.	c #1E1E1D",
"4.	c #4F4944",
"5.	c #5A544E",
"6.	c #544F49",
"7.	c #59534D",
"8.	c #59534C",
"9.	c #544E48",
"0.	c #504A44",
"a.	c #47423C",
"b.	c #423D38",
"c.	c #4E4842",
"d.	c #504A45",
"e.	c #4A4540",
"f.	c #423E39",
"g.	c #46413C",
"h.	c #C2AF1E",
"i.	c #B5A325",
"j.	c #45403B",
"k.	c #433E39",
"l.	c #4C4842",
"m.	c #423C38",
"n.	c #49443E",
"o.	c #45403A",
"p.	c #48433E",
"q.	c #46423C",
"r.	c #46403B",
"s.	c #91877D",
"t.	c #9A9085",
"u.	c #9C9287",
"v.	c #A0958B",
"w.	c #9E9489",
"x.	c #9E9388",
"y.	c #968C81",
"z.	c #7E766C",
"A.	c #787066",
"B.	c #7E756C",
"C.	c #90867C",
"D.	c #81786E",
"E.	c #756C64",
"F.	c #7A7268",
"G.	c #9E915F",
"H.	c #DBC625",
"I.	c #837968",
"J.	c #797067",
"K.	c #776E66",
"L.	c #7F766C",
"M.	c #7C7269",
"N.	c #847B70",
"O.	c #978D82",
"P.	c #80766E",
"Q.	c #877D74",
"R.	c #8C8278",
"S.	c #887E74",
"T.	c #949493",
"U.	c #8B8B8A",
"V.	c #878686",
"W.	c #848483",
"X.	c #60605F",
"Y.	c #515151",
"Z.	c #676765",
"`.	c #D3BF24",
" +	c #A4955F",
".+	c #9C9C9C",
"++	c #9D9C9C",
"@+	c #9B9B9A",
"#+	c #616161",
"$+	c #AA9D57",
"%+	c #BFAC2E",
"&+	c #A0A0A0",
"*+	c #615E4F",
"=+	c #DEC81B",
"-+	c #DDC608",
";+	c #665C46",
">+	c #7A7168",
",+	c #9F9F9F",
"'+	c #BBAB4C",
")+	c #8B7F23",
"!+	c #787067",
"~+	c #404040",
"{+	c #2C2B2A",
"]+	c #4F4943",
"^+	c #80776E",
"/+	c #545454",
"(+	c #282827",
"_+	c #49433E",
":+	c #827A70",
"<+	c #2C2C2B",
"[+	c #4C4741",
"}+	c #786F66",
"|+	c #585858",
"1+	c #3A3A3A",
"2+	c #2F2E2E",
"3+	c #797878",
"4+	c #3C3C3C",
"5+	c #282826",
"6+	c #7E756B",
"7+	c #262625",
"8+	c #524C45",
"9+	c #827970",
"0+	c #363636",
"a+	c #2B2A2A",
"b+	c #847A71",
"c+	c #818180",
"d+	c #272626",
"e+	c #5A544D",
"f+	c #8A8177",
"g+	c #464646",
"h+	c #58534C",
"i+	c #7F766D",
"j+	c #A8A8A8",
"k+	c #292828",
"l+	c #837A70",
"m+	c #818080",
"n+	c #A1A1A1",
"o+	c #3E3E3E",
"p+	c #2A2A29",
"q+	c #56504A",
"r+	c #877E74",
"s+	c #6F6E6E",
"  . + @ # $ % & * = - ; - > $ , ' ) ! ~ ! > { + ] ^ - / / & ( % ",
"( _ : / < [ { ) ; { } } | $ ! 1 % [ 2 3 4 2 < ! ) 5 1 [ { ; < ^ ",
"6 - 7 / 4 8 & 1 9 ^ % < . 0 4 a b $ / c % % d e e 5 % < : _ > f ",
") < a > ( } 9 - - [   4 b : 4 7 @ _ ( : < 4 ; g # b < 2 h [ 9 f ",
"% 7 > % i 1 < ; 9 - a [ - / 2 a , ( ' < < a / ( 3 [ * ( j k l e ",
") / d 8 ( 2 # & ^ ( > [ > c m n | 2 4 [ o $ ( [ 1 & $ | & { 9 p ",
": % 7 7 [ 7 q % % - _ > 4 3 ! c ; r 8 c a : 3 2 . a l 3 ^ 9 * p ",
"3 $ ! < ) / [ } - ) / } ' 7 ] } [     ] / a ) 2 d p s 0 ; = = 9 ",
"] m b   _ 3 % % : - [ 2 ! % _ t h , u 2 ( $ ! 8 / - v ; [ 5 ( < ",
", a @ 3 ' : ( 3 , % ! 7 ( 3 w x a y $ < @ ) > 4 1 9 0 7 [ b > % ",
"( | @ c + $ : 2 @ # ( ] z A B B B B B B B C y , [ 2 # [ 7 7 1 _ ",
". o D i ] : : 4   c E c 4 F G H h I B B J K a | b ' 8 4 < $ < + ",
"y u u L M L ~ w N y F D E O y M P Q B B R F y o ! H y F h H H w ",
"S T T U T V S W X Y T Z `  ...+.@.B B #.$.+.%.&.*.+.Z ` =.Y -.=.",
";.>.,.'.).).!.~.~.{.].^./.(.(._.:.B <.[.}.|.^.1.2.3.!.3.{.{.,.,.",
"4.5.6.7.8.9.0.a.b.c.d.e.a.f.g.h.B B i.j.k.g.l.e.m.n.o.p.n.p.q.r.",
"s.t.u.v.w.x.y.z.A.B.C.D.E.F.G.B B H.I.J.K.J.L.M.N.O.J.P.L.Q.R.S.",
"! > ^ T.^ 6 U.* 6 V.W.X.Y.Z.`.B B  +b 9 ! ; r ; [ ; q ; .+++s @+",
"} 6 ^ 0 > q ) r [ % ] h #+$+B B %+J.$ - ^ &+- 0 } / l r .+r ; = ",
") < > 3 7 4 ) [ : a y j *+=+B -+;+>+} > / > : } # 4 q ,+* ^ 1 ' ",
"+ < ! 4 _ _ < > < _ @ E '+B B )+c.!+4 / - & ( . < [ 2 # _ 2 < 4 ",
"i ) q / ) > ] [ 7 o w ,   H ~+{+]+^+b = 5 : 3 a &+& : < 7 ' d b ",
"! _ - _ [ / . # i ~ i | y /+=.(+_+:+} { ) 4 r < { - 8 > } ) } 1 ",
"8 > - q % ) % # $ | L ' | y X <+[+}+] l .+} r [ { 8 2 [ { 9 & } ",
"# % % b / 8 2 [   | ' % | |+1+2+6.>+3+5 6 b 2 : b ) ( 7 % - b % ",
"b 8 2 < a ' i # ! ) @ 4 | L 4+5+c.6+< g 9   ' # t b # . > { d 9 ",
"- % 8 2 $ 4 4 4 ( 3 7 o 4 D *.7+8+9+% } & 3 - $ b ) 6 ; % l p r ",
"l [ > < # ( _ b / ( # 8 ! L 0+a+7.b+c+2 ( > d ! = H & 1 & ^ 0 l ",
"# < b 7 q < 7 1 > [ i 7 7 y X d+e+f+# % $ < $ g+[ ~ & 6 ^ 0 6 l ",
") q > # } 8 d } d - [ 4 . m 1+(+h+i+) 4 ! #+c j 3 + > j+& 9 } 6 ",
"9 } 0 1 ( 7 % < } [ } > . h 1+k+9.l+m+n+c . 8 H 7 2 6 p & b } l ",
"a b 8 [ : _ > 1 % b 7 : b | o+p+q+r+s+{ < a / 4 l 7 } r & & } g "};
