/* XPM */
static char * 8_xpm[] = {
"32 32 263 2",
"  	c #717171",
". 	c #707070",
"+ 	c #6F6F6F",
"@ 	c #6E6E6E",
"# 	c #818181",
"$ 	c #777777",
"% 	c #868686",
"& 	c #8E8E8E",
"* 	c #979797",
"= 	c #959595",
"- 	c #8C8C8C",
"; 	c #909090",
"> 	c #888888",
", 	c #666666",
"' 	c #747474",
") 	c #858585",
"! 	c #767676",
"~ 	c #676767",
"{ 	c #919191",
"] 	c #727272",
"^ 	c #929292",
"/ 	c #878787",
"( 	c #7D7D7D",
"_ 	c #7F7F7F",
": 	c #787878",
"< 	c #828282",
"[ 	c #848484",
"} 	c #8A8A8A",
"| 	c #6C6C6C",
"1 	c #8D8D8D",
"2 	c #7E7E7E",
"3 	c #7B7B7B",
"4 	c #7A7A7A",
"5 	c #9A9A9A",
"6 	c #949494",
"7 	c #7C7C7C",
"8 	c #838383",
"9 	c #8F8F8F",
"0 	c #939393",
"a 	c #737373",
"b 	c #808080",
"c 	c #757575",
"d 	c #8B8B8B",
"e 	c #A2A2A2",
"f 	c #9E9E9E",
"g 	c #999999",
"h 	c #6A6A6A",
"i 	c #797979",
"j 	c #696969",
"k 	c #9B9B9B",
"l 	c #969696",
"m 	c #686868",
"n 	c #636363",
"o 	c #6D6D6D",
"p 	c #9D9D9D",
"q 	c #898989",
"r 	c #989898",
"s 	c #A5A5A5",
"t 	c #6B6B6B",
"u 	c #595959",
"v 	c #A3A3A3",
"w 	c #5D5D5D",
"x 	c #505050",
"y 	c #5E5E5E",
"z 	c #6C6C66",
"A 	c #A3943C",
"B 	c #D3BF33",
"C 	c #DEC819",
"D 	c #E4CE12",
"E 	c #DCC630",
"F 	c #BDAE59",
"G 	c #797973",
"H 	c #646464",
"I 	c #5C5C5C",
"J 	c #7B7B7A",
"K 	c #CBB82C",
"L 	c #E6CF00",
"M 	c #DCC51F",
"N 	c #888062",
"O 	c #948960",
"P 	c #E5CE07",
"Q 	c #C1B14C",
"R 	c #606060",
"S 	c #5A5A5A",
"T 	c #525252",
"U 	c #565656",
"V 	c #8B8151",
"W 	c #AF9F42",
"X 	c #585858",
"Y 	c #D8C321",
"Z 	c #D7C224",
"` 	c #626262",
" .	c #2A2A2A",
"..	c #2C2C2C",
"+.	c #2D2D2D",
"@.	c #2F2F2F",
"#.	c #313131",
"$.	c #373737",
"%.	c #323232",
"&.	c #2B2B2B",
"*.	c #8A7F26",
"=.	c #998A25",
"-.	c #2E2E2E",
";.	c #3B3632",
">.	c #DFC906",
",.	c #C4B01E",
"'.	c #303030",
").	c #292929",
"!.	c #383838",
"~.	c #353535",
"{.	c #343434",
"].	c #333333",
"^.	c #1C1C1B",
"/.	c #1E1D1D",
"(.	c #1F1F1E",
"_.	c #1D1D1C",
":.	c #1F1E1E",
"<.	c #1C1B1A",
"[.	c #212020",
"}.	c #20201F",
"|.	c #201F1F",
"1.	c #1E1E1E",
"2.	c #483F1F",
"3.	c #DCC604",
"4.	c #C4B10A",
"5.	c #473E1D",
"6.	c #A69614",
"7.	c #D9C405",
"8.	c #62581D",
"9.	c #1A1A1A",
"0.	c #222221",
"a.	c #1E1D1C",
"b.	c #1E1E1D",
"c.	c #4F4944",
"d.	c #5A544E",
"e.	c #544F49",
"f.	c #59534D",
"g.	c #59534C",
"h.	c #544E48",
"i.	c #504A44",
"j.	c #47423C",
"k.	c #423D38",
"l.	c #4E4842",
"m.	c #504A45",
"n.	c #4A4540",
"o.	c #96882E",
"p.	c #E4CD04",
"q.	c #D2BE17",
"r.	c #605739",
"s.	c #433E39",
"t.	c #46413C",
"u.	c #4C4842",
"v.	c #423C38",
"w.	c #49443E",
"x.	c #45403A",
"y.	c #48433E",
"z.	c #46423C",
"A.	c #46403B",
"B.	c #91877D",
"C.	c #9A9085",
"D.	c #9C9287",
"E.	c #A0958B",
"F.	c #9E9489",
"G.	c #9E9388",
"H.	c #968C81",
"I.	c #7E766C",
"J.	c #787066",
"K.	c #7E756C",
"L.	c #90867C",
"M.	c #847A6D",
"N.	c #CAB739",
"O.	c #D6C230",
"P.	c #897C59",
"Q.	c #837755",
"R.	c #DCC623",
"S.	c #CEBA37",
"T.	c #776E66",
"U.	c #797067",
"V.	c #7F766C",
"W.	c #7C7269",
"X.	c #847B70",
"Y.	c #978D82",
"Z.	c #80766E",
"`.	c #877D74",
" +	c #8C8278",
".+	c #887E74",
"++	c #949493",
"@+	c #8B8B8A",
"#+	c #878686",
"$+	c #848483",
"%+	c #A99C49",
"&+	c #877E4B",
"*+	c #595856",
"=+	c #635C54",
"-+	c #C6B347",
";+	c #7D7B74",
">+	c #9C9C9C",
",+	c #9D9C9C",
"'+	c #9B9B9A",
")+	c #C4B142",
"!+	c #605D49",
"~+	c #363534",
"{+	c #58514A",
"]+	c #D1BD34",
"^+	c #E1CB25",
"/+	c #939392",
"(+	c #A0A0A0",
"_+	c #A59955",
":+	c #A5962C",
"<+	c #47432B",
"[+	c #A79637",
"}+	c #E6CF03",
"|+	c #B5A96C",
"1+	c #9F9F9F",
"2+	c #A99C58",
"3+	c #D3BF31",
"4+	c #E0CA09",
"5+	c #E2CB03",
"6+	c #D9C315",
"7+	c #C8B53E",
"8+	c #9B936D",
"9+	c #404040",
"0+	c #2C2B2A",
"a+	c #4F4943",
"b+	c #80776E",
"c+	c #545454",
"d+	c #282827",
"e+	c #49433E",
"f+	c #827A70",
"g+	c #2C2C2B",
"h+	c #4C4741",
"i+	c #786F66",
"j+	c #3A3A3A",
"k+	c #2F2E2E",
"l+	c #7A7168",
"m+	c #797878",
"n+	c #3C3C3C",
"o+	c #282826",
"p+	c #7E756B",
"q+	c #262625",
"r+	c #524C45",
"s+	c #827970",
"t+	c #363636",
"u+	c #2B2A2A",
"v+	c #847A71",
"w+	c #818180",
"x+	c #272626",
"y+	c #5A544D",
"z+	c #8A8177",
"A+	c #464646",
"B+	c #58534C",
"C+	c #7F766D",
"D+	c #616161",
"E+	c #A8A8A8",
"F+	c #292828",
"G+	c #837A70",
"H+	c #818080",
"I+	c #A1A1A1",
"J+	c #3E3E3E",
"K+	c #2A2A29",
"L+	c #56504A",
"M+	c #877E74",
"N+	c #6F6E6E",
"  . + @ # $ % & * = - ; - > $ , ' ) ! ~ ! > { + ] ^ - / / & ( % ",
"( _ : / < [ { ) ; { } } | $ ! 1 % [ 2 3 4 2 < ! ) 5 1 [ { ; < ^ ",
"6 - 7 / 4 8 & 1 9 ^ % < . 0 4 a b $ / c % % d e e 5 % < : _ > f ",
") < a > ( } 9 - - [   4 b : 4 7 @ _ ( : < 4 ; g # b < 2 h [ 9 f ",
"% 7 > % i 1 < ; 9 - a [ - / 2 a , ( ' < < a / ( 3 [ * ( j k l e ",
") / d 8 ( 2 # & ^ ( > [ > c m n | 2 4 [ o $ ( [ 1 & $ | & { 9 p ",
": % 7 7 [ 7 q % % - _ > 4 3 ! c ; r 8 c a : 3 2 . a l 3 ^ 9 * p ",
"3 $ ! < ) / [ } - ) / } ' 7 ] } [     ] / a ) 2 d p s 0 ; = = 9 ",
"] m b   _ 3 % % : - [ 2 ! % _ t h , u 2 ( $ ! 8 / - v ; [ 5 ( < ",
", a @ 3 ' : ( 3 , % ! 7 ( 3 w x a y $ < @ ) > 4 1 9 0 7 [ b > % ",
"( | @ c + $ : 2 @ # ( ] _ z A B C D E F G ' y , [ 2 # [ 7 7 1 _ ",
". o H i ] : : 4   c I c J K L M N O P L Q y a | b ' 8 4 < $ < + ",
"y u u R S R ~ w T y U H V L L W X H Y L Z U y o ! ` y U h ` ` w ",
" .....+...@. .#.$.%...&.*.L L =.-.;.>.L ,.'.).!.~.'.&.-.{.%.].{.",
"^./.(._.:.:.<.[.[.}.|.1.2.3.L 4.5.6.L 7.8.9.1.0.a.b.<.b.}.}.(.(.",
"c.d.e.f.g.h.i.j.k.l.m.n.j.o.p.L L L q.r.s.t.u.n.v.w.x.y.w.y.z.A.",
"B.C.D.E.F.G.H.I.J.K.L.M.N.L O.P.Q.R.L S.T.U.V.W.X.Y.U.Z.V.`. +.+",
"! > ^ ++^ 6 @+* 6 #+$+%+L L &+*+=+-+L L ;+; r ; [ ; q ; >+,+s '+",
"} 6 ^ 0 > q ) r [ % ] )+L L !+~+{+]+L ^+/+(+- 0 } / l r >+r ; = ",
") < > 3 7 4 ) [ : a y _+L L :+<+[+L }+|+/ > : } # 4 q 1+* ^ 1 ' ",
"+ < ! 4 _ _ < > < _ @ I 2+3+4+5+6+7+8+/ - & ( . < [ 2 # _ 2 < 4 ",
"i ) q / ) > ] [ 7 o w ,   ` 9+0+a+b+b = 5 : 3 a (+& : < 7 ' d b ",
"! _ - _ [ / . # i ~ i | y c+{.d+e+f+} { ) 4 r < { - 8 > } ) } 1 ",
"8 > - q % ) % # $ | R ' | y $.g+h+i+] l >+} r [ { 8 2 [ { 9 & } ",
"# % % b / 8 2 [   | ' % | X j+k+e.l+m+5 6 b 2 : b ) ( 7 % - b % ",
"b 8 2 < a ' i # ! ) @ 4 | R n+o+l.p+< g 9   ' # t b # . > { d 9 ",
"- % 8 2 $ 4 4 4 ( 3 7 o 4 H ~.q+r+s+% } & 3 - $ b ) 6 ; % l p r ",
"l [ > < # ( _ b / ( # 8 ! R t+u+f.v+w+2 ( > d ! = ` & 1 & ^ 0 l ",
"# < b 7 q < 7 1 > [ i 7 7 y $.x+y+z+# % $ < $ A+[ ~ & 6 ^ 0 6 l ",
") q > # } 8 d } d - [ 4 . m j+d+B+C+) 4 ! D+c j 3 + > E+& 9 } 6 ",
"9 } 0 1 ( 7 % < } [ } > . h j+F+h.G+H+I+c . 8 ` 7 2 6 p & b } l ",
"a b 8 [ : _ > 1 % b 7 : b | J+K+L+M+N+{ < a / 4 l 7 } r & & } g "};
