/* XPM */
static char * collectible4_xpm[] = {
"32 32 206 2",
"  	c #2A2825",
". 	c #2B2825",
"+ 	c #2B2925",
"@ 	c #2C2925",
"# 	c #2D2A24",
"$ 	c #4E3F36",
"% 	c #918073",
"& 	c #D2CCC0",
"* 	c #D3CDC1",
"= 	c #D0C9BB",
"- 	c #BEB5A6",
"; 	c #D2CBBD",
"> 	c #D8D3C8",
", 	c #C6BCAF",
"' 	c #CFC7B8",
") 	c #D0C9BA",
"! 	c #D4CEC2",
"~ 	c #D1CABC",
"{ 	c #D5CFC4",
"] 	c #D5D0C5",
"^ 	c #D3C622",
"/ 	c #CABD22",
"( 	c #D1CABD",
"_ 	c #CABEB0",
": 	c #DAD5CB",
"< 	c #DEDBD4",
"[ 	c #E0DED8",
"} 	c #DCD8D0",
"| 	c #CFC8BA",
"1 	c #D0C9BC",
"2 	c #CFC8B9",
"3 	c #D2CBBE",
"4 	c #282724",
"5 	c #292724",
"6 	c #855C00",
"7 	c #CE9B00",
"8 	c #352B10",
"9 	c #5B4100",
"0 	c #DDD9D2",
"a 	c #E1DFDA",
"b 	c #E3E1DD",
"c 	c #DDD9D1",
"d 	c #CEC5BA",
"e 	c #C9BEAE",
"f 	c #C9BDAE",
"g 	c #272624",
"h 	c #D7CDC2",
"i 	c #E0DDD8",
"j 	c #E2E0DB",
"k 	c #E5E4E1",
"l 	c #E1DED9",
"m 	c #DBD6CD",
"n 	c #D0C8BA",
"o 	c #D9B422",
"p 	c #DBD7CE",
"q 	c #E0DDD7",
"r 	c #DAD6CC",
"s 	c #D3CDC0",
"t 	c #FBFDFA",
"u 	c #E1B700",
"v 	c #E2E0DC",
"w 	c #D4CEC4",
"x 	c #D7D2C7",
"y 	c #D1CBBE",
"z 	c #D1CBBD",
"A 	c #292825",
"B 	c #A1AD00",
"C 	c #A4AD00",
"D 	c #CBC2B5",
"E 	c #2E2A24",
"F 	c #B1BC0E",
"G 	c #C9C0B4",
"H 	c #D3CCC1",
"I 	c #2C2A25",
"J 	c #DCD9D1",
"K 	c #D9D3C9",
"L 	c #A2AD00",
"M 	c #5C4100",
"N 	c #F1E42B",
"O 	c #DEDAD3",
"P 	c #D2CCBF",
"Q 	c #2F2B24",
"R 	c #2F2B23",
"S 	c #D4CEC3",
"T 	c #D4CFC4",
"U 	c #2D2A25",
"V 	c #302B23",
"W 	c #936600",
"X 	c #CF9C00",
"Y 	c #D9D4CA",
"Z 	c #C4BBAC",
"` 	c #D3CDC2",
" .	c #302B22",
"..	c #C09800",
"+.	c #DFDCD6",
"@.	c #CBC4B9",
"#.	c #E2CF10",
"$.	c #EAE045",
"%.	c #8D6B00",
"&.	c #AB7E00",
"*.	c #CFC7B9",
"=.	c #312B23",
"-.	c #312B22",
";.	c #A77600",
">.	c #C69800",
",.	c #DDDAD4",
"'.	c #CFC8BB",
").	c #CEC7BA",
"!.	c #D2CCC1",
"~.	c #453A31",
"{.	c #453B32",
"].	c #463A32",
"^.	c #BF9700",
"/.	c #7D6A58",
"(.	c #7D6857",
"_.	c #866F5B",
":.	c #89725D",
"<.	c #B5A8A1",
"[.	c #AD9E93",
"}.	c #AF9B8A",
"|.	c #332A23",
"1.	c #352A25",
"2.	c #372B26",
"3.	c #44362C",
"4.	c #DBD7D0",
"5.	c #B6AB9F",
"6.	c #CEC7B9",
"7.	c #A87500",
"8.	c #171615",
"9.	c #151413",
"0.	c #181716",
"a.	c #231F19",
"b.	c #C7C0B4",
"c.	c #C5BEB1",
"d.	c #533D00",
"e.	c #111110",
"f.	c #10100F",
"g.	c #131212",
"h.	c #161514",
"i.	c #C8B814",
"j.	c #8E6A00",
"k.	c #121212",
"l.	c #C3BAAB",
"m.	c #D6D1C7",
"n.	c #121111",
"o.	c #D6D1C6",
"p.	c #111010",
"q.	c #111111",
"r.	c #D9D5CD",
"s.	c #DCD9D3",
"t.	c #121211",
"u.	c #1F1D18",
"v.	c #D9D5CC",
"w.	c #1F1D19",
"x.	c #1C1A17",
"y.	c #1E1C18",
"z.	c #201D19",
"A.	c #252018",
"B.	c #D5CFC5",
"C.	c #DDDBD5",
"D.	c #A59208",
"E.	c #27231A",
"F.	c #221F19",
"G.	c #242019",
"H.	c #D3CEC2",
"I.	c #D8D3CA",
"J.	c #DAD7CF",
"K.	c #DDDAD3",
"L.	c #DDDAD5",
"M.	c #DEDBD6",
"N.	c #A59109",
"O.	c #342C23",
"P.	c #2B251C",
"Q.	c #2A251C",
"R.	c #D6D0C6",
"S.	c #DCD8D2",
"T.	c #DEDCD7",
"U.	c #6A511F",
"V.	c #2C271E",
"W.	c #342E26",
"X.	c #322C23",
"Y.	c #D7D2C9",
"Z.	c #D9D4CC",
"`.	c #DBD8D1",
" +	c #DFDCD8",
".+	c #2E2920",
"++	c #D3CCC0",
"@+	c #DAD6CE",
"#+	c #DCD9D2",
"$+	c #E0DEDA",
"%+	c #2F2A24",
"&+	c #28231A",
"*+	c #312A22",
"=+	c #262117",
"-+	c #DAD6CF",
";+	c #E0DEDB",
">+	c #262118",
",+	c #CEC7B8",
"'+	c #DFDDD9",
")+	c #E0DFDB",
"!+	c #E0DED9",
"~+	c #DFDDD8",
"{+	c #DBD8D3",
"]+	c #A48C7D",
"^+	c #473D35",
"/+	c #242018",
"  . . . + +   + +   + + + @ # $ % & * = - ; > , ' ) ! * ~ { ] * ",
"    + + .               ^ ^ ^ ^ ^ / ^ ( _ : < [ } | = 1 2 ( 3 ~ ",
"4 5 5   5 4 5 5 5   ^ ^ 6 6 7 8 8 8 9 9 6 0 < a b c d e f ) = 3 ",
"g 4 5   5 4 4 4 4 ^ 8 8 6 7 7 8 8 8 6 9 9 6 h i j k l m : 3 n ~ ",
"4 4 5     5 5 o ^ 8 8 6 6 6 6 8 8 8 6 6 9 9 6 p q k < r p s 2 = ",
"5 5   @ +   + o 8 8 8 6 9 6 6 6 8 6 6 6 6 t u 6 q v } w x = y z ",
"A   + # @ @ o 8 8 B B C 9 6 6 6 9 6 6 t t t u 6 6 0 c : D 1 * { ",
"  + # E E o o F F B B B 9 9 6 9 9 9 t t t t u u 6 6 p G H n ! * ",
"+ I I E E o o F F B B B 9 9 6 t t t t t t t 7 u u 6 J K ~ n & ! ",
"@ # E E 6 o F F F L B 9 M ^ ^ ^ t t t t t t 7 7 u N O } ( ~ s P ",
"@ E Q R 6 6 F F B L C 9 ^ ^ ^ ^ ^ ^ t t t t 7 7 7 N N } | P S T ",
"U E V V 6 6 W F B 7 ^ ^ ^ ^ ^ ^ ^ ^ ^ t t t 7 X 7 N N Y Z 3 ` { ",
"E V  . .6 6 W 6 7 7 ^ ^ ^ ^ ^ ^ ^ ^ ^ ^ ^ ^ ^ 7 N N ..+.@.= P { ",
"Q V  .6 6 6 W W 7 ^ ^ #.#.#.$.^ ^ ^ ^ ^ #.^ %.X N ....&.* *.( { ",
"V =.-.6 6 ;.W W 7 ^ ^ #.#.#.$.$.^ ^ ^ ^ #.#.%.%.>.....&.,.'.).!.",
"~.{.].6 6 ;.;.W 7 ^ #.#.#.#.$.$.^ ^ ^ ^ #.#.#.%.>.^...&./.(._.:.",
"<.[.}.6 ;.;.;.W 7 ^ #.#.#.#.#.$.^ ^ ^ ^ #.#.#.%.>.%.%.&.|.1.2.3.",
"4.5.6.6 7.;.;.W 7 ^ ^ #.#.#.#.$.^ ^ ^ ^ #.#.#.%.>.%.%.&.8.9.0.a.",
"b.s c.7.7.7.;.W d.^ ^ #.#.#.#.$.^ ^ ^ ^ #.#.#.%.>.%.%.%.e.f.g.h.",
"( ' 2 6 6 ;.7.W d.d.^ ^ #.#.#.$.^ ^ ^ ^ #.#.i.8 %.%.j.%.f.f.f.k.",
"l.~ z m.6 6 i.i.d.d.^ ^ ^ #.#.$.^ ^ ^ ^ #.#.i.8 %.%.%.%.f.f.n.9.",
"2 ~ o.4.6 6 i.i.d.d.d.^ ^ ^ ^ $.^ ^ ^ ^ ^ ^ 8 8 >.%.%.p.f.f.q.8.",
"*.P r.s.^ 7 7 i.d.d.d.^ ^ ^ ^ #.$.^ ^ ^ ^ ^ 8 >.>.>.%.h.t.t.8.u.",
"( ] v.s.,.7 7 7 8 d.d.^ ^ ^ #.#.$.^ ^ ^ ^ ^ 8 >.>.X a.w.x.y.z.A.",
"` B.r.,.C.X 7 i.8 8 d.d.^ #.#.#.#.#.^ ^ ^ D.>.>.>.7 V E.F.F.A.G.",
"H.I.J.K.L.M.i.i.8 8 d.d.>.>.^ ^ ^ ^ ^ D.D.N.8 8 X V R  .O.P.Q.F.",
"T R.r.S.s.s.T.8 8 8 8 d.d.>.>.d.^ ^ N.D.D.N.8 X U.R R V V.W.X.a.",
"* Y.r.r.J.C.,.8 8 8 8 8 d.>.>.d.d.8 N.N.N.N.7 7 Q Q Q V V  .A.a.",
"P { Z.v.`.C.L.M. +8 8 8 8 >.>.>.>.8 8 8 8 X 7 E E E Q V  ..+Q.A.",
"3 ++r.@+#+C.C.#+,.$+8 8 8 8 8 >.>.>.>.X 7 E E Q %+%+Q V -.&+*+=+",
"| ++I.-+-+-+#+`.`.T.;+$+8 8 X X 7 X 7 # # E E E Q V V V  .>+>+Q.",
",+3 ! m.v.Z.Z.r.r.,.'+)+!+~+{+]+^+U # # I I E E Q V V  ..+/+/+F."};
