/* XPM */
static char * wall_xpm[] = {
"32 32 228 2",
"  	c #717171",
". 	c #707070",
"+ 	c #6F6F6F",
"@ 	c #6E6E6E",
"# 	c #818181",
"$ 	c #777777",
"% 	c #868686",
"& 	c #8E8E8E",
"* 	c #979797",
"= 	c #959595",
"- 	c #8C8C8C",
"; 	c #909090",
"> 	c #888888",
", 	c #666666",
"' 	c #747474",
") 	c #858585",
"! 	c #767676",
"~ 	c #676767",
"{ 	c #919191",
"] 	c #727272",
"^ 	c #929292",
"/ 	c #878787",
"( 	c #7D7D7D",
"_ 	c #7F7F7F",
": 	c #787878",
"< 	c #828282",
"[ 	c #848484",
"} 	c #8A8A8A",
"| 	c #6C6C6C",
"1 	c #8D8D8D",
"2 	c #7E7E7E",
"3 	c #7B7B7B",
"4 	c #7A7A7A",
"5 	c #9A9A9A",
"6 	c #949494",
"7 	c #7C7C7C",
"8 	c #838383",
"9 	c #8F8F8F",
"0 	c #939393",
"a 	c #737373",
"b 	c #808080",
"c 	c #757575",
"d 	c #8B8B8B",
"e 	c #A2A2A2",
"f 	c #9E9E9E",
"g 	c #999999",
"h 	c #6A6A6A",
"i 	c #797979",
"j 	c #696969",
"k 	c #9B9B9B",
"l 	c #969696",
"m 	c #686868",
"n 	c #636363",
"o 	c #6D6D6D",
"p 	c #9D9D9D",
"q 	c #898989",
"r 	c #989898",
"s 	c #A5A5A5",
"t 	c #6B6B6B",
"u 	c #595959",
"v 	c #A3A3A3",
"w 	c #5D5D5D",
"x 	c #505050",
"y 	c #5E5E5E",
"z 	c #4E4E4E",
"A 	c #646464",
"B 	c #5C5C5C",
"C 	c #565656",
"D 	c #555555",
"E 	c #626262",
"F 	c #606060",
"G 	c #5A5A5A",
"H 	c #525252",
"I 	c #535353",
"J 	c #585858",
"K 	c #2A2A2A",
"L 	c #2C2C2C",
"M 	c #2D2D2D",
"N 	c #2F2F2F",
"O 	c #313131",
"P 	c #373737",
"Q 	c #323232",
"R 	c #2B2B2B",
"S 	c #2E2E2E",
"T 	c #282828",
"U 	c #252525",
"V 	c #303030",
"W 	c #383838",
"X 	c #292929",
"Y 	c #353535",
"Z 	c #343434",
"` 	c #333333",
" .	c #1C1C1B",
"..	c #1E1D1D",
"+.	c #1F1F1E",
"@.	c #1D1D1C",
"#.	c #1F1E1E",
"$.	c #1C1B1A",
"%.	c #212020",
"&.	c #20201F",
"*.	c #201F1F",
"=.	c #1E1E1E",
"-.	c #222120",
";.	c #201F1E",
">.	c #1B1A1A",
",.	c #171716",
"'.	c #202020",
").	c #1A1A1A",
"!.	c #222221",
"~.	c #1E1D1C",
"{.	c #1E1E1D",
"].	c #4F4944",
"^.	c #5A544E",
"/.	c #544F49",
"(.	c #59534D",
"_.	c #59534C",
":.	c #544E48",
"<.	c #504A44",
"[.	c #47423C",
"}.	c #423D38",
"|.	c #4E4842",
"1.	c #504A45",
"2.	c #4A4540",
"3.	c #423E39",
"4.	c #46413C",
"5.	c #3F3B36",
"6.	c #34302C",
"7.	c #403C37",
"8.	c #44403A",
"9.	c #45403B",
"0.	c #433E39",
"a.	c #4C4842",
"b.	c #423C38",
"c.	c #49443E",
"d.	c #45403A",
"e.	c #48433E",
"f.	c #46423C",
"g.	c #46403B",
"h.	c #91877D",
"i.	c #9A9085",
"j.	c #9C9287",
"k.	c #A0958B",
"l.	c #9E9489",
"m.	c #9E9388",
"n.	c #968C81",
"o.	c #7E766C",
"p.	c #787066",
"q.	c #7E756C",
"r.	c #90867C",
"s.	c #81786E",
"t.	c #756C64",
"u.	c #7A7268",
"v.	c #706860",
"w.	c #6A625B",
"x.	c #7A7068",
"y.	c #7D746A",
"z.	c #797067",
"A.	c #776E66",
"B.	c #7F766C",
"C.	c #7C7269",
"D.	c #847B70",
"E.	c #978D82",
"F.	c #80766E",
"G.	c #877D74",
"H.	c #8C8278",
"I.	c #887E74",
"J.	c #949493",
"K.	c #8B8B8A",
"L.	c #878686",
"M.	c #848483",
"N.	c #60605F",
"O.	c #515151",
"P.	c #656565",
"Q.	c #545454",
"R.	c #595856",
"S.	c #635C54",
"T.	c #81776E",
"U.	c #9C9C9C",
"V.	c #9D9C9C",
"W.	c #9B9B9A",
"X.	c #616161",
"Y.	c #4C4C4C",
"Z.	c #363534",
"`.	c #58514A",
" +	c #A0A0A0",
".+	c #3C3C3C",
"++	c #2D2C2C",
"@+	c #7A7168",
"#+	c #9F9F9F",
"$+	c #2C2C2B",
"%+	c #787067",
"&+	c #404040",
"*+	c #2C2B2A",
"=+	c #4F4943",
"-+	c #80776E",
";+	c #282827",
">+	c #49433E",
",+	c #827A70",
"'+	c #4C4741",
")+	c #786F66",
"!+	c #3A3A3A",
"~+	c #2F2E2E",
"{+	c #797878",
"]+	c #282826",
"^+	c #7E756B",
"/+	c #262625",
"(+	c #524C45",
"_+	c #827970",
":+	c #363636",
"<+	c #2B2A2A",
"[+	c #847A71",
"}+	c #818180",
"|+	c #272626",
"1+	c #5A544D",
"2+	c #8A8177",
"3+	c #464646",
"4+	c #58534C",
"5+	c #7F766D",
"6+	c #A8A8A8",
"7+	c #292828",
"8+	c #837A70",
"9+	c #818080",
"0+	c #A1A1A1",
"a+	c #3E3E3E",
"b+	c #2A2A29",
"c+	c #56504A",
"d+	c #877E74",
"e+	c #6F6E6E",
"  . + @ # $ % & * = - ; - > $ , ' ) ! ~ ! > { + ] ^ - / / & ( % ",
"( _ : / < [ { ) ; { } } | $ ! 1 % [ 2 3 4 2 < ! ) 5 1 [ { ; < ^ ",
"6 - 7 / 4 8 & 1 9 ^ % < . 0 4 a b $ / c % % d e e 5 % < : _ > f ",
") < a > ( } 9 - - [   4 b : 4 7 @ _ ( : < 4 ; g # b < 2 h [ 9 f ",
"% 7 > % i 1 < ; 9 - a [ - / 2 a , ( ' < < a / ( 3 [ * ( j k l e ",
") / d 8 ( 2 # & ^ ( > [ > c m n | 2 4 [ o $ ( [ 1 & $ | & { 9 p ",
": % 7 7 [ 7 q % % - _ > 4 3 ! c ; r 8 c a : 3 2 . a l 3 ^ 9 * p ",
"3 $ ! < ) / [ } - ) / } ' 7 ] } [     ] / a ) 2 d p s 0 ; = = 9 ",
"] m b   _ 3 % % : - [ 2 ! % _ t h , u 2 ( $ ! 8 / - v ; [ 5 ( < ",
", a @ 3 ' : ( 3 , % ! 7 ( 3 w x a y $ < @ ) > 4 1 9 0 7 [ b > % ",
"( | @ c + $ : 2 @ # ( ] _ ~ z o y 4 _ ( c ' y , [ 2 # [ 7 7 1 _ ",
". o A i ] : : 4   c B c 4 C D E h | ' t ' y a | b ' 8 4 < $ < + ",
"y u u F G F ~ w H y C A B I y G J A J y y C y o ! E y C h E E w ",
"K L L M L N K O P Q L R S T U V S Q S O W V X W Y V R S Z Q ` Z ",
" ...+.@.#.#.$.%.%.&.*.=.-.;.;.>.#.&.,.*.'.).=.!.~.{.$.{.&.&.+.+.",
"].^./.(._.:.<.[.}.|.1.2.[.3.4.5.6.7.8.9.0.4.a.2.b.c.d.e.c.e.f.g.",
"h.i.j.k.l.m.n.o.p.q.r.s.t.u.q.v.w.x.y.z.A.z.B.C.D.E.z.F.B.G.H.I.",
"! > ^ J.^ 6 K.* 6 L.M.N.O.P.Q.R.S.T.b 9 ! ; r ; [ ; q ; U.V.s W.",
"} 6 ^ 0 > q ) r [ % ] h X.@ Y.Z.`.z.$ - ^  +- 0 } / l r U.r ; = ",
") < > 3 7 4 ) [ : a y j O.E .+++:.@+} > / > : } # 4 q #+* ^ 1 ' ",
"+ < ! 4 _ _ < > < _ @ B @ h .+$+|.%+4 / - & ( . < [ 2 # _ 2 < 4 ",
"i ) q / ) > ] [ 7 o w ,   E &+*+=+-+b = 5 : 3 a  +& : < 7 ' d b ",
"! _ - _ [ / . # i ~ i | y Q.Z ;+>+,+} { ) 4 r < { - 8 > } ) } 1 ",
"8 > - q % ) % # $ | F ' | y P $+'+)+] l U.} r [ { 8 2 [ { 9 & } ",
"# % % b / 8 2 [   | ' % | J !+~+/.@+{+5 6 b 2 : b ) ( 7 % - b % ",
"b 8 2 < a ' i # ! ) @ 4 | F .+]+|.^+< g 9   ' # t b # . > { d 9 ",
"- % 8 2 $ 4 4 4 ( 3 7 o 4 A Y /+(+_+% } & 3 - $ b ) 6 ; % l p r ",
"l [ > < # ( _ b / ( # 8 ! F :+<+(.[+}+2 ( > d ! = E & 1 & ^ 0 l ",
"# < b 7 q < 7 1 > [ i 7 7 y P |+1+2+# % $ < $ 3+[ ~ & 6 ^ 0 6 l ",
") q > # } 8 d } d - [ 4 . m !+;+4+5+) 4 ! X.c j 3 + > 6+& 9 } 6 ",
"9 } 0 1 ( 7 % < } [ } > . h !+7+:.8+9+0+c . 8 E 7 2 6 p & b } l ",
"a b 8 [ : _ > 1 % b 7 : b | a+b+c+d+e+{ < a / 4 l 7 } r & & } g "};
