/* XPM */
static char * 0_xpm[] = {
"32 32 262 2",
"  	c #717171",
". 	c #707070",
"+ 	c #6F6F6F",
"@ 	c #6E6E6E",
"# 	c #818181",
"$ 	c #777777",
"% 	c #868686",
"& 	c #8E8E8E",
"* 	c #979797",
"= 	c #959595",
"- 	c #8C8C8C",
"; 	c #909090",
"> 	c #888888",
", 	c #666666",
"' 	c #747474",
") 	c #858585",
"! 	c #767676",
"~ 	c #676767",
"{ 	c #919191",
"] 	c #727272",
"^ 	c #929292",
"/ 	c #878787",
"( 	c #7D7D7D",
"_ 	c #7F7F7F",
": 	c #787878",
"< 	c #828282",
"[ 	c #848484",
"} 	c #8A8A8A",
"| 	c #6C6C6C",
"1 	c #8D8D8D",
"2 	c #7E7E7E",
"3 	c #7B7B7B",
"4 	c #7A7A7A",
"5 	c #9A9A9A",
"6 	c #949494",
"7 	c #7C7C7C",
"8 	c #838383",
"9 	c #8F8F8F",
"0 	c #939393",
"a 	c #737373",
"b 	c #808080",
"c 	c #757575",
"d 	c #8B8B8B",
"e 	c #A2A2A2",
"f 	c #9E9E9E",
"g 	c #999999",
"h 	c #6A6A6A",
"i 	c #797979",
"j 	c #696969",
"k 	c #9B9B9B",
"l 	c #969696",
"m 	c #686868",
"n 	c #636363",
"o 	c #6D6D6D",
"p 	c #9D9D9D",
"q 	c #898989",
"r 	c #989898",
"s 	c #A5A5A5",
"t 	c #6B6B6B",
"u 	c #595959",
"v 	c #A3A3A3",
"w 	c #5D5D5D",
"x 	c #505050",
"y 	c #5E5E5E",
"z 	c #887D44",
"A 	c #CBB93C",
"B 	c #DFC917",
"C 	c #E2CC19",
"D 	c #D4C23D",
"E 	c #A4996B",
"F 	c #646464",
"G 	c #5C5C5C",
"H 	c #A39543",
"I 	c #E5CE02",
"J 	c #D6C028",
"K 	c #827C64",
"L 	c #948B5F",
"M 	c #E6CF02",
"N 	c #E6CF00",
"O 	c #9A9166",
"P 	c #606060",
"Q 	c #5A5A5A",
"R 	c #525252",
"S 	c #565656",
"T 	c #837B54",
"U 	c #E5CE03",
"V 	c #94884D",
"W 	c #585858",
"X 	c #DBC61C",
"Y 	c #C9B733",
"Z 	c #626262",
"` 	c #2A2A2A",
" .	c #2C2C2C",
"..	c #2D2D2D",
"+.	c #2F2F2F",
"@.	c #313131",
"#.	c #373737",
"$.	c #323232",
"%.	c #2B2B2B",
"&.	c #C6B117",
"*.	c #DFC904",
"=.	c #3C3630",
"-.	c #2E2E2E",
";.	c #DAC40B",
">.	c #D7C211",
",.	c #303030",
"'.	c #292929",
").	c #383838",
"!.	c #353535",
"~.	c #343434",
"{.	c #333333",
"].	c #1C1C1B",
"^.	c #1E1D1D",
"/.	c #1F1F1E",
"(.	c #1D1D1C",
"_.	c #1F1E1E",
":.	c #1C1B1A",
"<.	c #212020",
"[.	c #20201F",
"}.	c #201F1F",
"|.	c #49441D",
"1.	c #E4CE01",
"2.	c #C6B20C",
"3.	c #1B1A1A",
"4.	c #25251F",
"5.	c #E2CC01",
"6.	c #D7C107",
"7.	c #1A1A1A",
"8.	c #1E1E1E",
"9.	c #222221",
"0.	c #1E1D1C",
"a.	c #1E1E1D",
"b.	c #4F4944",
"c.	c #5A544E",
"d.	c #544F49",
"e.	c #59534D",
"f.	c #59534C",
"g.	c #544E48",
"h.	c #504A44",
"i.	c #47423C",
"j.	c #423D38",
"k.	c #4E4842",
"l.	c #504A45",
"m.	c #908136",
"n.	c #B19F29",
"o.	c #3F3B36",
"p.	c #34302C",
"q.	c #645C34",
"r.	c #CCB81B",
"s.	c #46413C",
"t.	c #4C4842",
"u.	c #4A4540",
"v.	c #423C38",
"w.	c #49443E",
"x.	c #45403A",
"y.	c #48433E",
"z.	c #46423C",
"A.	c #46403B",
"B.	c #91877D",
"C.	c #9A9085",
"D.	c #9C9287",
"E.	c #A0958B",
"F.	c #9E9489",
"G.	c #9E9388",
"H.	c #968C81",
"I.	c #7E766C",
"J.	c #787066",
"K.	c #7E756C",
"L.	c #90867C",
"M.	c #B3A256",
"N.	c #AFA056",
"O.	c #706860",
"P.	c #6A625B",
"Q.	c #A59558",
"R.	c #BAA849",
"S.	c #797067",
"T.	c #7F766C",
"U.	c #7C7269",
"V.	c #847B70",
"W.	c #978D82",
"X.	c #80766E",
"Y.	c #877D74",
"Z.	c #8C8278",
"`.	c #887E74",
" +	c #949493",
".+	c #8B8B8A",
"++	c #878686",
"@+	c #848483",
"#+	c #A89A4A",
"$+	c #958947",
"%+	c #595856",
"&+	c #635C54",
"*+	c #BFAD4D",
"=+	c #E5CF07",
"-+	c #8D866E",
";+	c #9C9C9C",
">+	c #9D9C9C",
",+	c #9B9B9A",
"'+	c #978D5C",
")+	c #92873F",
"!+	c #363534",
"~+	c #5A534A",
"{+	c #D9C429",
"]+	c #C9B95A",
"^+	c #A0A0A0",
"/+	c #6B6B69",
"(+	c #D3BF23",
"_+	c #BEAB23",
":+	c #47432B",
"<+	c #B19E33",
"[+	c #D7C342",
"}+	c #8F8D85",
"|+	c #9F9F9F",
"1+	c #7F7B69",
"2+	c #C3B242",
"3+	c #DBC50F",
"4+	c #E3CD03",
"5+	c #D6C118",
"6+	c #B8A64B",
"7+	c #7E7E78",
"8+	c #404040",
"9+	c #2C2B2A",
"0+	c #4F4943",
"a+	c #80776E",
"b+	c #545454",
"c+	c #282827",
"d+	c #49433E",
"e+	c #827A70",
"f+	c #2C2C2B",
"g+	c #4C4741",
"h+	c #786F66",
"i+	c #3A3A3A",
"j+	c #2F2E2E",
"k+	c #7A7168",
"l+	c #797878",
"m+	c #3C3C3C",
"n+	c #282826",
"o+	c #7E756B",
"p+	c #262625",
"q+	c #524C45",
"r+	c #827970",
"s+	c #363636",
"t+	c #2B2A2A",
"u+	c #847A71",
"v+	c #818180",
"w+	c #272626",
"x+	c #5A544D",
"y+	c #8A8177",
"z+	c #464646",
"A+	c #58534C",
"B+	c #7F766D",
"C+	c #616161",
"D+	c #A8A8A8",
"E+	c #292828",
"F+	c #837A70",
"G+	c #818080",
"H+	c #A1A1A1",
"I+	c #3E3E3E",
"J+	c #2A2A29",
"K+	c #56504A",
"L+	c #877E74",
"M+	c #6F6E6E",
"  . + @ # $ % & * = - ; - > $ , ' ) ! ~ ! > { + ] ^ - / / & ( % ",
"( _ : / < [ { ) ; { } } | $ ! 1 % [ 2 3 4 2 < ! ) 5 1 [ { ; < ^ ",
"6 - 7 / 4 8 & 1 9 ^ % < . 0 4 a b $ / c % % d e e 5 % < : _ > f ",
") < a > ( } 9 - - [   4 b : 4 7 @ _ ( : < 4 ; g # b < 2 h [ 9 f ",
"% 7 > % i 1 < ; 9 - a [ - / 2 a , ( ' < < a / ( 3 [ * ( j k l e ",
") / d 8 ( 2 # & ^ ( > [ > c m n | 2 4 [ o $ ( [ 1 & $ | & { 9 p ",
": % 7 7 [ 7 q % % - _ > 4 3 ! c ; r 8 c a : 3 2 . a l 3 ^ 9 * p ",
"3 $ ! < ) / [ } - ) / } ' 7 ] } [     ] / a ) 2 d p s 0 ; = = 9 ",
"] m b   _ 3 % % : - [ 2 ! % _ t h , u 2 ( $ ! 8 / - v ; [ 5 ( < ",
", a @ 3 ' : ( 3 , % ! 7 ( 3 w x a y $ < @ ) > 4 1 9 0 7 [ b > % ",
"( | @ c + $ : 2 @ # ( ] _ ~ z A B C D E c ' y , [ 2 # [ 7 7 1 _ ",
". o F i ] : : 4   c G c 4 H I J K L M N O y a | b ' 8 4 < $ < + ",
"y u u P Q P ~ w R y S F T U N V W F X N Y S y o ! Z y S h Z Z w ",
"`  . ... .+.` @.#.$. .%.&.N *.=.-.$.;.N >.,.'.).!.,.%.-.~.$.{.~.",
"].^./.(._._.:.<.<.[.}.|.1.N 2.3._.4.5.N 6.7.8.9.0.a.:.a.[.[././.",
"b.c.d.e.f.g.h.i.j.k.l.m.N N n.o.p.q.N N r.s.t.u.v.w.x.y.w.y.z.A.",
"B.C.D.E.F.G.H.I.J.K.L.M.N N N.O.P.Q.N N R.S.T.U.V.W.S.X.T.Y.Z.`.",
"! > ^  +^ 6 .+* 6 ++@+#+N N $+%+&+*+N =+-+; r ; [ ; q ; ;+>+s ,+",
"} 6 ^ 0 > q ) r [ % ] '+N N )+!+~+{+N ]+^ ^+- 0 } / l r ;+r ; = ",
") < > 3 7 4 ) [ : a y /+(+N _+:+<+N [+}+/ > : } # 4 q |+* ^ 1 ' ",
"+ < ! 4 _ _ < > < _ @ G 1+2+3+4+5+6+7+/ - & ( . < [ 2 # _ 2 < 4 ",
"i ) q / ) > ] [ 7 o w ,   Z 8+9+0+a+b = 5 : 3 a ^+& : < 7 ' d b ",
"! _ - _ [ / . # i ~ i | y b+~.c+d+e+} { ) 4 r < { - 8 > } ) } 1 ",
"8 > - q % ) % # $ | P ' | y #.f+g+h+] l ;+} r [ { 8 2 [ { 9 & } ",
"# % % b / 8 2 [   | ' % | W i+j+d.k+l+5 6 b 2 : b ) ( 7 % - b % ",
"b 8 2 < a ' i # ! ) @ 4 | P m+n+k.o+< g 9   ' # t b # . > { d 9 ",
"- % 8 2 $ 4 4 4 ( 3 7 o 4 F !.p+q+r+% } & 3 - $ b ) 6 ; % l p r ",
"l [ > < # ( _ b / ( # 8 ! P s+t+e.u+v+2 ( > d ! = Z & 1 & ^ 0 l ",
"# < b 7 q < 7 1 > [ i 7 7 y #.w+x+y+# % $ < $ z+[ ~ & 6 ^ 0 6 l ",
") q > # } 8 d } d - [ 4 . m i+c+A+B+) 4 ! C+c j 3 + > D+& 9 } 6 ",
"9 } 0 1 ( 7 % < } [ } > . h i+E+g.F+G+H+c . 8 Z 7 2 6 p & b } l ",
"a b 8 [ : _ > 1 % b 7 : b | I+J+K+L+M+{ < a / 4 l 7 } r & & } g "};
