/* XPM */
static char * 2_xpm[] = {
"32 32 249 2",
"  	c #717171",
". 	c #707070",
"+ 	c #6F6F6F",
"@ 	c #6E6E6E",
"# 	c #818181",
"$ 	c #777777",
"% 	c #868686",
"& 	c #8E8E8E",
"* 	c #979797",
"= 	c #959595",
"- 	c #8C8C8C",
"; 	c #909090",
"> 	c #888888",
", 	c #666666",
"' 	c #747474",
") 	c #858585",
"! 	c #767676",
"~ 	c #676767",
"{ 	c #919191",
"] 	c #727272",
"^ 	c #929292",
"/ 	c #878787",
"( 	c #7D7D7D",
"_ 	c #7F7F7F",
": 	c #787878",
"< 	c #828282",
"[ 	c #848484",
"} 	c #8A8A8A",
"| 	c #6C6C6C",
"1 	c #8D8D8D",
"2 	c #7E7E7E",
"3 	c #7B7B7B",
"4 	c #7A7A7A",
"5 	c #9A9A9A",
"6 	c #949494",
"7 	c #7C7C7C",
"8 	c #838383",
"9 	c #8F8F8F",
"0 	c #939393",
"a 	c #737373",
"b 	c #808080",
"c 	c #757575",
"d 	c #8B8B8B",
"e 	c #A2A2A2",
"f 	c #9E9E9E",
"g 	c #999999",
"h 	c #6A6A6A",
"i 	c #797979",
"j 	c #696969",
"k 	c #9B9B9B",
"l 	c #969696",
"m 	c #686868",
"n 	c #636363",
"o 	c #6D6D6D",
"p 	c #9D9D9D",
"q 	c #898989",
"r 	c #989898",
"s 	c #A5A5A5",
"t 	c #6B6B6B",
"u 	c #595959",
"v 	c #A3A3A3",
"w 	c #5D5D5D",
"x 	c #505050",
"y 	c #5E5E5E",
"z 	c #837D60",
"A 	c #B2A136",
"B 	c #D5C131",
"C 	c #E0CA15",
"D 	c #E1CB1C",
"E 	c #D4C03F",
"F 	c #A59A6B",
"G 	c #646464",
"H 	c #5C5C5C",
"I 	c #888475",
"J 	c #C1AF34",
"K 	c #958947",
"L 	c #7A755D",
"M 	c #777367",
"N 	c #C7B540",
"O 	c #E6CF00",
"P 	c #E5CE06",
"Q 	c #989067",
"R 	c #606060",
"S 	c #5A5A5A",
"T 	c #525252",
"U 	c #565656",
"V 	c #535353",
"W 	c #585858",
"X 	c #9B9054",
"Y 	c #B7A840",
"Z 	c #626262",
"` 	c #2A2A2A",
" .	c #2C2C2C",
"..	c #2D2D2D",
"+.	c #2F2F2F",
"@.	c #313131",
"#.	c #373737",
"$.	c #323232",
"%.	c #2B2B2B",
"&.	c #2E2E2E",
"*.	c #282828",
"=.	c #252525",
"-.	c #303030",
";.	c #AD9D22",
">.	c #AD9D26",
",.	c #292929",
"'.	c #383838",
").	c #353535",
"!.	c #343434",
"~.	c #333333",
"{.	c #1C1C1B",
"].	c #1E1D1D",
"^.	c #1F1F1E",
"/.	c #1D1D1C",
"(.	c #1F1E1E",
"_.	c #1C1B1A",
":.	c #212020",
"<.	c #20201F",
"[.	c #201F1F",
"}.	c #1E1E1E",
"|.	c #222120",
"1.	c #201F1E",
"2.	c #1B1A1A",
"3.	c #655D1B",
"4.	c #E1CB02",
"5.	c #E5CE00",
"6.	c #685D1D",
"7.	c #1A1A1A",
"8.	c #222221",
"9.	c #1E1D1C",
"0.	c #1E1E1D",
"a.	c #4F4944",
"b.	c #5A544E",
"c.	c #544F49",
"d.	c #59534D",
"e.	c #59534C",
"f.	c #544E48",
"g.	c #504A44",
"h.	c #47423C",
"i.	c #423D38",
"j.	c #4E4842",
"k.	c #504A45",
"l.	c #4A4540",
"m.	c #423E39",
"n.	c #46413C",
"o.	c #7B6E30",
"p.	c #DBC509",
"q.	c #A6962B",
"r.	c #433E39",
"s.	c #4C4842",
"t.	c #423C38",
"u.	c #49443E",
"v.	c #45403A",
"w.	c #48433E",
"x.	c #46423C",
"y.	c #46403B",
"z.	c #91877D",
"A.	c #9A9085",
"B.	c #9C9287",
"C.	c #A0958B",
"D.	c #9E9489",
"E.	c #9E9388",
"F.	c #968C81",
"G.	c #7E766C",
"H.	c #787066",
"I.	c #7E756C",
"J.	c #90867C",
"K.	c #81786E",
"L.	c #756C64",
"M.	c #7A7268",
"N.	c #B2A254",
"O.	c #E4CD0B",
"P.	c #E4CE09",
"Q.	c #B1A053",
"R.	c #797067",
"S.	c #776E66",
"T.	c #7F766C",
"U.	c #7C7269",
"V.	c #847B70",
"W.	c #978D82",
"X.	c #80766E",
"Y.	c #877D74",
"Z.	c #8C8278",
"`.	c #887E74",
" +	c #949493",
".+	c #8B8B8A",
"++	c #878686",
"@+	c #848483",
"#+	c #60605F",
"$+	c #5D5A4F",
"%+	c #C4B33E",
"&+	c #E2CC0C",
"*+	c #A39460",
"=+	c #9C9C9C",
"-+	c #9D9C9C",
";+	c #9B9B9A",
">+	c #857F62",
",+	c #D6C227",
"'+	c #E2CB05",
")+	c #8E8040",
"!+	c #A0A0A0",
"~+	c #C0AF44",
"{+	c #E2CB06",
"]+	c #807326",
"^+	c #7A7168",
"/+	c #9F9F9F",
"(+	c #D2BE2A",
"_+	c #A79E76",
":+	c #404040",
"<+	c #2C2B2A",
"[+	c #4F4943",
"}+	c #80776E",
"|+	c #545454",
"1+	c #282827",
"2+	c #49433E",
"3+	c #827A70",
"4+	c #2C2C2B",
"5+	c #4C4741",
"6+	c #786F66",
"7+	c #3A3A3A",
"8+	c #2F2E2E",
"9+	c #797878",
"0+	c #3C3C3C",
"a+	c #282826",
"b+	c #7E756B",
"c+	c #262625",
"d+	c #524C45",
"e+	c #827970",
"f+	c #363636",
"g+	c #2B2A2A",
"h+	c #847A71",
"i+	c #818180",
"j+	c #272626",
"k+	c #5A544D",
"l+	c #8A8177",
"m+	c #464646",
"n+	c #58534C",
"o+	c #7F766D",
"p+	c #616161",
"q+	c #A8A8A8",
"r+	c #292828",
"s+	c #837A70",
"t+	c #818080",
"u+	c #A1A1A1",
"v+	c #3E3E3E",
"w+	c #2A2A29",
"x+	c #56504A",
"y+	c #877E74",
"z+	c #6F6E6E",
"  . + @ # $ % & * = - ; - > $ , ' ) ! ~ ! > { + ] ^ - / / & ( % ",
"( _ : / < [ { ) ; { } } | $ ! 1 % [ 2 3 4 2 < ! ) 5 1 [ { ; < ^ ",
"6 - 7 / 4 8 & 1 9 ^ % < . 0 4 a b $ / c % % d e e 5 % < : _ > f ",
") < a > ( } 9 - - [   4 b : 4 7 @ _ ( : < 4 ; g # b < 2 h [ 9 f ",
"% 7 > % i 1 < ; 9 - a [ - / 2 a , ( ' < < a / ( 3 [ * ( j k l e ",
") / d 8 ( 2 # & ^ ( > [ > c m n | 2 4 [ o $ ( [ 1 & $ | & { 9 p ",
": % 7 7 [ 7 q % % - _ > 4 3 ! c ; r 8 c a : 3 2 . a l 3 ^ 9 * p ",
"3 $ ! < ) / [ } - ) / } ' 7 ] } [     ] / a ) 2 d p s 0 ; = = 9 ",
"] m b   _ 3 % % : - [ 2 ! % _ t h , u 2 ( $ ! 8 / - v ; [ 5 ( < ",
", a @ 3 ' : ( 3 , % ! 7 ( 3 w x a y $ < @ ) > 4 1 9 0 7 [ b > % ",
"( | @ c + $ : 2 @ # ( ] _ z A B C D E F c ' y , [ 2 # [ 7 7 1 _ ",
". o G i ] : : 4   c H c I J K L M N O P Q y a | b ' 8 4 < $ < + ",
"y u u R S R ~ w T y U G H V y S W X O O Y U y o ! Z y U h Z Z w ",
"`  . ... .+.` @.#.$. .%.&.*.=.-.&.;.O O >.-.,.'.).-.%.&.!.$.~.!.",
"{.].^./.(.(._.:.:.<.[.}.|.1.1.2.3.4.O 5.6.7.}.8.9.0._.0.<.<.^.^.",
"a.b.c.d.e.f.g.h.i.j.k.l.h.m.n.o.p.O O q.r.n.s.l.t.u.v.w.u.w.x.y.",
"z.A.B.C.D.E.F.G.H.I.J.K.L.M.N.O.O P.Q.R.S.R.T.U.V.W.R.X.T.Y.Z.`.",
"! > ^  +^ 6 .+* 6 ++@+#+$+%+O O &+*+b 9 ! ; r ; [ ; q ; =+-+s ;+",
"} 6 ^ 0 > q ) r [ % ] >+,+O O '+)+R.$ - ^ !+- 0 } / l r =+r ; = ",
") < > 3 7 4 ) [ : a y ~+O O {+]+f.^+} > / > : } # 4 q /+* ^ 1 ' ",
"+ < ! 4 _ _ < > < _ @ (+O O O O O O O _+- & ( . < [ 2 # _ 2 < 4 ",
"i ) q / ) > ] [ 7 o w ,   Z :+<+[+}+b = 5 : 3 a !+& : < 7 ' d b ",
"! _ - _ [ / . # i ~ i | y |+!.1+2+3+} { ) 4 r < { - 8 > } ) } 1 ",
"8 > - q % ) % # $ | R ' | y #.4+5+6+] l =+} r [ { 8 2 [ { 9 & } ",
"# % % b / 8 2 [   | ' % | W 7+8+c.^+9+5 6 b 2 : b ) ( 7 % - b % ",
"b 8 2 < a ' i # ! ) @ 4 | R 0+a+j.b+< g 9   ' # t b # . > { d 9 ",
"- % 8 2 $ 4 4 4 ( 3 7 o 4 G ).c+d+e+% } & 3 - $ b ) 6 ; % l p r ",
"l [ > < # ( _ b / ( # 8 ! R f+g+d.h+i+2 ( > d ! = Z & 1 & ^ 0 l ",
"# < b 7 q < 7 1 > [ i 7 7 y #.j+k+l+# % $ < $ m+[ ~ & 6 ^ 0 6 l ",
") q > # } 8 d } d - [ 4 . m 7+1+n+o+) 4 ! p+c j 3 + > q+& 9 } 6 ",
"9 } 0 1 ( 7 % < } [ } > . h 7+r+f.s+t+u+c . 8 Z 7 2 6 p & b } l ",
"a b 8 [ : _ > 1 % b 7 : b | v+w+x+y+z+{ < a / 4 l 7 } r & & } g "};
