/* XPM */
static char * 5_xpm[] = {
"32 32 251 2",
"  	c #717171",
". 	c #707070",
"+ 	c #6F6F6F",
"@ 	c #6E6E6E",
"# 	c #818181",
"$ 	c #777777",
"% 	c #868686",
"& 	c #8E8E8E",
"* 	c #979797",
"= 	c #959595",
"- 	c #8C8C8C",
"; 	c #909090",
"> 	c #888888",
", 	c #666666",
"' 	c #747474",
") 	c #858585",
"! 	c #767676",
"~ 	c #676767",
"{ 	c #919191",
"] 	c #727272",
"^ 	c #929292",
"/ 	c #878787",
"( 	c #7D7D7D",
"_ 	c #7F7F7F",
": 	c #787878",
"< 	c #828282",
"[ 	c #848484",
"} 	c #8A8A8A",
"| 	c #6C6C6C",
"1 	c #8D8D8D",
"2 	c #7E7E7E",
"3 	c #7B7B7B",
"4 	c #7A7A7A",
"5 	c #9A9A9A",
"6 	c #949494",
"7 	c #7C7C7C",
"8 	c #838383",
"9 	c #8F8F8F",
"0 	c #939393",
"a 	c #737373",
"b 	c #808080",
"c 	c #757575",
"d 	c #8B8B8B",
"e 	c #A2A2A2",
"f 	c #9E9E9E",
"g 	c #999999",
"h 	c #6A6A6A",
"i 	c #797979",
"j 	c #696969",
"k 	c #9B9B9B",
"l 	c #969696",
"m 	c #686868",
"n 	c #636363",
"o 	c #6D6D6D",
"p 	c #9D9D9D",
"q 	c #898989",
"r 	c #989898",
"s 	c #A5A5A5",
"t 	c #6B6B6B",
"u 	c #595959",
"v 	c #A3A3A3",
"w 	c #5D5D5D",
"x 	c #505050",
"y 	c #5E5E5E",
"z 	c #AFA14D",
"A 	c #E6CF00",
"B 	c #B5A657",
"C 	c #646464",
"D 	c #5C5C5C",
"E 	c #C3B033",
"F 	c #AD9F4A",
"G 	c #606060",
"H 	c #5A5A5A",
"I 	c #525252",
"J 	c #565656",
"K 	c #D8C31E",
"L 	c #9D904A",
"M 	c #585858",
"N 	c #626262",
"O 	c #2A2A2A",
"P 	c #2C2C2C",
"Q 	c #2D2D2D",
"R 	c #2F2F2F",
"S 	c #313131",
"T 	c #373737",
"U 	c #323232",
"V 	c #2B2B2B",
"W 	c #4A462D",
"X 	c #7D722A",
"Y 	c #2E2E2E",
"Z 	c #383838",
"` 	c #303030",
" .	c #292929",
"..	c #353535",
"+.	c #343434",
"@.	c #333333",
"#.	c #1C1C1B",
"$.	c #1E1D1D",
"%.	c #1F1F1E",
"&.	c #1D1D1C",
"*.	c #1F1E1E",
"=.	c #1C1B1A",
"-.	c #212020",
";.	c #20201F",
">.	c #201F1F",
",.	c #1E1E1E",
"'.	c #7E711B",
").	c #E2CB01",
"!.	c #E4CD01",
"~.	c #DAC305",
"{.	c #B7A40B",
"].	c #4F471D",
"^.	c #202020",
"/.	c #1A1A1A",
"(.	c #222221",
"_.	c #1E1D1C",
":.	c #1E1E1D",
"<.	c #4F4944",
"[.	c #5A544E",
"}.	c #544F49",
"|.	c #59534D",
"1.	c #59534C",
"2.	c #544E48",
"3.	c #504A44",
"4.	c #47423C",
"5.	c #423D38",
"6.	c #4E4842",
"7.	c #504A45",
"8.	c #4A4540",
"9.	c #9B8B2F",
"0.	c #A99929",
"a.	c #746837",
"b.	c #534C35",
"c.	c #9D8E21",
"d.	c #CEB81A",
"e.	c #433E39",
"f.	c #46413C",
"g.	c #4C4842",
"h.	c #423C38",
"i.	c #49443E",
"j.	c #45403A",
"k.	c #48433E",
"l.	c #46423C",
"m.	c #46403B",
"n.	c #91877D",
"o.	c #9A9085",
"p.	c #9C9287",
"q.	c #A0958B",
"r.	c #9E9489",
"s.	c #9E9388",
"t.	c #968C81",
"u.	c #7E766C",
"v.	c #787066",
"w.	c #7E756C",
"x.	c #90867C",
"y.	c #81786E",
"z.	c #756C64",
"A.	c #7A7268",
"B.	c #706860",
"C.	c #6A625B",
"D.	c #D5C030",
"E.	c #817563",
"F.	c #797067",
"G.	c #7F766C",
"H.	c #7C7269",
"I.	c #847B70",
"J.	c #978D82",
"K.	c #80766E",
"L.	c #877D74",
"M.	c #8C8278",
"N.	c #887E74",
"O.	c #949493",
"P.	c #8B8B8A",
"Q.	c #878686",
"R.	c #848483",
"S.	c #60605F",
"T.	c #515151",
"U.	c #656565",
"V.	c #545454",
"W.	c #595856",
"X.	c #635C54",
"Y.	c #D3BE37",
"Z.	c #E5CE0E",
"`.	c #7A7A74",
" +	c #9C9C9C",
".+	c #9D9C9C",
"++	c #9B9B9A",
"@+	c #616161",
"#+	c #4C4C4C",
"$+	c #363534",
"%+	c #6A6247",
"&+	c #E2CB15",
"*+	c #CFBD51",
"=+	c #A0A0A0",
"-+	c #BBAC47",
";+	c #B5A337",
">+	c #898158",
",+	c #514D3B",
"'+	c #696128",
")+	c #CDB923",
"!+	c #DBC737",
"~+	c #959181",
"{+	c #9F9F9F",
"]+	c #7C7555",
"^+	c #BEAE49",
"/+	c #D8C32B",
"(+	c #E3CC05",
"_+	c #E1CB04",
":+	c #D3BE1B",
"<+	c #B8A64B",
"[+	c #817F78",
"}+	c #404040",
"|+	c #2C2B2A",
"1+	c #4F4943",
"2+	c #80776E",
"3+	c #282827",
"4+	c #49433E",
"5+	c #827A70",
"6+	c #2C2C2B",
"7+	c #4C4741",
"8+	c #786F66",
"9+	c #3A3A3A",
"0+	c #2F2E2E",
"a+	c #7A7168",
"b+	c #797878",
"c+	c #3C3C3C",
"d+	c #282826",
"e+	c #7E756B",
"f+	c #262625",
"g+	c #524C45",
"h+	c #827970",
"i+	c #363636",
"j+	c #2B2A2A",
"k+	c #847A71",
"l+	c #818180",
"m+	c #272626",
"n+	c #5A544D",
"o+	c #8A8177",
"p+	c #464646",
"q+	c #58534C",
"r+	c #7F766D",
"s+	c #A8A8A8",
"t+	c #292828",
"u+	c #837A70",
"v+	c #818080",
"w+	c #A1A1A1",
"x+	c #3E3E3E",
"y+	c #2A2A29",
"z+	c #56504A",
"A+	c #877E74",
"B+	c #6F6E6E",
"  . + @ # $ % & * = - ; - > $ , ' ) ! ~ ! > { + ] ^ - / / & ( % ",
"( _ : / < [ { ) ; { } } | $ ! 1 % [ 2 3 4 2 < ! ) 5 1 [ { ; < ^ ",
"6 - 7 / 4 8 & 1 9 ^ % < . 0 4 a b $ / c % % d e e 5 % < : _ > f ",
") < a > ( } 9 - - [   4 b : 4 7 @ _ ( : < 4 ; g # b < 2 h [ 9 f ",
"% 7 > % i 1 < ; 9 - a [ - / 2 a , ( ' < < a / ( 3 [ * ( j k l e ",
") / d 8 ( 2 # & ^ ( > [ > c m n | 2 4 [ o $ ( [ 1 & $ | & { 9 p ",
": % 7 7 [ 7 q % % - _ > 4 3 ! c ; r 8 c a : 3 2 . a l 3 ^ 9 * p ",
"3 $ ! < ) / [ } - ) / } ' 7 ] } [     ] / a ) 2 d p s 0 ; = = 9 ",
"] m b   _ 3 % % : - [ 2 ! % _ t h , u 2 ( $ ! 8 / - v ; [ 5 ( < ",
", a @ 3 ' : ( 3 , % ! 7 ( 3 w x a y $ < @ ) > 4 1 9 0 7 [ b > % ",
"( | @ c + $ : 2 @ # ( ] _ z A A A A A A B ' y , [ 2 # [ 7 7 1 _ ",
". o C i ] : : 4   c D c 4 E A F h | ' t ' y a | b ' 8 4 < $ < + ",
"y u u G H G ~ w I y J C D K A L M C M y y J y o ! N y J h N N w ",
"O P P Q P R O S T U P V W A A X Y U Y S Z `  .Z ..` V Y +.U @.+.",
"#.$.%.&.*.*.=.-.-.;.>.,.'.A A ).!.~.{.].^./.,.(._.:.=.:.;.;.%.%.",
"<.[.}.|.1.2.3.4.5.6.7.8.9.0.a.b.c.A A d.e.f.g.8.h.i.j.k.i.k.l.m.",
"n.o.p.q.r.s.t.u.v.w.x.y.z.A.w.B.C.D.A A E.F.G.H.I.J.F.K.G.L.M.N.",
"! > ^ O.^ 6 P.* 6 Q.R.S.T.U.V.W.X.Y.A Z.`.; r ; [ ; q ;  +.+s ++",
"} 6 ^ 0 > q ) r [ % ] h @+@ #+$+%+&+A *+^ =+- 0 } / l r  +r ; = ",
") < > 3 7 4 ) [ : a y -+;+>+,+'+)+A !+~+/ > : } # 4 q {+* ^ 1 ' ",
"+ < ! 4 _ _ < > < _ @ ]+^+/+(+_+:+<+[+/ - & ( . < [ 2 # _ 2 < 4 ",
"i ) q / ) > ] [ 7 o w ,   N }+|+1+2+b = 5 : 3 a =+& : < 7 ' d b ",
"! _ - _ [ / . # i ~ i | y V.+.3+4+5+} { ) 4 r < { - 8 > } ) } 1 ",
"8 > - q % ) % # $ | G ' | y T 6+7+8+] l  +} r [ { 8 2 [ { 9 & } ",
"# % % b / 8 2 [   | ' % | M 9+0+}.a+b+5 6 b 2 : b ) ( 7 % - b % ",
"b 8 2 < a ' i # ! ) @ 4 | G c+d+6.e+< g 9   ' # t b # . > { d 9 ",
"- % 8 2 $ 4 4 4 ( 3 7 o 4 C ..f+g+h+% } & 3 - $ b ) 6 ; % l p r ",
"l [ > < # ( _ b / ( # 8 ! G i+j+|.k+l+2 ( > d ! = N & 1 & ^ 0 l ",
"# < b 7 q < 7 1 > [ i 7 7 y T m+n+o+# % $ < $ p+[ ~ & 6 ^ 0 6 l ",
") q > # } 8 d } d - [ 4 . m 9+3+q+r+) 4 ! @+c j 3 + > s+& 9 } 6 ",
"9 } 0 1 ( 7 % < } [ } > . h 9+t+2.u+v+w+c . 8 N 7 2 6 p & b } l ",
"a b 8 [ : _ > 1 % b 7 : b | x+y+z+A+B+{ < a / 4 l 7 } r & & } g "};
