/* XPM */
static char * 9_xpm[] = {
"32 32 261 2",
"  	c #717171",
". 	c #707070",
"+ 	c #6F6F6F",
"@ 	c #6E6E6E",
"# 	c #818181",
"$ 	c #777777",
"% 	c #868686",
"& 	c #8E8E8E",
"* 	c #979797",
"= 	c #959595",
"- 	c #8C8C8C",
"; 	c #909090",
"> 	c #888888",
", 	c #666666",
"' 	c #747474",
") 	c #858585",
"! 	c #767676",
"~ 	c #676767",
"{ 	c #919191",
"] 	c #727272",
"^ 	c #929292",
"/ 	c #878787",
"( 	c #7D7D7D",
"_ 	c #7F7F7F",
": 	c #787878",
"< 	c #828282",
"[ 	c #848484",
"} 	c #8A8A8A",
"| 	c #6C6C6C",
"1 	c #8D8D8D",
"2 	c #7E7E7E",
"3 	c #7B7B7B",
"4 	c #7A7A7A",
"5 	c #9A9A9A",
"6 	c #949494",
"7 	c #7C7C7C",
"8 	c #838383",
"9 	c #8F8F8F",
"0 	c #939393",
"a 	c #737373",
"b 	c #808080",
"c 	c #757575",
"d 	c #8B8B8B",
"e 	c #A2A2A2",
"f 	c #9E9E9E",
"g 	c #999999",
"h 	c #6A6A6A",
"i 	c #797979",
"j 	c #696969",
"k 	c #9B9B9B",
"l 	c #969696",
"m 	c #686868",
"n 	c #636363",
"o 	c #6D6D6D",
"p 	c #9D9D9D",
"q 	c #898989",
"r 	c #989898",
"s 	c #A5A5A5",
"t 	c #6B6B6B",
"u 	c #595959",
"v 	c #A3A3A3",
"w 	c #5D5D5D",
"x 	c #505050",
"y 	c #5E5E5E",
"z 	c #6B6B66",
"A 	c #AB9D39",
"B 	c #D7C32D",
"C 	c #E3CE0C",
"D 	c #E2CC19",
"E 	c #D0BC45",
"F 	c #999371",
"G 	c #646464",
"H 	c #5C5C5C",
"I 	c #7E7E78",
"J 	c #CEBA2A",
"K 	c #E6CF00",
"L 	c #CDBA33",
"M 	c #7D7965",
"N 	c #AE9F53",
"O 	c #E2CC14",
"P 	c #8C866C",
"Q 	c #606060",
"R 	c #5A5A5A",
"S 	c #525252",
"T 	c #565656",
"U 	c #AE9E44",
"V 	c #7B7553",
"W 	c #585858",
"X 	c #706E62",
"Y 	c #BCAB3E",
"Z 	c #626262",
"` 	c #2A2A2A",
" .	c #2C2C2C",
"..	c #2D2D2D",
"+.	c #2F2F2F",
"@.	c #313131",
"#.	c #373737",
"$.	c #323232",
"%.	c #2B2B2B",
"&.	c #CEB913",
"*.	c #DDC705",
"=.	c #303030",
"-.	c #2E2E2E",
";.	c #5A5430",
">.	c #CCB819",
",.	c #292929",
"'.	c #383838",
").	c #353535",
"!.	c #343434",
"~.	c #333333",
"{.	c #1C1C1B",
"].	c #1E1D1D",
"^.	c #1F1F1E",
"/.	c #1D1D1C",
"(.	c #1F1E1E",
"_.	c #1C1B1A",
":.	c #212020",
"<.	c #20201F",
"[.	c #201F1F",
"}.	c #1E1E1E",
"|.	c #D2BD09",
"1.	c #DAC305",
"2.	c #1B1A1A",
"3.	c #8B7D18",
"4.	c #C9B50C",
"5.	c #1A1A1A",
"6.	c #222221",
"7.	c #1E1D1C",
"8.	c #1E1E1D",
"9.	c #4F4944",
"0.	c #5A544E",
"a.	c #544F49",
"b.	c #59534D",
"c.	c #59534C",
"d.	c #544E48",
"e.	c #504A44",
"f.	c #47423C",
"g.	c #423D38",
"h.	c #4E4842",
"i.	c #504A45",
"j.	c #4A4540",
"k.	c #B2A028",
"l.	c #877A2E",
"m.	c #685E29",
"n.	c #D6C013",
"o.	c #BEA922",
"p.	c #46413C",
"q.	c #4C4842",
"r.	c #423C38",
"s.	c #49443E",
"t.	c #45403A",
"u.	c #48433E",
"v.	c #46423C",
"w.	c #46403B",
"x.	c #91877D",
"y.	c #9A9085",
"z.	c #9C9287",
"A.	c #A0958B",
"B.	c #9E9489",
"C.	c #9E9388",
"D.	c #968C81",
"E.	c #7E766C",
"F.	c #787066",
"G.	c #7E756C",
"H.	c #90867C",
"I.	c #81786E",
"J.	c #787063",
"K.	c #BFAC48",
"L.	c #DFC821",
"M.	c #E4CD09",
"N.	c #DCC61E",
"O.	c #D7C22C",
"P.	c #AB9A52",
"Q.	c #797067",
"R.	c #7F766C",
"S.	c #7C7269",
"T.	c #847B70",
"U.	c #978D82",
"V.	c #80766E",
"W.	c #877D74",
"X.	c #8C8278",
"Y.	c #887E74",
"Z.	c #949493",
"`.	c #8B8B8A",
" +	c #878686",
".+	c #848483",
"++	c #60605F",
"@+	c #515151",
"#+	c #656565",
"$+	c #545454",
"%+	c #595856",
"&+	c #635C54",
"*+	c #C4B049",
"=+	c #E1CB27",
"-+	c #7D7B74",
";+	c #9C9C9C",
">+	c #9D9C9C",
",+	c #9B9B9A",
"'+	c #616161",
")+	c #4C4C4C",
"!+	c #363534",
"~+	c #6B6147",
"{+	c #E0C91B",
"]+	c #B5A971",
"^+	c #A0A0A0",
"/+	c #8D855F",
"(+	c #C4B12F",
"_+	c #888059",
":+	c #4F4B3B",
"<+	c #7A6F26",
"[+	c #D3BE1E",
"}+	c #E6CF02",
"|+	c #BDAF66",
"1+	c #9F9F9F",
"2+	c #68655A",
"3+	c #B7A84F",
"4+	c #DBC527",
"5+	c #E3CD04",
"6+	c #DAC409",
"7+	c #C1AE26",
"8+	c #97895D",
"9+	c #404040",
"0+	c #2C2B2A",
"a+	c #4F4943",
"b+	c #80776E",
"c+	c #282827",
"d+	c #49433E",
"e+	c #827A70",
"f+	c #2C2C2B",
"g+	c #4C4741",
"h+	c #786F66",
"i+	c #3A3A3A",
"j+	c #2F2E2E",
"k+	c #7A7168",
"l+	c #797878",
"m+	c #3C3C3C",
"n+	c #282826",
"o+	c #7E756B",
"p+	c #262625",
"q+	c #524C45",
"r+	c #827970",
"s+	c #363636",
"t+	c #2B2A2A",
"u+	c #847A71",
"v+	c #818180",
"w+	c #272626",
"x+	c #5A544D",
"y+	c #8A8177",
"z+	c #464646",
"A+	c #58534C",
"B+	c #7F766D",
"C+	c #A8A8A8",
"D+	c #292828",
"E+	c #837A70",
"F+	c #818080",
"G+	c #A1A1A1",
"H+	c #3E3E3E",
"I+	c #2A2A29",
"J+	c #56504A",
"K+	c #877E74",
"L+	c #6F6E6E",
"  . + @ # $ % & * = - ; - > $ , ' ) ! ~ ! > { + ] ^ - / / & ( % ",
"( _ : / < [ { ) ; { } } | $ ! 1 % [ 2 3 4 2 < ! ) 5 1 [ { ; < ^ ",
"6 - 7 / 4 8 & 1 9 ^ % < . 0 4 a b $ / c % % d e e 5 % < : _ > f ",
") < a > ( } 9 - - [   4 b : 4 7 @ _ ( : < 4 ; g # b < 2 h [ 9 f ",
"% 7 > % i 1 < ; 9 - a [ - / 2 a , ( ' < < a / ( 3 [ * ( j k l e ",
") / d 8 ( 2 # & ^ ( > [ > c m n | 2 4 [ o $ ( [ 1 & $ | & { 9 p ",
": % 7 7 [ 7 q % % - _ > 4 3 ! c ; r 8 c a : 3 2 . a l 3 ^ 9 * p ",
"3 $ ! < ) / [ } - ) / } ' 7 ] } [     ] / a ) 2 d p s 0 ; = = 9 ",
"] m b   _ 3 % % : - [ 2 ! % _ t h , u 2 ( $ ! 8 / - v ; [ 5 ( < ",
", a @ 3 ' : ( 3 , % ! 7 ( 3 w x a y $ < @ ) > 4 1 9 0 7 [ b > % ",
"( | @ c + $ : 2 @ # ( ] _ z A B C D E F c ' y , [ 2 # [ 7 7 1 _ ",
". o G i ] : : 4   c H c I J K L M N K O P y a | b ' 8 4 < $ < + ",
"y u u Q R Q ~ w S y T G U K K V W X K K Y T y o ! Z y T h Z Z w ",
"`  . ... .+.` @.#.$. .%.&.K *.=.-.;.K K >.=.,.'.).=.%.-.!.$.~.!.",
"{.].^./.(.(._.:.:.<.[.}.|.K 1.2.(.3.K K 4.5.}.6.7.8._.8.<.<.^.^.",
"9.0.a.b.c.d.e.f.g.h.i.j.k.K K l.m.n.K K o.p.q.j.r.s.t.u.s.u.v.w.",
"x.y.z.A.B.C.D.E.F.G.H.I.J.K.L.M.N.O.K K P.Q.R.S.T.U.Q.V.R.W.X.Y.",
"! > ^ Z.^ 6 `.* 6  +.+++@+#+$+%+&+*+K =+-+; r ; [ ; q ; ;+>+s ,+",
"} 6 ^ 0 > q ) r [ % ] h '+@ )+!+~+{+K ]+^ ^+- 0 } / l r ;+r ; = ",
") < > 3 7 4 ) [ : a y /+(+_+:+<+[+}+|+> / > : } # 4 q 1+* ^ 1 ' ",
"+ < ! 4 _ _ < > < _ @ 2+3+4+5+6+7+8+4 / - & ( . < [ 2 # _ 2 < 4 ",
"i ) q / ) > ] [ 7 o w ,   Z 9+0+a+b+b = 5 : 3 a ^+& : < 7 ' d b ",
"! _ - _ [ / . # i ~ i | y $+!.c+d+e+} { ) 4 r < { - 8 > } ) } 1 ",
"8 > - q % ) % # $ | Q ' | y #.f+g+h+] l ;+} r [ { 8 2 [ { 9 & } ",
"# % % b / 8 2 [   | ' % | W i+j+a.k+l+5 6 b 2 : b ) ( 7 % - b % ",
"b 8 2 < a ' i # ! ) @ 4 | Q m+n+h.o+< g 9   ' # t b # . > { d 9 ",
"- % 8 2 $ 4 4 4 ( 3 7 o 4 G ).p+q+r+% } & 3 - $ b ) 6 ; % l p r ",
"l [ > < # ( _ b / ( # 8 ! Q s+t+b.u+v+2 ( > d ! = Z & 1 & ^ 0 l ",
"# < b 7 q < 7 1 > [ i 7 7 y #.w+x+y+# % $ < $ z+[ ~ & 6 ^ 0 6 l ",
") q > # } 8 d } d - [ 4 . m i+c+A+B+) 4 ! '+c j 3 + > C+& 9 } 6 ",
"9 } 0 1 ( 7 % < } [ } > . h i+D+d.E+F+G+c . 8 Z 7 2 6 p & b } l ",
"a b 8 [ : _ > 1 % b 7 : b | H+I+J+K+L+{ < a / 4 l 7 } r & & } g "};
