/* XPM */
static char * enemy7_xpm[] = {
"32 32 152 2",
"  	c #2A2825",
". 	c #2B2825",
"+ 	c #2B2925",
"@ 	c #2C2925",
"# 	c #2D2A24",
"$ 	c #4E3F36",
"% 	c #918073",
"& 	c #D2CCC0",
"* 	c #D3CDC1",
"= 	c #D0C9BB",
"- 	c #BEB5A6",
"; 	c #D2CBBD",
"> 	c #D8D3C8",
", 	c #C6BCAF",
"' 	c #CFC7B8",
") 	c #D0C9BA",
"! 	c #D4CEC2",
"~ 	c #D1CABC",
"{ 	c #D5CFC4",
"] 	c #D5D0C5",
"^ 	c #0F0B0D",
"/ 	c #2B2924",
"( 	c #4F3F37",
"_ 	c #8E7E71",
": 	c #D3CEC4",
"< 	c #D4CFC3",
"[ 	c #D1CABD",
"} 	c #CABEB0",
"| 	c #DAD5CB",
"1 	c #D0C9BC",
"2 	c #CFC8B9",
"3 	c #D2CBBE",
"4 	c #282724",
"5 	c #292724",
"6 	c #504037",
"7 	c #89796C",
"8 	c #D2CDC3",
"9 	c #D7D2C7",
"0 	c #DDD9D2",
"a 	c #C9BEAE",
"b 	c #C9BDAE",
"c 	c #272624",
"d 	c #FFEAD1",
"e 	c #292825",
"f 	c #8A7A6C",
"g 	c #D0CABE",
"h 	c #D3CDC2",
"i 	c #D0C8BA",
"j 	c #292824",
"k 	c #2D2A25",
"l 	c #8B7A6C",
"m 	c #CFC8BC",
"n 	c #D3CDC0",
"o 	c #505B40",
"p 	c #D1CBBE",
"q 	c #D1CBBD",
"r 	c #2E3F3B",
"s 	c #6C734E",
"t 	c #D2CCBF",
"u 	c #2E2A24",
"v 	c #2F2B24",
"w 	c #DCD8D0",
"x 	c #CFC8BA",
"y 	c #D4CEC3",
"z 	c #D4CFC4",
"A 	c #302B23",
"B 	c #D9D4CA",
"C 	c #C4BBAC",
"D 	c #302B22",
"E 	c #CFC7B9",
"F 	c #312B23",
"G 	c #312B22",
"H 	c #D2CCC1",
"I 	c #453A31",
"J 	c #453B32",
"K 	c #463A32",
"L 	c #463A31",
"M 	c #89725D",
"N 	c #B5A8A1",
"O 	c #AD9E93",
"P 	c #AF9B8A",
"Q 	c #AD9458",
"R 	c #44362C",
"S 	c #DBD7D0",
"T 	c #B6AB9F",
"U 	c #CEC7B9",
"V 	c #231F19",
"W 	c #C7C0B4",
"X 	c #161514",
"Y 	c #121212",
"Z 	c #C3BAAB",
"` 	c #151413",
" .	c #171615",
"..	c #1F1D18",
"+.	c #D9D5CC",
"@.	c #1E1C18",
"#.	c #201D19",
"$.	c #252018",
"%.	c #D5CFC5",
"&.	c #D9D5CD",
"*.	c #221F19",
"=.	c #242019",
"-.	c #D3CEC2",
";.	c #D8D3CA",
">.	c #DAD7CF",
",.	c #DDDAD3",
"'.	c #DDDAD5",
").	c #342C23",
"!.	c #2B251C",
"~.	c #2A251C",
"{.	c #D6D0C6",
"].	c #DCD8D2",
"^.	c #DCD9D3",
"/.	c #2C271E",
"(.	c #342E26",
"_.	c #322C23",
":.	c #D7D2C9",
"<.	c #DDDBD5",
"[.	c #DDDAD4",
"}.	c #E0DFDB",
"|.	c #E1DFDB",
"1.	c #D9D4CC",
"2.	c #DBD8D1",
"3.	c #E1E0DC",
"4.	c #E1DFDC",
"5.	c #2E2920",
"6.	c #D3CCC0",
"7.	c #DAD6CE",
"8.	c #DCD9D2",
"9.	c #E0DEDA",
"0.	c #DCDAD5",
"a.	c #A38D7D",
"b.	c #473C35",
"c.	c #2F2A24",
"d.	c #28231A",
"e.	c #312A22",
"f.	c #262117",
"g.	c #DAD6CF",
"h.	c #DEDCD7",
"i.	c #E0DEDB",
"j.	c #DFDDD9",
"k.	c #DBD8D3",
"l.	c #A38B7B",
"m.	c #473D35",
"n.	c #262118",
"o.	c #CEC7B8",
"p.	c #D6D1C7",
"q.	c #E0DED9",
"r.	c #DFDDD8",
"s.	c #A48C7D",
"t.	c #2C2A25",
"u.	c #242018",
"  . . . + +   + +   + + + @ # $ % & * = - ; > , ' ) ! * ~ { ] * ",
"    + ^ ^ ^ ^ ^         ^ ^ / ( _ : < [ } | ^ ^ ^ ^ ^ 1 2 [ 3 ~ ",
"4 5 5 ^ ^ ^ ^ ^ 5       ^ ^ / 6 7 8 ] ~ 9 0 ^ ^ ^ ^ ^ a b ) = 3 ",
"c ^ ^ d d d d d ^ ^ e   + + ^ ^ f g h 1 ^ ^ d d d d d ^ ^ 3 i ~ ",
"4 ^ ^ d d d d d ^ ^ j e . k ^ ^ l m & ~ ^ ^ d d d d d ^ ^ n 2 = ",
"5 ^ ^ d d o o d ^ ^ . + ^ ^ ^ ^ ^ ^ ^ ^ ^ ^ d d d d d ^ ^ = p q ",
"e ^ ^ d d o o d ^ ^ + @ ^ ^ ^ ^ ^ ^ ^ ^ ^ ^ d d d d d ^ ^ 1 * { ",
"  ^ ^ d d d d d ^ ^ ^ ^ r r o o s s o o ^ ^ d o o d d ^ ^ i ! * ",
"+ ^ ^ d d d d d ^ ^ r r o o o o o o s s ^ ^ d d d d d ^ ^ i & ! ",
"@ ^ ^ d d d d d ^ ^ r r o o o o o o s s ^ ^ d d d d d ^ ^ ~ n t ",
"@ u v ^ ^ ^ ^ ^ o o o o r r ^ ^ ^ ^ ^ ^ ^ ^ ^ ^ ^ ^ ^ w x t y z ",
"k u A ^ ^ ^ ^ ^ o o o o r r ^ ^ ^ ^ ^ ^ ^ ^ ^ ^ ^ ^ ^ B C 3 h { ",
"u A D ^ ^ r r o r r ^ ^ ^ ^ ^ ^ ^ ^ ^ ^ ^ ^ ^ ^ ^ ^ ^ ^ ^ = t { ",
"v A D ^ ^ r r o r r ^ ^ ^ ^ ^ ^ ^ ^ ^ ^ ^ ^ ^ ^ ^ ^ ^ ^ ^ E [ { ",
"A F G G A ^ ^ ^ ^ ^ ^ ^ ^ ^ ^ ^ ^ ^ ^ ^ ^ ^ o s s s s o o ^ ^ H ",
"I J K L I ^ ^ ^ ^ ^ ^ ^ ^ ^ ^ ^ ^ ^ ^ ^ ^ ^ o s s s s o o ^ ^ M ",
"N O P ^ ^ ^ ^ ^ ^ ^ ^ ^ ^ ^ ^ ^ ^ ^ r r o o s o o Q Q s s ^ ^ R ",
"S T U ^ ^ ^ ^ ^ ^ ^ ^ ^ ^ ^ ^ ^ ^ ^ r r o o s o o Q Q s s ^ ^ V ",
"W ^ ^ ^ ^ o o o o o r r o o o o o o s s s s s Q Q Q Q s s ^ ^ X ",
"[ ^ ^ ^ ^ o o o o o r r o o o o o o s s s s s Q Q Q Q s s ^ ^ Y ",
"Z ^ ^ s s Q Q o s s s s s s s s s s r r s s s Q Q o o s s ^ ^ ` ",
"2 ^ ^ s s Q Q o s s s s s s s s s s r r s s s Q Q o o s s ^ ^  .",
"E ^ ^ o o s s s o o s s r r r r s s s s s s o o o o o r r ^ ^ ..",
"[ ] +.^ ^ ^ ^ ^ ^ ^ r r r r r r o o o o r r ^ ^ ^ ^ ^ ^ ^ @.#.$.",
"h %.&.^ ^ ^ ^ ^ ^ ^ r r r r r r o o o o r r ^ ^ ^ ^ ^ ^ ^ *.$.=.",
"-.;.>.,.'.^ ^ ^ ^ ^ ^ ^ ^ ^ ^ ^ ^ ^ ^ ^ ^ ^ ^ ^ ^ ^ ^ D ).!.~.*.",
"z {.&.].^.^ ^ ^ ^ ^ ^ ^ ^ ^ ^ ^ ^ ^ ^ ^ ^ ^ ^ ^ ^ ^ ^ A /.(._.V ",
"* :.&.&.>.<.[.^ ^ ^ }.|.^ ^ ^ ^ ^ ^ ^ ^ u v ^ ^ ^ v v A A D $.V ",
"t { 1.+.2.<.'.^ ^ ^ 3.4.^ ^ ^ ^ ^ ^ ^ ^ u u ^ ^ ^ u v A D 5.~.$.",
"3 6.&.7.8.<.<.8.[.9.4.}.}.}.0.a.b./ @ @ u u u v c.c.v A G d.e.f.",
"x 6.;.g.g.g.8.2.2.h.i.9.j.j.k.l.m.@ @ # # u u u v A A A D n.n.~.",
"o.3 ! p.+.1.1.&.&.[.j.}.q.r.k.s.m.k # # t.t.u u v A A D 5.u.u.*."};
