/* XPM */
static char * enemy9_xpm[] = {
"32 32 147 2",
"  	c #2A2825",
". 	c #2B2825",
"+ 	c #2B2925",
"@ 	c #2C2925",
"# 	c #2D2A24",
"$ 	c #4E3F36",
"% 	c #918073",
"& 	c #D2CCC0",
"* 	c #D3CDC1",
"= 	c #D0C9BB",
"- 	c #BEB5A6",
"; 	c #D2CBBD",
"> 	c #D8D3C8",
", 	c #C6BCAF",
"' 	c #CFC7B8",
") 	c #D0C9BA",
"! 	c #D4CEC2",
"~ 	c #D1CABC",
"{ 	c #D5CFC4",
"] 	c #D5D0C5",
"^ 	c #0F0B0D",
"/ 	c #2B2924",
"( 	c #4F3F37",
"_ 	c #8E7E71",
": 	c #D3CEC4",
"< 	c #D4CFC3",
"[ 	c #D1CABD",
"} 	c #CABEB0",
"| 	c #DAD5CB",
"1 	c #D0C9BC",
"2 	c #CFC8B9",
"3 	c #D2CBBE",
"4 	c #282724",
"5 	c #292724",
"6 	c #504037",
"7 	c #89796C",
"8 	c #D2CDC3",
"9 	c #D7D2C7",
"0 	c #DDD9D2",
"a 	c #C9BEAE",
"b 	c #C9BDAE",
"c 	c #272624",
"d 	c #292825",
"e 	c #8A7A6C",
"f 	c #D0CABE",
"g 	c #D3CDC2",
"h 	c #FFEAD1",
"i 	c #D0C8BA",
"j 	c #292824",
"k 	c #2E2A24",
"l 	c #514037",
"m 	c #8B7A6C",
"n 	c #CFC8BC",
"o 	c #D3CDC0",
"p 	c #505B40",
"q 	c #2D2A25",
"r 	c #857568",
"s 	c #CEC8BB",
"t 	c #D3CCC0",
"u 	c #D1CBBE",
"v 	c #D1CBBD",
"w 	c #897A6C",
"x 	c #CFC9BD",
"y 	c #D0CABC",
"z 	c #2E3F3B",
"A 	c #6C734E",
"B 	c #D2CCBF",
"C 	c #2F2B24",
"D 	c #D4CEC3",
"E 	c #D4CFC4",
"F 	c #302B23",
"G 	c #302B22",
"H 	c #DFDCD6",
"I 	c #CBC4B9",
"J 	c #E0DED8",
"K 	c #CFC7B9",
"L 	c #312B23",
"M 	c #312B22",
"N 	c #CFC8BB",
"O 	c #CEC7BA",
"P 	c #D2CCC1",
"Q 	c #453A31",
"R 	c #453B32",
"S 	c #463A32",
"T 	c #7D6857",
"U 	c #866F5B",
"V 	c #89725D",
"W 	c #B5A8A1",
"X 	c #AD9E93",
"Y 	c #AF9B8A",
"Z 	c #B09B8B",
"` 	c #B19D8D",
" .	c #44362C",
"..	c #DBD7D0",
"+.	c #B6AB9F",
"@.	c #CEC7B9",
"#.	c #D2CDC1",
"$.	c #231F19",
"%.	c #C7C0B4",
"&.	c #C5BEB1",
"*.	c #AD9458",
"=.	c #161514",
"-.	c #121212",
";.	c #C3BAAB",
">.	c #151413",
",.	c #171615",
"'.	c #1F1D18",
").	c #252018",
"!.	c #242019",
"~.	c #D3CEC2",
"{.	c #D8D3CA",
"].	c #DAD7CF",
"^.	c #2B251C",
"/.	c #2A251C",
"(.	c #221F19",
"_.	c #D6D0C6",
":.	c #D9D5CD",
"<.	c #342E26",
"[.	c #322C23",
"}.	c #D7D2C9",
"|.	c #D9D4CC",
"1.	c #D9D5CC",
"2.	c #DBD8D1",
"3.	c #2E2920",
"4.	c #DAD6CE",
"5.	c #DCD9D2",
"6.	c #E1DFDC",
"7.	c #E0DFDB",
"8.	c #28231A",
"9.	c #312A22",
"0.	c #262117",
"a.	c #CFC8BA",
"b.	c #DAD6CF",
"c.	c #E0DEDB",
"d.	c #E0DEDA",
"e.	c #262118",
"f.	c #CEC7B8",
"g.	c #D6D1C7",
"h.	c #DDDAD4",
"i.	c #DFDDD9",
"j.	c #E0DED9",
"k.	c #DFDDD8",
"l.	c #DBD8D3",
"m.	c #A48C7D",
"n.	c #473D35",
"o.	c #2C2A25",
"p.	c #242018",
"  . . . + +   + +   + + + @ # $ % & * = - ; > , ' ) ! * ~ { ] * ",
"    + ^ ^ ^ ^ ^           + / ( _ : < [ } | ^ ^ ^ ^ ^ 1 2 [ 3 ~ ",
"4 5 5 ^ ^ ^ ^ ^ 5           / 6 7 8 ] ~ 9 0 ^ ^ ^ ^ ^ a b ) = 3 ",
"c ^ ^ ^ ^ ^ ^ ^ ^ ^ d   ^ ^ # 6 e f g 1 ^ ^ h h h h h ^ ^ 3 i ~ ",
"4 ^ ^ ^ ^ ^ ^ ^ ^ ^ j d ^ ^ k l m n & ~ ^ ^ h h h h h ^ ^ o 2 = ",
"5 ^ ^ h h p p h ^ ^ . + + q ^ ^ r s & t ^ ^ h h h h h ^ ^ = u v ",
"d ^ ^ h h p p h ^ ^ + @ @ q ^ ^ w x y i ^ ^ h h h h h ^ ^ 1 * { ",
"  ^ ^ h h h h h ^ ^ + @ ^ ^ ^ ^ ^ ^ ^ ^ ^ ^ h p p h h ^ ^ i ! * ",
"+ ^ ^ ^ ^ ^ ^ ^ ^ ^ ^ ^ z z p p A A p p ^ ^ h h h h h ^ ^ i & ! ",
"@ ^ ^ ^ ^ ^ ^ ^ ^ ^ ^ ^ z z p p A A p p ^ ^ h h h h h ^ ^ ~ o B ",
"@ k C ^ ^ ^ ^ ^ ^ ^ z z p p p p p p A A ^ ^ ^ ^ ^ ^ ^ ^ ^ B D E ",
"q k F ^ ^ ^ ^ ^ ^ ^ z z p p p p p p A A ^ ^ ^ ^ ^ ^ ^ ^ ^ 3 g { ",
"k F G ^ ^ ^ ^ ^ p p p p z z ^ ^ ^ ^ ^ ^ ^ ^ ^ ^ ^ ^ ^ H I = B { ",
"C F G ^ ^ ^ ^ ^ p p p p z z ^ ^ ^ ^ ^ ^ ^ ^ ^ ^ ^ ^ ^ J * K [ { ",
"F L M ^ ^ z z p z z ^ ^ ^ ^ ^ ^ ^ ^ ^ ^ ^ ^ ^ ^ ^ ^ ^ ^ ^ N O P ",
"Q R S ^ ^ z z p z z ^ ^ ^ ^ ^ ^ ^ ^ ^ ^ ^ ^ ^ ^ ^ ^ ^ ^ ^ T U V ",
"W X Y Z ` ^ ^ ^ ^ ^ ^ ^ ^ ^ ^ ^ ^ ^ ^ ^ ^ ^ p A A A A p p ^ ^  .",
"..+.@.f #.^ ^ ^ ^ ^ ^ ^ ^ ^ ^ ^ ^ ^ ^ ^ ^ ^ p A A A A p p ^ ^ $.",
"%.o &.^ ^ ^ ^ ^ ^ ^ ^ ^ ^ ^ ^ ^ ^ ^ z z p p A p p *.*.A A ^ ^ =.",
"[ ' 2 ^ ^ ^ ^ ^ ^ ^ ^ ^ ^ ^ ^ ^ ^ ^ z z p p A p p *.*.A A ^ ^ -.",
";.^ ^ ^ ^ p p p p p z z p p p p p p A A A A A *.*.*.*.A A ^ ^ >.",
"2 ^ ^ ^ ^ p p p p p z z p p p p p p A A A A A *.*.*.*.A A ^ ^ ,.",
"K ^ ^ A A *.*.p A A A A A A A A A A z z A A A *.*.p p A A ^ ^ '.",
"[ ^ ^ p p A A A p p A A z z z z A A A A A A p p p p p z z ^ ^ ).",
"g ^ ^ p p A A A p p A A z z z z A A A A A A p p p p p z z ^ ^ !.",
"~.{.].^ ^ ^ ^ ^ ^ ^ z z z z z z p p p p z z ^ ^ ^ ^ ^ ^ ^ ^./.(.",
"E _.:.^ ^ ^ ^ ^ ^ ^ z z z z z z p p p p z z ^ ^ ^ ^ ^ ^ ^ <.[.$.",
"* }.:.:.].^ ^ ^ ^ ^ ^ ^ ^ ^ ^ ^ ^ ^ ^ ^ ^ ^ ^ ^ ^ ^ ^ F F G ).$.",
"B { |.1.2.^ ^ ^ ^ ^ ^ ^ ^ ^ ^ ^ ^ ^ ^ ^ ^ ^ ^ ^ ^ ^ ^ F G 3./.).",
"3 t :.4.5.^ ^ ^ ^ ^ 6.7.^ ^ ^ ^ ^ ^ ^ ^ k k ^ ^ ^ ^ ^ F M 8.9.0.",
"a.t {.b.b.^ ^ ^ ^ ^ c.d.^ ^ ^ ^ ^ ^ ^ ^ # k ^ ^ ^ ^ ^ F G e.e./.",
"f.3 ! g.1.|.|.:.:.h.i.7.j.k.l.m.n.q # # o.o.k k C F F G 3.p.p.(."};
