/* XPM */
static char * ground_xpm[] = {
"32 32 368 2",
"  	c #2A2825",
". 	c #2B2825",
"+ 	c #2B2925",
"@ 	c #2C2925",
"# 	c #2D2A24",
"$ 	c #4E3F36",
"% 	c #918073",
"& 	c #D2CCC0",
"* 	c #D3CDC1",
"= 	c #D0C9BB",
"- 	c #BEB5A6",
"; 	c #D2CBBD",
"> 	c #D8D3C8",
", 	c #C6BCAF",
"' 	c #CFC7B8",
") 	c #D0C9BA",
"! 	c #D4CEC2",
"~ 	c #D1CABC",
"{ 	c #D5CFC4",
"] 	c #D5D0C5",
"^ 	c #2B2924",
"/ 	c #4F3F37",
"( 	c #8E7E71",
"_ 	c #D3CEC4",
": 	c #D4CFC3",
"< 	c #D1CABD",
"[ 	c #CABEB0",
"} 	c #DAD5CB",
"| 	c #DEDBD4",
"1 	c #E0DED8",
"2 	c #DCD8D0",
"3 	c #CFC8BA",
"4 	c #D0C9BC",
"5 	c #CFC8B9",
"6 	c #D2CBBE",
"7 	c #282724",
"8 	c #292724",
"9 	c #504037",
"0 	c #89796C",
"a 	c #D2CDC3",
"b 	c #D7D2C7",
"c 	c #DDD9D2",
"d 	c #E1DFDA",
"e 	c #E3E1DD",
"f 	c #DDD9D1",
"g 	c #CEC5BA",
"h 	c #C9BEAE",
"i 	c #C9BDAE",
"j 	c #272624",
"k 	c #292825",
"l 	c #8A7A6C",
"m 	c #D0CABE",
"n 	c #D3CDC2",
"o 	c #D7CDC2",
"p 	c #E0DDD8",
"q 	c #E2E0DB",
"r 	c #E5E4E1",
"s 	c #E1DED9",
"t 	c #DBD6CD",
"u 	c #D0C8BA",
"v 	c #292824",
"w 	c #2D2A25",
"x 	c #2E2A24",
"y 	c #514037",
"z 	c #8B7A6C",
"A 	c #CFC8BC",
"B 	c #CFC7B9",
"C 	c #CBBFAF",
"D 	c #C4B8AA",
"E 	c #DBD7CE",
"F 	c #E0DDD7",
"G 	c #DAD6CC",
"H 	c #D3CDC0",
"I 	c #2F2B24",
"J 	c #857568",
"K 	c #CEC8BB",
"L 	c #D3CCC0",
"M 	c #D4CEC1",
"N 	c #DCD8CF",
"O 	c #E2E0DC",
"P 	c #D4CEC4",
"Q 	c #D1CBBE",
"R 	c #D1CBBD",
"S 	c #897A6C",
"T 	c #CFC9BD",
"U 	c #D0CABC",
"V 	c #CAC3B9",
"W 	c #CBC2B5",
"X 	c #2C2A25",
"Y 	c #847567",
"Z 	c #CCC5B7",
"` 	c #CEC6B7",
" .	c #CEC7B8",
"..	c #CDC1B2",
"+.	c #D6D1C5",
"@.	c #D8D2C8",
"#.	c #C9C0B4",
"$.	c #D3CCC1",
"%.	c #867668",
"&.	c #CBC4B6",
"*.	c #C9C0B2",
"=.	c #BDB1A2",
"-.	c #D7D1C6",
";.	c #C6BEB2",
">.	c #CCC3B6",
",.	c #D1C8BD",
"'.	c #D9D4CA",
").	c #DCD9D1",
"!.	c #D9D3C9",
"~.	c #2F2B23",
"{.	c #877667",
"].	c #B4A797",
"^.	c #C8C0B5",
"/.	c #DDDAD2",
"(.	c #CAC3B8",
"_.	c #CFC8BD",
":.	c #DEDAD3",
"<.	c #D2CCBF",
"[.	c #302B23",
"}.	c #312B22",
"|.	c #84766B",
"1.	c #DBD8D2",
"2.	c #E3E1DE",
"3.	c #E6E5E3",
"4.	c #E5E4E2",
"5.	c #E2DFDB",
"6.	c #DFDCD6",
"7.	c #D4CEC3",
"8.	c #D4CFC4",
"9.	c #2E2921",
"0.	c #42342C",
"a.	c #807470",
"b.	c #E0DEDC",
"c.	c #E7E6E5",
"d.	c #E7E7E5",
"e.	c #E6E6E4",
"f.	c #E5E3E0",
"g.	c #C4BBAC",
"h.	c #302B22",
"i.	c #2C271E",
"j.	c #352B25",
"k.	c #7F746F",
"l.	c #E0DEDB",
"m.	c #E8E7E7",
"n.	c #E8E8E7",
"o.	c #CBC4B9",
"p.	c #362B24",
"q.	c #80756F",
"r.	c #DFDCD9",
"s.	c #E4E3E0",
"t.	c #E7E7E6",
"u.	c #312B23",
"v.	c #44372E",
"w.	c #695D53",
"x.	c #DCD9D4",
"y.	c #DFDCD7",
"z.	c #E2E0DD",
"A.	c #E2E1DE",
"B.	c #E3E2DF",
"C.	c #E4E3E1",
"D.	c #DDDAD4",
"E.	c #CFC8BB",
"F.	c #CEC7BA",
"G.	c #D2CCC1",
"H.	c #453A31",
"I.	c #453B32",
"J.	c #463A32",
"K.	c #463A31",
"L.	c #443A31",
"M.	c #453A32",
"N.	c #443A32",
"O.	c #453B33",
"P.	c #3E332A",
"Q.	c #49392F",
"R.	c #524035",
"S.	c #725F4F",
"T.	c #7E6959",
"U.	c #806C5B",
"V.	c #816D5C",
"W.	c #816D5D",
"X.	c #836F5F",
"Y.	c #847060",
"Z.	c #826E5E",
"`.	c #7D6A58",
" +	c #7D6857",
".+	c #866F5B",
"++	c #89725D",
"@+	c #B5A8A1",
"#+	c #AD9E93",
"$+	c #AF9B8A",
"%+	c #B09B8B",
"&+	c #B19D8D",
"*+	c #B09E8E",
"=+	c #AF9D8D",
"-+	c #AF9C8D",
";+	c #AE9B8B",
">+	c #AB9A8B",
",+	c #A49484",
"'+	c #A69484",
")+	c #A89282",
"!+	c #6B514A",
"~+	c #573D39",
"{+	c #322A20",
"]+	c #352C23",
"^+	c #352C24",
"/+	c #332B22",
"(+	c #322923",
"_+	c #2E2521",
":+	c #2E2520",
"<+	c #302722",
"[+	c #332824",
"}+	c #332A23",
"|+	c #352A25",
"1+	c #372B26",
"2+	c #44362C",
"3+	c #DBD7D0",
"4+	c #B6AB9F",
"5+	c #CEC7B9",
"6+	c #D2CDC1",
"7+	c #D1CABE",
"8+	c #CFC9BC",
"9+	c #D1CBBF",
"0+	c #D1CCC1",
"a+	c #CEC6B9",
"b+	c #CDC5B7",
"c+	c #AB917E",
"d+	c #40342B",
"e+	c #2F2920",
"f+	c #282219",
"g+	c #2F2921",
"h+	c #262118",
"i+	c #231F19",
"j+	c #1B1917",
"k+	c #141313",
"l+	c #121211",
"m+	c #131312",
"n+	c #181716",
"o+	c #171615",
"p+	c #151413",
"q+	c #C7C0B4",
"r+	c #C5BEB1",
"s+	c #D5D0C6",
"t+	c #D6D1C7",
"u+	c #D5CFC5",
"v+	c #A68B77",
"w+	c #3E332B",
"x+	c #272119",
"y+	c #27221A",
"z+	c #28231A",
"A+	c #242018",
"B+	c #201D19",
"C+	c #1D1B18",
"D+	c #121111",
"E+	c #111111",
"F+	c #111110",
"G+	c #10100F",
"H+	c #131212",
"I+	c #161514",
"J+	c #D7D3C9",
"K+	c #D8D3CA",
"L+	c #D7D2C8",
"M+	c #CFC7BA",
"N+	c #A48976",
"O+	c #322922",
"P+	c #24201A",
"Q+	c #252118",
"R+	c #1B1A17",
"S+	c #191816",
"T+	c #101010",
"U+	c #121212",
"V+	c #C3BAAB",
"W+	c #DAD6CE",
"X+	c #D9D5CD",
"Y+	c #D8D4CB",
"Z+	c #D6D1C6",
"`+	c #A58A77",
" @	c #3D332B",
".@	c #231F1A",
"+@	c #221F19",
"@@	c #171715",
"#@	c #1A1917",
"$@	c #DBD8D0",
"%@	c #DCDAD3",
"&@	c #DCD9D3",
"*@	c #DAD6CF",
"=@	c #DAD7CF",
"-@	c #D9D4CC",
";@	c #A68B78",
">@	c #473C33",
",@	c #2A251D",
"'@	c #242019",
")@	c #1F1C18",
"!@	c #161615",
"~@	c #111010",
"{@	c #DBD8D1",
"]@	c #DEDCD6",
"^@	c #DDDAD5",
"/@	c #DCD9D2",
"(@	c #DCD8D2",
"_@	c #D9D6CD",
":@	c #D7D2C9",
"<@	c #A58B79",
"[@	c #483D34",
"}@	c #27231D",
"|@	c #1C1A17",
"1@	c #141312",
"2@	c #1F1D18",
"3@	c #D9D5CC",
"4@	c #DEDBD6",
"5@	c #DDDBD5",
"6@	c #DEDCD7",
"7@	c #D8D5CD",
"8@	c #A58D7C",
"9@	c #473C34",
"0@	c #211E19",
"a@	c #201D18",
"b@	c #1F1D19",
"c@	c #1E1C18",
"d@	c #252018",
"e@	c #DFDDD8",
"f@	c #DFDDD9",
"g@	c #DAD8D2",
"h@	c #A48D7D",
"i@	c #463C34",
"j@	c #2B261F",
"k@	c #28241D",
"l@	c #352D24",
"m@	c #3E352C",
"n@	c #27231A",
"o@	c #D3CEC2",
"p@	c #DDDAD3",
"q@	c #E0DEDA",
"r@	c #E1DFDC",
"s@	c #E1E0DC",
"t@	c #DFDEDA",
"u@	c #DBDAD5",
"v@	c #A38D7D",
"w@	c #453C34",
"x@	c #342C23",
"y@	c #2B251C",
"z@	c #2A251C",
"A@	c #D6D0C6",
"B@	c #E0DFDB",
"C@	c #E1E0DD",
"D@	c #DDDCD8",
"E@	c #A38C7C",
"F@	c #2C2924",
"G@	c #342E26",
"H@	c #322C23",
"I@	c #DFDED9",
"J@	c #E1DFDB",
"K@	c #DCDAD6",
"L@	c #A68E7F",
"M@	c #DFDCD8",
"N@	c #E2E0DE",
"O@	c #DCDBD7",
"P@	c #A48E7E",
"Q@	c #2E2920",
"R@	c #DCDAD5",
"S@	c #473C35",
"T@	c #2F2A24",
"U@	c #312A22",
"V@	c #262117",
"W@	c #DBD8D3",
"X@	c #A38B7B",
"Y@	c #473D35",
"Z@	c #E0DED9",
"`@	c #A48C7D",
"  . . . + +   + +   + + + @ # $ % & * = - ; > , ' ) ! * ~ { ] * ",
"    + + .                 + ^ / ( _ : < [ } | 1 2 3 = 4 5 < 6 ~ ",
"7 8 8   8 7 8 8 8           ^ 9 0 a ] ~ b c | d e f g h i ) = 6 ",
"j 7 8   8 7 7 7 7 8 k   + + # 9 l m n 4 ~ ; o p q r s t } 6 u ~ ",
"7 7 8     8 8 8 8 8 v k . w x y z A & ~ B C D E F r | G E H 5 = ",
"8 8   @ +   +   8 k . + + w I 9 J K & L u M N 2 F O 2 P b = Q R ",
"k   + # @ @ @ +     + @ @ w x 9 S T U u = V 2 N | c f } W 4 * { ",
"  + # x x w @ +   + + @ X # # 9 Y Z `  ...t +.@.N 2 E #.$.u ! * ",
"+ X X x x x x @   + + @ # # x 9 %.&.*.=.-.;.W >.,.'.).!.~ u & ! ",
"@ # x x x x # @ + @ @ w I I ~.9 {.].^.)./.E (.N _.'.:.2 < ~ H <.",
"@ x I ~.I x @ + + + @ x I [.}.y |.1.2.3.4.5.6.6.E 6.F 2 3 <.7.8.",
"w x [.[.[.I # @ + @ w x I [.9.0.a.b.c.c.d.e.f./.f s d '.g.6 n { ",
"x [.h.h.[.~.I x X w x x x [.i.j.k.l.c.m.n.m.r F p O e 6.o.= <.{ ",
"I [.h.[.[.~.~.I I I x I I [.9.p.q.r.s.3.t.t.3.s.1 2.r 1 * B < { ",
"[.u.}.}.[.[.[.[.~.I I ~.~.[.}.v.w.x.y.z.z.A.4.B.C.4.z.z.D.E.F.G.",
"H.I.J.K.H.H.L.L.L.M.N.I.O.I.P.Q.R.S.T.U.V.U.W.X.Y.X.Z.W.`. +.+++",
"@+#+$+%+&+&+*+=+-+;+>+,+,+'+)+!+~+{+]+^+]+/+(+_+_+:+<+[+}+|+1+2+",
"3+4+5+m 6+7+G.7+4 8+9+0+E.a+b+c+d+e+f+g+h+i+j+k+l+l+m+n+o+p+n+i+",
"q+H r+* s+s+] t+7.* 8.u+6 4 5+v+w+x+y+z+A+B+C+n+o+D+E+F+F+G+H+I+",
"< ' 5 ! J+K+K+L+] { t+t+! 6 M+N+O+P+A+Q+i+R+o+S+j+o+D+T+G+G+G+U+",
"V+~ R t+W+X+Y+Z+L+t+Y+L+{ <.m `+ @.@+@Q++@j+@@#@R+n+l+T+G+G+D+p+",
"5 ~ Z+3+$@%@&@*@=@3+=@-@t+! 9+;@>@,@y+'@)@n+n+!@l+H+l+~@G+G+E+o+",
"B <.X+&@{@&@]@^@/@^@(@=@_@:@P <@[@[.[.i.}@B+|@@@1@I+n+I+l+l+o+2@",
"< ] 3@&@D.4@y.4@5@6@6@5@3+=@7@8@9@[.[.[.h.y+0@)@a@i+i+b@|@c@B+d@",
"n u+X+D.5@e@f@e@f@f@f@6@^@&@g@h@i@I I [.[.h.j@k@l@m@[.n@+@+@d@'@",
"o@K+=@p@^@4@6@q@r@l.s@l.q@t@u@v@w@x x I [.[.h.h.h.[.~.h.x@y@z@+@",
"8.A@X+(@&@&@6@B@B@q@r@r@C@r@D@E@9@F@@ x x [.[.~.[.~.~.[.i.G@H@i+",
"* :@X+X+=@5@D.f@f@I@B@J@r@C@K@L@i@^ + # x I I ~.I I I [.[.h.d@i+",
"<.{ -@3@{@5@^@4@M@f@s@r@s@N@O@P@i@+ @ # x x I x x x I [.h.Q@z@d@",
"6 L X+W+/@5@5@/@D.q@r@B@B@B@R@v@S@^ @ @ x x x I T@T@I [.}.z+U@V@",
"3 L K+*@*@*@/@{@{@6@l.q@f@f@W@X@Y@@ @ # # x x x I [.[.[.h.h+h+z@",
" .6 ! t+3@-@-@X+X+D.f@B@Z@e@W@`@Y@w # # X X x x I [.[.h.Q@A+A++@"};
