/* XPM */
static char * lose_xpm[] = {
"96 32 555 2",
"  	c #717171",
". 	c #707070",
"+ 	c #6F6F6F",
"@ 	c #6E6E6E",
"# 	c #818181",
"$ 	c #777777",
"% 	c #868686",
"& 	c #8E8E8E",
"* 	c #979797",
"= 	c #959595",
"- 	c #8C8C8C",
"; 	c #909090",
"> 	c #888888",
", 	c #666666",
"' 	c #747474",
") 	c #858585",
"! 	c #767676",
"~ 	c #676767",
"{ 	c #919191",
"] 	c #727272",
"^ 	c #929292",
"/ 	c #878787",
"( 	c #7D7D7D",
"_ 	c #7F7F7F",
": 	c #787878",
"< 	c #828282",
"[ 	c #848484",
"} 	c #8A8A8A",
"| 	c #6C6C6C",
"1 	c #8D8D8D",
"2 	c #7E7E7E",
"3 	c #7B7B7B",
"4 	c #7A7A7A",
"5 	c #9A9A9A",
"6 	c #949494",
"7 	c #7C7C7C",
"8 	c #838383",
"9 	c #8F8F8F",
"0 	c #939393",
"a 	c #737373",
"b 	c #808080",
"c 	c #757575",
"d 	c #8B8B8B",
"e 	c #A2A2A2",
"f 	c #9E9E9E",
"g 	c #999999",
"h 	c #6A6A6A",
"i 	c #797979",
"j 	c #696969",
"k 	c #9B9B9B",
"l 	c #969696",
"m 	c #686868",
"n 	c #636363",
"o 	c #6D6D6D",
"p 	c #9D9D9D",
"q 	c #898989",
"r 	c #989898",
"s 	c #A5A5A5",
"t 	c #6B6B6B",
"u 	c #595959",
"v 	c #A3A3A3",
"w 	c #5D5D5D",
"x 	c #505050",
"y 	c #5E5E5E",
"z 	c #6F6E6E",
"A 	c #EE3131",
"B 	c #FF0000",
"C 	c #FA1B1B",
"D 	c #847575",
"E 	c #CF5858",
"F 	c #E03838",
"G 	c #524E4E",
"H 	c #786B6B",
"I 	c #BE4646",
"J 	c #E93B3B",
"K 	c #F82222",
"L 	c #FD0D0D",
"M 	c #F52626",
"N 	c #D84949",
"O 	c #855858",
"P 	c #DD5151",
"Q 	c #A88181",
"R 	c #796A6A",
"S 	c #FF0202",
"T 	c #E83535",
"U 	c #DD4D4D",
"V 	c #956363",
"W 	c #6C5C5C",
"X 	c #C04C4C",
"Y 	c #EA4141",
"Z 	c #F82121",
"` 	c #FD0E0E",
" .	c #F52C2C",
"..	c #D94E4E",
"+.	c #977474",
"@.	c #706E6E",
"#.	c #BC5C5C",
"$.	c #E93535",
"%.	c #FA1818",
"&.	c #F23232",
"*.	c #D93E3E",
"=.	c #EF3030",
"-.	c #F92222",
";.	c #E44747",
">.	c #646464",
",.	c #B96262",
"'.	c #C45B5B",
").	c #B26161",
"!.	c #EF3333",
"~.	c #685454",
"{.	c #894D4D",
"].	c #F41F1F",
"^.	c #CD4A4A",
"/.	c #867070",
"(.	c #886565",
"_.	c #E23F3F",
":.	c #FA1717",
"<.	c #9B6161",
"[.	c #EE3535",
"}.	c #FD0C0C",
"|.	c #868181",
"1.	c #9D6161",
"2.	c #D54A4A",
"3.	c #5C5C5C",
"4.	c #F03131",
"5.	c #FD0505",
"6.	c #6A6161",
"7.	c #8E5656",
"8.	c #F52525",
"9.	c #D15959",
"0.	c #997C7C",
"a.	c #E34343",
"b.	c #A77575",
"c.	c #DB3A3A",
"d.	c #D94646",
"e.	c #907171",
"f.	c #827676",
"g.	c #A06E6E",
"h.	c #CD4E4E",
"i.	c #D24E4E",
"j.	c #EE2020",
"k.	c #E92C2C",
"l.	c #8D6565",
"m.	c #CE5E5E",
"n.	c #655F5F",
"o.	c #F31D1D",
"p.	c #F42121",
"q.	c #625C5C",
"r.	c #854B4B",
"s.	c #FA1010",
"t.	c #F61B1B",
"u.	c #805656",
"v.	c #784E4E",
"w.	c #F71717",
"x.	c #D43636",
"y.	c #585858",
"z.	c #7B5959",
"A.	c #FD0606",
"B.	c #ED2E2E",
"C.	c #626262",
"D.	c #635D5D",
"E.	c #FD0707",
"F.	c #ED2828",
"G.	c #B54545",
"H.	c #B84545",
"I.	c #606060",
"J.	c #525252",
"K.	c #565656",
"L.	c #716262",
"M.	c #FE0303",
"N.	c #EE2525",
"O.	c #5A5A5A",
"P.	c #7E5959",
"Q.	c #F71414",
"R.	c #D74444",
"S.	c #765252",
"T.	c #FD0909",
"U.	c #A34B4B",
"V.	c #845454",
"W.	c #6A5A5A",
"X.	c #FE0202",
"Y.	c #DD3131",
"Z.	c #B15959",
"`.	c #A54F4F",
" +	c #2A2A2A",
".+	c #2C2C2C",
"++	c #2D2D2D",
"@+	c #B32020",
"#+	c #B12424",
"$+	c #EF1111",
"%+	c #FC0202",
"&+	c #872525",
"*+	c #2E2E2E",
"=+	c #D71414",
"-+	c #742A2A",
";+	c #323232",
">+	c #313131",
",+	c #383838",
"'+	c #EE0E0E",
")+	c #6C3232",
"!+	c #303030",
"~+	c #782727",
"{+	c #D31C1C",
"]+	c #333333",
"^+	c #343434",
"/+	c #C91B1B",
"(+	c #8C2626",
"_+	c #2F2F2F",
":+	c #373737",
"<+	c #892525",
"[+	c #D61212",
"}+	c #D81E1E",
"|+	c #783333",
"1+	c #353535",
"2+	c #2B2B2B",
"3+	c #EE1010",
"4+	c #6B3131",
"5+	c #C41C1C",
"6+	c #CD1A1A",
"7+	c #652C2C",
"8+	c #8A2828",
"9+	c #CD1C1C",
"0+	c #292929",
"a+	c #C62424",
"b+	c #602929",
"c+	c #1C1C1B",
"d+	c #1E1D1D",
"e+	c #1F1F1E",
"f+	c #1D1D1C",
"g+	c #411D1D",
"h+	c #F70303",
"i+	c #A31717",
"j+	c #1E1E1E",
"k+	c #5D1F1E",
"l+	c #FE0000",
"m+	c #E60707",
"n+	c #1F1E1E",
"o+	c #20201F",
"p+	c #171716",
"q+	c #201F1F",
"r+	c #202020",
"s+	c #E70707",
"t+	c #781A19",
"u+	c #1E1E1D",
"v+	c #A11413",
"w+	c #B71515",
"x+	c #E20A0A",
"y+	c #521D1D",
"z+	c #1C1B1A",
"A+	c #212020",
"B+	c #B01515",
"C+	c #BB1413",
"D+	c #1B1A1A",
"E+	c #5C1D1D",
"F+	c #E60909",
"G+	c #222221",
"H+	c #1E1D1C",
"I+	c #E70A09",
"J+	c #781C1B",
"K+	c #BC1212",
"L+	c #E30808",
"M+	c #AE1717",
"N+	c #372020",
"O+	c #B01716",
"P+	c #BD1010",
"Q+	c #1A1A1A",
"R+	c #DA0F0F",
"S+	c #EC0707",
"T+	c #4F4944",
"U+	c #5A544E",
"V+	c #544F49",
"W+	c #59534D",
"X+	c #59534C",
"Y+	c #C33732",
"Z+	c #C3322D",
"`+	c #504A45",
" @	c #4A4540",
".@	c #A43631",
"+@	c #D5211E",
"@@	c #34302C",
"#@	c #403C37",
"$@	c #44403A",
"%@	c #45403B",
"&@	c #433E39",
"*@	c #F50F0E",
"=@	c #663936",
"-@	c #49443E",
";@	c #C42B27",
">@	c #9C3834",
",@	c #46423C",
"'@	c #46403B",
")@	c #F81210",
"!@	c #F41816",
"~@	c #544E48",
"{@	c #504A44",
"]@	c #47423C",
"^@	c #423D38",
"/@	c #4E4842",
"(@	c #D22926",
"_@	c #A23531",
":@	c #3F3B36",
"<@	c #A43430",
"[@	c #D72926",
"}@	c #423C38",
"|@	c #45403A",
"1@	c #48433E",
"2@	c #F5110E",
"3@	c #683D38",
"4@	c #844E48",
"5@	c #FB0908",
"6@	c #E51B18",
"7@	c #554741",
"8@	c #D22723",
"9@	c #E11E1C",
"0@	c #46413C",
"a@	c #4C4842",
"b@	c #E51F1C",
"c@	c #C22F2B",
"d@	c #91877D",
"e@	c #9A9085",
"f@	c #9C9287",
"g@	c #A0958B",
"h@	c #9E9489",
"i@	c #B1897E",
"j@	c #EA3530",
"k@	c #7F756C",
"l@	c #90867C",
"m@	c #81786E",
"n@	c #C0534C",
"o@	c #CF4741",
"p@	c #6A625B",
"q@	c #7A7068",
"r@	c #7D746A",
"s@	c #797067",
"t@	c #856B63",
"u@	c #FE0404",
"v@	c #F02E2A",
"w@	c #847B70",
"x@	c #978D82",
"y@	c #E23E38",
"z@	c #9B766E",
"A@	c #8C8278",
"B@	c #887E74",
"C@	c #A28076",
"D@	c #E9524C",
"E@	c #9E9388",
"F@	c #968C81",
"G@	c #7E766C",
"H@	c #787066",
"I@	c #7E756C",
"J@	c #EE342F",
"K@	c #9A6D64",
"L@	c #706860",
"M@	c #C2564F",
"N@	c #D2514A",
"O@	c #7C7269",
"P@	c #8D726B",
"Q@	c #FE0504",
"R@	c #F13531",
"S@	c #B3867B",
"T@	c #E45A54",
"U@	c #FC1A17",
"V@	c #AE655D",
"W@	c #ED2E2A",
"X@	c #FC110F",
"Y@	c #776E66",
"Z@	c #7F766C",
"`@	c #F02D29",
" #	c #AF8177",
".#	c #80766E",
"+#	c #877D74",
"@#	c #949493",
"##	c #BC7E7E",
"$#	c #D66868",
"%#	c #878686",
"&#	c #848483",
"*#	c #60605F",
"=#	c #AE4040",
"-#	c #D13837",
";#	c #635C54",
">#	c #81776E",
",#	c #BF5C5C",
"'#	c #C97070",
")#	c #F52F2F",
"!#	c #FB2323",
"~#	c #9D9C9C",
"{#	c #9B9B9A",
"]#	c #B06363",
"^#	c #D36B6A",
"/#	c #8B8B8A",
"(#	c #898281",
"_#	c #FD0807",
":#	c #FC0F0F",
"<#	c #575454",
"[#	c #595856",
"}#	c #C37373",
"|#	c #DD6464",
"1#	c #C87171",
"2#	c #D18181",
"3#	c #998F8F",
"4#	c #C27A7A",
"5#	c #F43333",
"6#	c #BA6F6F",
"7#	c #695F5E",
"8#	c #EF1F1F",
"9#	c #9C9C9C",
"0#	c #CE6464",
"a#	c #BA6D6D",
"b#	c #7E5C5C",
"c#	c #FC0E0E",
"d#	c #EB1212",
"e#	c #58514A",
"f#	c #908A8A",
"g#	c #F23D3D",
"h#	c #EA4646",
"i#	c #959292",
"j#	c #FA2727",
"k#	c #F63737",
"l#	c #DA5A5A",
"m#	c #FE0E0E",
"n#	c #A78989",
"o#	c #9D6666",
"p#	c #EB3131",
"q#	c #4C4C4C",
"r#	c #363534",
"s#	c #9D8585",
"t#	c #FD1616",
"u#	c #F03C3C",
"v#	c #9A9494",
"w#	c #F23F3F",
"x#	c #EC4D4D",
"y#	c #928F8F",
"z#	c #CD6161",
"A#	c #988080",
"B#	c #995F5F",
"C#	c #E02727",
"D#	c #A0A0A0",
"E#	c #D56161",
"F#	c #998181",
"G#	c #E04646",
"H#	c #976F6F",
"I#	c #515151",
"J#	c #BA4B4B",
"K#	c #FF0101",
"L#	c #886E65",
"M#	c #A38080",
"N#	c #E44D4D",
"O#	c #E84646",
"P#	c #DD5555",
"Q#	c #FE0808",
"R#	c #B97E7E",
"S#	c #948A8A",
"T#	c #B26060",
"U#	c #FD1111",
"V#	c #C76868",
"W#	c #B64949",
"X#	c #D73C3C",
"Y#	c #3C3C3C",
"Z#	c #2D2C2C",
"`#	c #7A7168",
" $	c #C56969",
".$	c #FF0303",
"+$	c #D06464",
"@$	c #8E7D7D",
"#$	c #987171",
"$$	c #EA4F4F",
"%$	c #9B8E8E",
"&$	c #C56767",
"*$	c #E04D4D",
"=$	c #B77373",
"-$	c #937474",
";$	c #837A7A",
">$	c #A76C6C",
",$	c #F52D2D",
"'$	c #C35B5B",
")$	c #B95252",
"!$	c #CF2424",
"~$	c #E34141",
"{$	c #F92121",
"]$	c #9F9F9F",
"^$	c #F42D2D",
"/$	c #FB1D1D",
"($	c #838282",
"_$	c #933333",
":$	c #DD1414",
"<$	c #F80E0C",
"[$	c #FD0A09",
"}$	c #F62525",
"|$	c #E54B4B",
"1$	c #BF7272",
"2$	c #8F8E8E",
"3$	c #867C7C",
"4$	c #CE5C5C",
"5$	c #F13333",
"6$	c #FB1919",
"7$	c #F52828",
"8$	c #DD4141",
"9$	c #AD7272",
"0$	c #D44747",
"a$	c #AE6868",
"b$	c #B57C7C",
"c$	c #E44545",
"d$	c #F91B1B",
"e$	c #F72929",
"f$	c #E34646",
"g$	c #BB6969",
"h$	c #807F7F",
"i$	c #DC4242",
"j$	c #FE0505",
"k$	c #F72525",
"l$	c #E24A4A",
"m$	c #B17777",
"n$	c #D13B3B",
"o$	c #B47373",
"p$	c #F52A2A",
"q$	c #E94242",
"r$	c #404040",
"s$	c #2C2B2A",
"t$	c #4F4943",
"u$	c #80776E",
"v$	c #545454",
"w$	c #282827",
"x$	c #49433E",
"y$	c #827A70",
"z$	c #2C2C2B",
"A$	c #4C4741",
"B$	c #786F66",
"C$	c #3A3A3A",
"D$	c #2F2E2E",
"E$	c #797878",
"F$	c #282826",
"G$	c #7E756B",
"H$	c #262625",
"I$	c #524C45",
"J$	c #827970",
"K$	c #363636",
"L$	c #2B2A2A",
"M$	c #847A71",
"N$	c #818180",
"O$	c #272626",
"P$	c #5A544D",
"Q$	c #8A8177",
"R$	c #464646",
"S$	c #58534C",
"T$	c #7F766D",
"U$	c #616161",
"V$	c #A8A8A8",
"W$	c #292828",
"X$	c #837A70",
"Y$	c #818080",
"Z$	c #A1A1A1",
"`$	c #3E3E3E",
" %	c #2A2A29",
".%	c #56504A",
"+%	c #877E74",
"  . + @ # $ % & * = - ; - > $ , ' ) ! ~ ! > { + ] ^ - / / & ( %   . + @ # $ % & * = - ; - > $ , ' ) ! ~ ! > { + ] ^ - / / & ( %   . + @ # $ % & * = - ; - > $ , ' ) ! ~ ! > { + ] ^ - / / & ( % ",
"( _ : / < [ { ) ; { } } | $ ! 1 % [ 2 3 4 2 < ! ) 5 1 [ { ; < ^ ( _ : / < [ { ) ; { } } | $ ! 1 % [ 2 3 4 2 < ! ) 5 1 [ { ; < ^ ( _ : / < [ { ) ; { } } | $ ! 1 % [ 2 3 4 2 < ! ) 5 1 [ { ; < ^ ",
"6 - 7 / 4 8 & 1 9 ^ % < . 0 4 a b $ / c % % d e e 5 % < : _ > f 6 - 7 / 4 8 & 1 9 ^ % < . 0 4 a b $ / c % % d e e 5 % < : _ > f 6 - 7 / 4 8 & 1 9 ^ % < . 0 4 a b $ / c % % d e e 5 % < : _ > f ",
") < a > ( } 9 - - [   4 b : 4 7 @ _ ( : < 4 ; g # b < 2 h [ 9 f ) < a > ( } 9 - - [   4 b : 4 7 @ _ ( : < 4 ; g # b < 2 h [ 9 f ) < a > ( } 9 - - [   4 b : 4 7 @ _ ( : < 4 ; g # b < 2 h [ 9 f ",
"% 7 > % i 1 < ; 9 - a [ - / 2 a , ( ' < < a / ( 3 [ * ( j k l e % 7 > % i 1 < ; 9 - a [ - / 2 a , ( ' < < a / ( 3 [ * ( j k l e % 7 > % i 1 < ; 9 - a [ - / 2 a , ( ' < < a / ( 3 [ * ( j k l e ",
") / d 8 ( 2 # & ^ ( > [ > c m n | 2 4 [ o $ ( [ 1 & $ | & { 9 p ) / d 8 ( 2 # & ^ ( > [ > c m n | 2 4 [ o $ ( [ 1 & $ | & { 9 p ) / d 8 ( 2 # & ^ ( > [ > c m n | 2 4 [ o $ ( [ 1 & $ | & { 9 p ",
": % 7 7 [ 7 q % % - _ > 4 3 ! c ; r 8 c a : 3 2 . a l 3 ^ 9 * p : % 7 7 [ 7 q % % - _ > 4 3 ! c ; r 8 c a : 3 2 . a l 3 ^ 9 * p : % 7 7 [ 7 q % % - _ > 4 3 ! c ; r 8 c a : 3 2 . a l 3 ^ 9 * p ",
"3 $ ! < ) / [ } - ) / } ' 7 ] } [     ] / a ) 2 d p s 0 ; = = 9 3 $ ! < ) / [ } - ) / } ' 7 ] } [     ] / a ) 2 d p s 0 ; = = 9 3 $ ! < ) / [ } - ) / } ' 7 ] } [     ] / a ) 2 d p s 0 ; = = 9 ",
"] m b   _ 3 % % : - [ 2 ! % _ t h , u 2 ( $ ! 8 / - v ; [ 5 ( < ] m b   _ 3 % % : - [ 2 ! % _ t h , u 2 ( $ ! 8 / - v ; [ 5 ( < ] m b   _ 3 % % : - [ 2 ! % _ t h , u 2 ( $ ! 8 / - v ; [ 5 ( < ",
", a @ 3 ' : ( 3 , % ! 7 ( 3 w x a y $ < @ ) > 4 1 9 0 7 [ b > % , a @ 3 ' : ( 3 , % ! 7 ( 3 w x a y $ < @ ) > 4 1 9 0 7 [ b > % , a @ 3 ' : ( 3 , % ! 7 ( 3 w x a y $ < @ ) > 4 1 9 0 7 [ b > % ",
"( | z A B C D 2 @ # E B B F G H I J K L M N O , [ 2 # P B B Q _ ( R S B T $ : 2 @ # ( ] U B B V y 4 _ ( c ' W X Y Z `  ...+.1 _ ( | @.#.$.%.B B B &.( ] _ *.B B B B B B =.' y , -.B ;.[ 7 7 1 _ ",
". o >.,.B B '.4   ).B B !.~.{.].B ^./.(._.B :.<.b ' 8 [.B }.|.+ . 1.B B 2.: : 4   c 3.c 4.B 5.6.h | ' t ' 7.8.B 9./.0.a.B %.b.+ . o c.B d.e.f.g.h.i.3.c 4 j.B k.h | ' t ' y a l.B B m.4 < $ < + ",
"y u u n.o.B p.q.r.s.B t.u.v.w.B x.>.y.y z.A.B B.! C.D.E.B F.C.w y G.B B H.I.~ w J.y K.L.M.B N.O.y.>.y.y P.Q.B R.! C.y S.T.B F.w y U.B B V.I.~ w J.y K.>.W.X.B Y.y.>.y.y y K.y Z.B B `.K.h C.C.w ",
" +.+.+++@+B B #+$+B %+&+*+=+B B -+;+*+>+,+'+B B )+!+~+B B {+]+^+ +/+B B (+_+ +>+:+;+.+<+B B [+!+*+;+*+>+}+B B |+1+!+2+*+3+B B 4+ +5+B B 6+7+ +>+:+;+.+2+8+B B 9+*+;+*+>+,+!+0+a+B B b+*+^+;+]+^+",
"c+d+e+f+g+h+B B B B i+j+k+l+B m+n+o+p+q+r+s+B B t+u+v+B B w+e+e+c+x+B B y+n+z+A+A+o+q+B+B B C+D+n+o+p+E+l+B F+G+H+u+z+u+I+B B J+c+K+B B B B L+M+N+o+q+j+O+B B P+n+o+p+q+r+Q+j+R+B S+z+u+o+o+e+e+",
"T+U+V+W+X+Y+B B B Z+`+ @.@B B +@@@#@$@%@&@*@B B =@-@;@B B >@,@'@T+)@B !@X+~@{@]@^@/@`+(@B B _@:@@@#@$@<@B B [@ @}@-@|@1@2@B B 3@T+4@5@B B B B B 6@7@`+ @8@B B B B B B 9@&@0@a@b@B c@|@1@-@1@,@'@",
"d@e@f@g@h@i@B B j@k@l@m@n@B B o@p@q@r@s@t@u@B v@w@x@y@B B z@A@B@C@B B D@h@E@F@G@H@I@l@J@B B K@L@p@q@r@M@B B N@O@w@x@s@P@Q@B R@B@d@e@S@T@U@B B B B V@l@m@W@B X@L@p@q@r@s@Y@s@Z@`@B  #s@.#Z@+#A@B@",
"! > ^ @#^ ##B B $#%#&#*#=#B B -#;#>#b 9 ,#B B '#[ ; )#B !#~#s {#]#B B ^#^ 6 /#* 6 %#(#_#B :#<#[#;#>#b }#B B |#; [ ; q 1#B B 2#{#! > ^ @#3#4#5#B B 6#&#7#5.B 8#[#;#>#b 9 ! ; r ; [ ; q ; 9#~#s {#",
"} 6 ^ 0 > 0#B B a#% ] h b#c#B d#e#s@$ f#g#B h#i#} / j#B k#r ; = l#B m#n#> q ) r [ % o#B B p#q#r#e#s@$ s#t#B u#0 } / v#w#B x#y#= } 6 ^ 0 > q z#B ` A#] B#B B C#r#e#s@$ - ^ D#E#B B F#l r 9#r ; = ",
") < > 3 7 G#B B H#a y j I#J#K#B Y+L#M#N#B O#D } # 4 P#B Q#R#S#T#U#B V#3 7 4 ) [ : a W#B B X#Y#Z#~@`#} >  $.$B +$@$#$N#B $$%$1 ' &$*$=$-$;$>$,$B '$a y )$B B !$Z#~@`#} > / > ~$B {$4 q ]$* ^ 1 ' ",
"+ < ! 4 _ ^$B /$($_ @ 3.@ h _$:$<$[$}$|$1$2$( . < [ 3$4$5$6$` 7$8$9$! 4 _ _ < > < _ 0$B B B B B B B a$/ - b$c$d$` e$f$g$h$2 < 4 i$B B B j$k$l$m$< _ @ n$B B B B B B B o$- & p$B q$[ 2 # _ 2 < 4 ",
"i ) q / ) > ] [ 7 o w ,   C.r$s$t$u$b = 5 : 3 a D#& : < 7 ' d b i ) q / ) > ] [ 7 o w ,   C.r$s$t$u$b = 5 : 3 a D#& : < 7 ' d b i ) q / ) > ] [ 7 o w ,   C.r$s$t$u$b = 5 : 3 a D#& : < 7 ' d b ",
"! _ - _ [ / . # i ~ i | y v$^+w$x$y$} { ) 4 r < { - 8 > } ) } 1 ! _ - _ [ / . # i ~ i | y v$^+w$x$y$} { ) 4 r < { - 8 > } ) } 1 ! _ - _ [ / . # i ~ i | y v$^+w$x$y$} { ) 4 r < { - 8 > } ) } 1 ",
"8 > - q % ) % # $ | I.' | y :+z$A$B$] l 9#} r [ { 8 2 [ { 9 & } 8 > - q % ) % # $ | I.' | y :+z$A$B$] l 9#} r [ { 8 2 [ { 9 & } 8 > - q % ) % # $ | I.' | y :+z$A$B$] l 9#} r [ { 8 2 [ { 9 & } ",
"# % % b / 8 2 [   | ' % | y.C$D$V+`#E$5 6 b 2 : b ) ( 7 % - b % # % % b / 8 2 [   | ' % | y.C$D$V+`#E$5 6 b 2 : b ) ( 7 % - b % # % % b / 8 2 [   | ' % | y.C$D$V+`#E$5 6 b 2 : b ) ( 7 % - b % ",
"b 8 2 < a ' i # ! ) @ 4 | I.Y#F$/@G$< g 9   ' # t b # . > { d 9 b 8 2 < a ' i # ! ) @ 4 | I.Y#F$/@G$< g 9   ' # t b # . > { d 9 b 8 2 < a ' i # ! ) @ 4 | I.Y#F$/@G$< g 9   ' # t b # . > { d 9 ",
"- % 8 2 $ 4 4 4 ( 3 7 o 4 >.1+H$I$J$% } & 3 - $ b ) 6 ; % l p r - % 8 2 $ 4 4 4 ( 3 7 o 4 >.1+H$I$J$% } & 3 - $ b ) 6 ; % l p r - % 8 2 $ 4 4 4 ( 3 7 o 4 >.1+H$I$J$% } & 3 - $ b ) 6 ; % l p r ",
"l [ > < # ( _ b / ( # 8 ! I.K$L$W+M$N$2 ( > d ! = C.& 1 & ^ 0 l l [ > < # ( _ b / ( # 8 ! I.K$L$W+M$N$2 ( > d ! = C.& 1 & ^ 0 l l [ > < # ( _ b / ( # 8 ! I.K$L$W+M$N$2 ( > d ! = C.& 1 & ^ 0 l ",
"# < b 7 q < 7 1 > [ i 7 7 y :+O$P$Q$# % $ < $ R$[ ~ & 6 ^ 0 6 l # < b 7 q < 7 1 > [ i 7 7 y :+O$P$Q$# % $ < $ R$[ ~ & 6 ^ 0 6 l # < b 7 q < 7 1 > [ i 7 7 y :+O$P$Q$# % $ < $ R$[ ~ & 6 ^ 0 6 l ",
") q > # } 8 d } d - [ 4 . m C$w$S$T$) 4 ! U$c j 3 + > V$& 9 } 6 ) q > # } 8 d } d - [ 4 . m C$w$S$T$) 4 ! U$c j 3 + > V$& 9 } 6 ) q > # } 8 d } d - [ 4 . m C$w$S$T$) 4 ! U$c j 3 + > V$& 9 } 6 ",
"9 } 0 1 ( 7 % < } [ } > . h C$W$~@X$Y$Z$c . 8 C.7 2 6 p & b } l 9 } 0 1 ( 7 % < } [ } > . h C$W$~@X$Y$Z$c . 8 C.7 2 6 p & b } l 9 } 0 1 ( 7 % < } [ } > . h C$W$~@X$Y$Z$c . 8 C.7 2 6 p & b } l ",
"a b 8 [ : _ > 1 % b 7 : b | `$ %.%+%z { < a / 4 l 7 } r & & } g a b 8 [ : _ > 1 % b 7 : b | `$ %.%+%z { < a / 4 l 7 } r & & } g a b 8 [ : _ > 1 % b 7 : b | `$ %.%+%z { < a / 4 l 7 } r & & } g "};
