/* XPM */
static char * player_start_xpm[] = {
"32 32 177 2",
"  	c #2A2825",
". 	c #2B2825",
"+ 	c #2B2925",
"@ 	c #2C2925",
"# 	c #2D2A24",
"$ 	c #4E3F36",
"% 	c #918073",
"& 	c #D2CCC0",
"* 	c #D3CDC1",
"= 	c #D0C9BB",
"- 	c #BEB5A6",
"; 	c #D2CBBD",
"> 	c #D8D3C8",
", 	c #C6BCAF",
"' 	c #CFC7B8",
") 	c #D0C9BA",
"! 	c #D4CEC2",
"~ 	c #D1CABC",
"{ 	c #D5CFC4",
"] 	c #D5D0C5",
"^ 	c #323234",
"/ 	c #D1CABD",
"( 	c #CABEB0",
"_ 	c #DAD5CB",
": 	c #DEDBD4",
"< 	c #E0DED8",
"[ 	c #DCD8D0",
"} 	c #CFC8BA",
"| 	c #D0C9BC",
"1 	c #CFC8B9",
"2 	c #D2CBBE",
"3 	c #282724",
"4 	c #292724",
"5 	c #545456",
"6 	c #767678",
"7 	c #DDD9D2",
"8 	c #E1DFDA",
"9 	c #E3E1DD",
"0 	c #DDD9D1",
"a 	c #CEC5BA",
"b 	c #C9BEAE",
"c 	c #C9BDAE",
"d 	c #272624",
"e 	c #979799",
"f 	c #D7CDC2",
"g 	c #E0DDD8",
"h 	c #E2E0DB",
"i 	c #E5E4E1",
"j 	c #E1DED9",
"k 	c #DBD6CD",
"l 	c #D0C8BA",
"m 	c #B7B7BB",
"n 	c #DBD7CE",
"o 	c #E0DDD7",
"p 	c #DAD6CC",
"q 	c #D3CDC0",
"r 	c #E2E0DC",
"s 	c #D4CEC4",
"t 	c #D7D2C7",
"u 	c #D1CBBE",
"v 	c #D1CBBD",
"w 	c #292825",
"x 	c #CBC2B5",
"y 	c #2E2A24",
"z 	c #2D2A25",
"A 	c #C9C0B4",
"B 	c #D3CCC1",
"C 	c #2C2A25",
"D 	c #DCD9D1",
"E 	c #D9D3C9",
"F 	c #DEDAD3",
"G 	c #D2CCBF",
"H 	c #2F2B23",
"I 	c #2F2B24",
"J 	c #D4CEC3",
"K 	c #D4CFC4",
"L 	c #FFFFFF",
"M 	c #D9D4CA",
"N 	c #C4BBAC",
"O 	c #D3CDC2",
"P 	c #2E1E22",
"Q 	c #DFDCD6",
"R 	c #CBC4B9",
"S 	c #CFC7B9",
"T 	c #302B23",
"U 	c #E2E0DD",
"V 	c #DDDAD4",
"W 	c #CFC8BB",
"X 	c #CEC7BA",
"Y 	c #D2CCC1",
"Z 	c #453A31",
"` 	c #D2D2D6",
" .	c #826E5E",
"..	c #816D5D",
"+.	c #7D6A58",
"@.	c #7D6857",
"#.	c #866F5B",
"$.	c #89725D",
"%.	c #B5A8A1",
"&.	c #302722",
"*.	c #332824",
"=.	c #332A23",
"-.	c #352A25",
";.	c #372B26",
">.	c #44362C",
",.	c #DBD7D0",
"'.	c #B6AB9F",
").	c #DDBD9C",
"!.	c #EEDAB3",
"~.	c #FDF0C5",
"{.	c #121211",
"].	c #131312",
"^.	c #181716",
"/.	c #171615",
"(.	c #151413",
"_.	c #231F19",
":.	c #C7C0B4",
"<.	c #7A6843",
"[.	c #CA9E73",
"}.	c #111111",
"|.	c #131212",
"1.	c #161514",
"2.	c #10100F",
"3.	c #121212",
"4.	c #C3BAAB",
"5.	c #121111",
"6.	c #D6D1C6",
"7.	c #534721",
"8.	c #6E5E2C",
"9.	c #D9D5CD",
"0.	c #1F1D18",
"a.	c #201D19",
"b.	c #252018",
"c.	c #242019",
"d.	c #D3CEC2",
"e.	c #D8D3CA",
"f.	c #8B5E4A",
"g.	c #2A251C",
"h.	c #221F19",
"i.	c #D6D0C6",
"j.	c #DCD8D2",
"k.	c #DCD9D3",
"l.	c #E0DFDB",
"m.	c #322C23",
"n.	c #D7D2C9",
"o.	c #DAD7CF",
"p.	c #DDDBD5",
"q.	c #DFDDD9",
"r.	c #D9D4CC",
"s.	c #D9D5CC",
"t.	c #DBD8D1",
"u.	c #DDDAD5",
"v.	c #DEDBD6",
"w.	c #DFDCD8",
"x.	c #2E2920",
"y.	c #D3CCC0",
"z.	c #DAD6CE",
"A.	c #DCD9D2",
"B.	c #E0DEDA",
"C.	c #77584A",
"D.	c #A38D7D",
"E.	c #312B22",
"F.	c #28231A",
"G.	c #312A22",
"H.	c #262117",
"I.	c #DAD6CF",
"J.	c #DEDCD7",
"K.	c #A77E5D",
"L.	c #A38B7B",
"M.	c #302B22",
"N.	c #262118",
"O.	c #CEC7B8",
"P.	c #D6D1C7",
"Q.	c #DBD8D3",
"R.	c #A48C7D",
"S.	c #473D35",
"T.	c #242018",
"  . . . + +   + +   + + + @ # $ % & * = - ; > , ' ) ! * ~ { ] * ",
"    + + .               ^ ^ ^ ^ ^ ^ ^ / ( _ : < [ } = | 1 / 2 ~ ",
"3 4 4   4 3 4 4 4   ^ ^ 5 5 6 6 6 5 5 ^ ^ 7 : 8 9 0 a b c ) = 2 ",
"d 3 4   4 3 3 3 3 ^ 5 6 6 e e e e e 6 6 5 ^ f g h i j k _ 2 l ~ ",
"3 3 4     4 4 4 ^ 5 6 e e e m m m e e e 6 5 ^ n o i : p n q 1 = ",
"4 4   @ +   + ^ 5 6 e e e m m m m m e e e 6 5 ^ o r [ s t = u v ",
"w   + # @ @ ^ 5 6 e e e m m m m m m m e e e 6 5 ^ 7 0 _ x | * { ",
"  + # y y z ^ 6 6 e e e m m m m m m m e e e 6 6 ^ [ n A B l ! * ",
"+ C C y y ^ 5 6 e e e e e m m m m m e e e e e 6 5 ^ D E ~ l & ! ",
"@ e y y y ^ 5 6 ^ ^ 5 6 6 e e e e e 6 6 5 ^ ^ 6 5 ^ F [ / ~ q G ",
"@ e e H I ^ 5 ^ 5 e ^ ^ 5 5 5 5 5 5 5 ^ ^ e 5 ^ 5 ^ o [ } G J K ",
"z e L e ^ 6 ^ 5 6 6 e e m m m m m m m e e 6 6 5 ^ 6 ^ M N 2 O { ",
"y e L m ^ 6 ^ 5 5 P 5 6 6 e e e e e 6 6 5 P 5 5 ^ 6 ^ Q R = G { ",
"I e L L e 5 ^ 5 e 5 P P P P P P P P P P P 5 e 5 ^ 5 ^ < * S / { ",
"T e L L e ^ ^ 5 6 e 5 P P P P P P P P P 5 e 6 5 ^ ^ ^ U V W X Y ",
"Z e ` L e ^ ^ ^ 5 6 e e m m m m m m m e e 6 5 ^ ^ ^  ...+.@.#.$.",
"%.e ` L m ^ 5 5 ^ ^ 5 6 6 e e e e e 6 6 5 ^ ^ 5 5 ^ &.*.=.-.;.>.",
",.'.e L L e ^ 5 6 ^ ).!.~.~.~.~.~.~.~.!.).^ 6 5 ^ {.].^./.(.^._.",
":.q e L L e 5 ^ ^ ^ <.[.).!.!.!.!.!.).[.<.^ ^ ^ 5 ^ }.^ ^ ^ |.1.",
"/ ' e ` L e e m m 6 5 <.<.<.<.<.<.<.<.<.5 6 m m ^ ^ ^ 5 6 ^ 2.3.",
"4.~ e ` L m e e m 5 ^ 5 6 e 6 6 6 e 6 5 ^ ^ ^ ^ 5 e 6 6 5 ^ 5.(.",
"1 ~ 6.e L L ^ ^ ^ ^ 6 e m m e e e m m e 6 ^ 6 e m 5 7.8.5 ^ }./.",
"S G 9.e L L 5 e e ^ 6 e e 6 5 5 5 6 e e 6 ^ 6 8.7.8.7.8.5 ^ /.0.",
"/ ] ^ 5 6 e e 5 ^ ^ ^ ^ 5 5 6 e 6 5 5 ^ ^ ^ 6 8.7.8.5 6 5 ^ a.b.",
"O ^ 6 e e 5 5 ^ ^ ^ 5 5 ^ ^ 5 5 5 ^ ^ 5 5 ^ 6 e m e 6 5 5 ^ b.c.",
"d.e.^ ^ ^ f.f.^ ^ 5 6 m 6 5 m m m 5 6 m 6 ^ 6 e e 6 7.8.5 ^ g.h.",
"K i.9.j.k.7.7.l.^ 5 e m ^ 6 e m e 6 ^ m e ^ 6 8.7.8.7.8.5 ^ m._.",
"* n.9.9.o.p.V q.q.^ e ^ 5 ^ 6 e 6 ^ 5 ^ e ^ 6 e 7.8.7.8.5 ^ b._.",
"G { r.s.t.p.u.v.w.q.^ 5 m 6 ^ ^ ^ 6 m 5 ^ y ^ 5 e 8.7.5 ^ x.g.b.",
"2 y.9.z.A.p.p.A.V B.7.f.f.C.7.D.7.C.f.f.7.y y ^ 5 e 6 ^ E.F.G.H.",
"} y.e.I.I.I.A.t.t.J.7.K.K.f.7.L.7.f.K.K.7.y y y ^ ^ ^ T M.N.N.g.",
"O.2 ! P.s.r.r.9.9.V q.7.7.7.Q.R.S.7.7.7.C C y y I T T M.x.T.T.h."};
