/* XPM */
static char * 3_xpm[] = {
"32 32 259 2",
"  	c #717171",
". 	c #707070",
"+ 	c #6F6F6F",
"@ 	c #6E6E6E",
"# 	c #818181",
"$ 	c #777777",
"% 	c #868686",
"& 	c #8E8E8E",
"* 	c #979797",
"= 	c #959595",
"- 	c #8C8C8C",
"; 	c #909090",
"> 	c #888888",
", 	c #666666",
"' 	c #747474",
") 	c #858585",
"! 	c #767676",
"~ 	c #676767",
"{ 	c #919191",
"] 	c #727272",
"^ 	c #929292",
"/ 	c #878787",
"( 	c #7D7D7D",
"_ 	c #7F7F7F",
": 	c #787878",
"< 	c #828282",
"[ 	c #848484",
"} 	c #8A8A8A",
"| 	c #6C6C6C",
"1 	c #8D8D8D",
"2 	c #7E7E7E",
"3 	c #7B7B7B",
"4 	c #7A7A7A",
"5 	c #9A9A9A",
"6 	c #949494",
"7 	c #7C7C7C",
"8 	c #838383",
"9 	c #8F8F8F",
"0 	c #939393",
"a 	c #737373",
"b 	c #808080",
"c 	c #757575",
"d 	c #8B8B8B",
"e 	c #A2A2A2",
"f 	c #9E9E9E",
"g 	c #999999",
"h 	c #6A6A6A",
"i 	c #797979",
"j 	c #696969",
"k 	c #9B9B9B",
"l 	c #969696",
"m 	c #686868",
"n 	c #636363",
"o 	c #6D6D6D",
"p 	c #9D9D9D",
"q 	c #898989",
"r 	c #989898",
"s 	c #A5A5A5",
"t 	c #6B6B6B",
"u 	c #595959",
"v 	c #A3A3A3",
"w 	c #5D5D5D",
"x 	c #505050",
"y 	c #5E5E5E",
"z 	c #757064",
"A 	c #AA993A",
"B 	c #D4C031",
"C 	c #E1CB12",
"D 	c #E1CB1E",
"E 	c #D5C23C",
"F 	c #ADA165",
"G 	c #646464",
"H 	c #5C5C5C",
"I 	c #B4A43C",
"J 	c #9A8C46",
"K 	c #6F6C60",
"L 	c #7D7965",
"M 	c #CCB93B",
"N 	c #E6CF00",
"O 	c #A09563",
"P 	c #606060",
"Q 	c #5A5A5A",
"R 	c #525252",
"S 	c #565656",
"T 	c #535353",
"U 	c #585858",
"V 	c #988C55",
"W 	c #B5A442",
"X 	c #626262",
"Y 	c #2A2A2A",
"Z 	c #2C2C2C",
"` 	c #2D2D2D",
" .	c #2F2F2F",
"..	c #313131",
"+.	c #373737",
"@.	c #323232",
"#.	c #2B2B2B",
"$.	c #2E2E2E",
"%.	c #282828",
"&.	c #252525",
"*.	c #303030",
"=.	c #9E8E25",
"-.	c #96882C",
";.	c #292929",
">.	c #383838",
",.	c #353535",
"'.	c #343434",
").	c #333333",
"!.	c #1C1C1B",
"~.	c #1E1D1D",
"{.	c #1F1F1E",
"].	c #1D1D1C",
"^.	c #1F1E1E",
"/.	c #1C1B1A",
"(.	c #212020",
"_.	c #20201F",
":.	c #201F1F",
"<.	c #1E1E1E",
"[.	c #222120",
"}.	c #201F1E",
"|.	c #393319",
"1.	c #877918",
"2.	c #DDC704",
"3.	c #C3B00E",
"4.	c #2D2620",
"5.	c #1A1A1A",
"6.	c #222221",
"7.	c #1E1D1C",
"8.	c #1E1E1D",
"9.	c #4F4944",
"0.	c #5A544E",
"a.	c #544F49",
"b.	c #59534D",
"c.	c #59534C",
"d.	c #544E48",
"e.	c #504A44",
"f.	c #47423C",
"g.	c #423D38",
"h.	c #4E4842",
"i.	c #504A45",
"j.	c #4A4540",
"k.	c #655A36",
"l.	c #E5CE02",
"m.	c #C6B21E",
"n.	c #4F4A3A",
"o.	c #433E39",
"p.	c #46413C",
"q.	c #4C4842",
"r.	c #423C38",
"s.	c #49443E",
"t.	c #45403A",
"u.	c #48433E",
"v.	c #46423C",
"w.	c #46403B",
"x.	c #91877D",
"y.	c #9A9085",
"z.	c #9C9287",
"A.	c #A0958B",
"B.	c #9E9489",
"C.	c #9E9388",
"D.	c #968C81",
"E.	c #7E766C",
"F.	c #787066",
"G.	c #7E756C",
"H.	c #90867C",
"I.	c #81786E",
"J.	c #756C64",
"K.	c #7A7268",
"L.	c #7F745C",
"M.	c #B9A73F",
"N.	c #C2B043",
"O.	c #776E66",
"P.	c #797067",
"Q.	c #7F766C",
"R.	c #7C7269",
"S.	c #847B70",
"T.	c #978D82",
"U.	c #80766E",
"V.	c #877D74",
"W.	c #8C8278",
"X.	c #887E74",
"Y.	c #949493",
"Z.	c #8B8B8A",
"`.	c #878686",
" +	c #848483",
".+	c #60605F",
"++	c #515151",
"@+	c #656565",
"#+	c #545454",
"$+	c #595856",
"%+	c #675D54",
"&+	c #E5CE0A",
"*+	c #D8C443",
"=+	c #9C9C9C",
"-+	c #9D9C9C",
";+	c #9B9B9A",
">+	c #616161",
",+	c #4C4C4C",
"'+	c #363534",
")+	c #746B46",
"!+	c #C9B85A",
"~+	c #A0A0A0",
"{+	c #CAB83A",
"]+	c #A8993D",
"^+	c #7F795B",
"/+	c #4B473B",
"(+	c #766B27",
"_+	c #D1BC20",
":+	c #DCC734",
"<+	c #959181",
"[+	c #9F9F9F",
"}+	c #8C8351",
"|+	c #C9B640",
"1+	c #DBC625",
"2+	c #E4CD03",
"3+	c #E0CA05",
"4+	c #D1BC1C",
"5+	c #B7A64B",
"6+	c #838177",
"7+	c #404040",
"8+	c #2C2B2A",
"9+	c #4F4943",
"0+	c #80776E",
"a+	c #282827",
"b+	c #49433E",
"c+	c #827A70",
"d+	c #2C2C2B",
"e+	c #4C4741",
"f+	c #786F66",
"g+	c #3A3A3A",
"h+	c #2F2E2E",
"i+	c #7A7168",
"j+	c #797878",
"k+	c #3C3C3C",
"l+	c #282826",
"m+	c #7E756B",
"n+	c #262625",
"o+	c #524C45",
"p+	c #827970",
"q+	c #363636",
"r+	c #2B2A2A",
"s+	c #847A71",
"t+	c #818180",
"u+	c #272626",
"v+	c #5A544D",
"w+	c #8A8177",
"x+	c #464646",
"y+	c #58534C",
"z+	c #7F766D",
"A+	c #A8A8A8",
"B+	c #292828",
"C+	c #837A70",
"D+	c #818080",
"E+	c #A1A1A1",
"F+	c #3E3E3E",
"G+	c #2A2A29",
"H+	c #56504A",
"I+	c #877E74",
"J+	c #6F6E6E",
"  . + @ # $ % & * = - ; - > $ , ' ) ! ~ ! > { + ] ^ - / / & ( % ",
"( _ : / < [ { ) ; { } } | $ ! 1 % [ 2 3 4 2 < ! ) 5 1 [ { ; < ^ ",
"6 - 7 / 4 8 & 1 9 ^ % < . 0 4 a b $ / c % % d e e 5 % < : _ > f ",
") < a > ( } 9 - - [   4 b : 4 7 @ _ ( : < 4 ; g # b < 2 h [ 9 f ",
"% 7 > % i 1 < ; 9 - a [ - / 2 a , ( ' < < a / ( 3 [ * ( j k l e ",
") / d 8 ( 2 # & ^ ( > [ > c m n | 2 4 [ o $ ( [ 1 & $ | & { 9 p ",
": % 7 7 [ 7 q % % - _ > 4 3 ! c ; r 8 c a : 3 2 . a l 3 ^ 9 * p ",
"3 $ ! < ) / [ } - ) / } ' 7 ] } [     ] / a ) 2 d p s 0 ; = = 9 ",
"] m b   _ 3 % % : - [ 2 ! % _ t h , u 2 ( $ ! 8 / - v ; [ 5 ( < ",
", a @ 3 ' : ( 3 , % ! 7 ( 3 w x a y $ < @ ) > 4 1 9 0 7 [ b > % ",
"( | @ c + $ : 2 @ # ( ] _ z A B C D E F c ' y , [ 2 # [ 7 7 1 _ ",
". o G i ] : : 4   c H c 4 I J K L M N N O y a | b ' 8 4 < $ < + ",
"y u u P Q P ~ w R y S G H T y Q U V N N W S y o ! X y S h X X w ",
"Y Z Z ` Z  .Y ..+.@.Z #.$.%.&.*.$.=.N N -.*.;.>.,.*.#.$.'.@.).'.",
"!.~.{.].^.^./.(.(._.:.<.[.}.}.|.1.2.N 3.4.5.<.6.7.8./.8._._.{.{.",
"9.0.a.b.c.d.e.f.g.h.i.j.f.k.l.N N N m.n.o.p.q.j.r.s.t.u.s.u.v.w.",
"x.y.z.A.B.C.D.E.F.G.H.I.J.K.G.L.M.N N N.O.P.Q.R.S.T.P.U.Q.V.W.X.",
"! > ^ Y.^ 6 Z.* 6 `. +.+++@+#+$+%+&+N *+! ; r ; [ ; q ; =+-+s ;+",
"} 6 ^ 0 > q ) r [ % ] h >+@ ,+'+)+N N !+^ ~+- 0 } / l r =+r ; = ",
") < > 3 7 4 ) [ : a y {+]+^+/+(+_+N :+<+/ > : } # 4 q [+* ^ 1 ' ",
"+ < ! 4 _ _ < > < _ @ }+|+1+2+3+4+5+6+/ - & ( . < [ 2 # _ 2 < 4 ",
"i ) q / ) > ] [ 7 o w ,   X 7+8+9+0+b = 5 : 3 a ~+& : < 7 ' d b ",
"! _ - _ [ / . # i ~ i | y #+'.a+b+c+} { ) 4 r < { - 8 > } ) } 1 ",
"8 > - q % ) % # $ | P ' | y +.d+e+f+] l =+} r [ { 8 2 [ { 9 & } ",
"# % % b / 8 2 [   | ' % | U g+h+a.i+j+5 6 b 2 : b ) ( 7 % - b % ",
"b 8 2 < a ' i # ! ) @ 4 | P k+l+h.m+< g 9   ' # t b # . > { d 9 ",
"- % 8 2 $ 4 4 4 ( 3 7 o 4 G ,.n+o+p+% } & 3 - $ b ) 6 ; % l p r ",
"l [ > < # ( _ b / ( # 8 ! P q+r+b.s+t+2 ( > d ! = X & 1 & ^ 0 l ",
"# < b 7 q < 7 1 > [ i 7 7 y +.u+v+w+# % $ < $ x+[ ~ & 6 ^ 0 6 l ",
") q > # } 8 d } d - [ 4 . m g+a+y+z+) 4 ! >+c j 3 + > A+& 9 } 6 ",
"9 } 0 1 ( 7 % < } [ } > . h g+B+d.C+D+E+c . 8 X 7 2 6 p & b } l ",
"a b 8 [ : _ > 1 % b 7 : b | F+G+H+I+J+{ < a / 4 l 7 } r & & } g "};
