/* XPM */
static char * 4_xpm[] = {
"32 32 245 2",
"  	c #717171",
". 	c #707070",
"+ 	c #6F6F6F",
"@ 	c #6E6E6E",
"# 	c #818181",
"$ 	c #777777",
"% 	c #868686",
"& 	c #8E8E8E",
"* 	c #979797",
"= 	c #959595",
"- 	c #8C8C8C",
"; 	c #909090",
"> 	c #888888",
", 	c #666666",
"' 	c #747474",
") 	c #858585",
"! 	c #767676",
"~ 	c #676767",
"{ 	c #919191",
"] 	c #727272",
"^ 	c #929292",
"/ 	c #878787",
"( 	c #7D7D7D",
"_ 	c #7F7F7F",
": 	c #787878",
"< 	c #828282",
"[ 	c #848484",
"} 	c #8A8A8A",
"| 	c #6C6C6C",
"1 	c #8D8D8D",
"2 	c #7E7E7E",
"3 	c #7B7B7B",
"4 	c #7A7A7A",
"5 	c #9A9A9A",
"6 	c #949494",
"7 	c #7C7C7C",
"8 	c #838383",
"9 	c #8F8F8F",
"0 	c #939393",
"a 	c #737373",
"b 	c #808080",
"c 	c #757575",
"d 	c #8B8B8B",
"e 	c #A2A2A2",
"f 	c #9E9E9E",
"g 	c #999999",
"h 	c #6A6A6A",
"i 	c #797979",
"j 	c #696969",
"k 	c #9B9B9B",
"l 	c #969696",
"m 	c #686868",
"n 	c #636363",
"o 	c #6D6D6D",
"p 	c #9D9D9D",
"q 	c #898989",
"r 	c #989898",
"s 	c #A5A5A5",
"t 	c #6B6B6B",
"u 	c #595959",
"v 	c #A3A3A3",
"w 	c #5D5D5D",
"x 	c #505050",
"y 	c #5E5E5E",
"z 	c #4E4E4E",
"A 	c #ADA261",
"B 	c #E6CF03",
"C 	c #E6CF00",
"D 	c #968E68",
"E 	c #646464",
"F 	c #5C5C5C",
"G 	c #565656",
"H 	c #555555",
"I 	c #626262",
"J 	c #A49856",
"K 	c #E5CE04",
"L 	c #E5CE07",
"M 	c #67645C",
"N 	c #606060",
"O 	c #5A5A5A",
"P 	c #525252",
"Q 	c #535353",
"R 	c #9B8E4A",
"S 	c #E2CC12",
"T 	c #E1CB0F",
"U 	c #D7C225",
"V 	c #2A2A2A",
"W 	c #2C2C2C",
"X 	c #2D2D2D",
"Y 	c #2F2F2F",
"Z 	c #313131",
"` 	c #373737",
" .	c #323232",
"..	c #2B2B2B",
"+.	c #2E2E2E",
"@.	c #282828",
"#.	c #8A7C1E",
"$.	c #E4CD02",
"%.	c #E5CE01",
"&.	c #918228",
"*.	c #BFAC20",
"=.	c #303030",
"-.	c #292929",
";.	c #383838",
">.	c #353535",
",.	c #343434",
"'.	c #333333",
").	c #1C1C1B",
"!.	c #1E1D1D",
"~.	c #1F1F1E",
"{.	c #1D1D1C",
"].	c #1F1E1E",
"^.	c #1C1B1A",
"/.	c #212020",
"(.	c #20201F",
"_.	c #201F1F",
":.	c #1E1E1E",
"<.	c #222120",
"[.	c #837718",
"}.	c #E3CD01",
"|.	c #9E8E15",
"1.	c #786A1B",
"2.	c #A29316",
"3.	c #1A1A1A",
"4.	c #222221",
"5.	c #1E1D1C",
"6.	c #1E1E1D",
"7.	c #4F4944",
"8.	c #5A544E",
"9.	c #544F49",
"0.	c #59534D",
"a.	c #59534C",
"b.	c #544E48",
"c.	c #504A44",
"d.	c #47423C",
"e.	c #423D38",
"f.	c #4E4842",
"g.	c #504A45",
"h.	c #4A4540",
"i.	c #867A34",
"j.	c #E3CC05",
"k.	c #B8A522",
"l.	c #34302C",
"m.	c #A29229",
"n.	c #887B31",
"o.	c #46413C",
"p.	c #4C4842",
"q.	c #423C38",
"r.	c #49443E",
"s.	c #45403A",
"t.	c #48433E",
"u.	c #46423C",
"v.	c #46403B",
"w.	c #91877D",
"x.	c #9A9085",
"y.	c #9C9287",
"z.	c #A0958B",
"A.	c #9E9489",
"B.	c #9E9388",
"C.	c #968C81",
"D.	c #7E766C",
"E.	c #787066",
"F.	c #7E756C",
"G.	c #90867C",
"H.	c #81786E",
"I.	c #CDB838",
"J.	c #CFBB3B",
"K.	c #73695F",
"L.	c #6A625B",
"M.	c #C5B242",
"N.	c #827863",
"O.	c #797067",
"P.	c #7F766C",
"Q.	c #7C7269",
"R.	c #847B70",
"S.	c #978D82",
"T.	c #80766E",
"U.	c #877D74",
"V.	c #8C8278",
"W.	c #887E74",
"X.	c #949493",
"Y.	c #8B8B8A",
"Z.	c #878686",
"`.	c #848483",
" +	c #60605F",
".+	c #DEC815",
"++	c #B2A878",
"@+	c #9C9C9C",
"#+	c #9D9C9C",
"$+	c #9B9B9A",
"%+	c #616161",
"&+	c #4C4C4C",
"*+	c #363534",
"=+	c #7E7244",
"-+	c #C1B364",
";+	c #A0A0A0",
">+	c #515151",
",+	c #3C3C3C",
"'+	c #2D2C2C",
")+	c #94853D",
"!+	c #B3A86D",
"~+	c #9F9F9F",
"{+	c #2C2C2B",
"]+	c #A69532",
"^+	c #A69D76",
"/+	c #404040",
"(+	c #2C2B2A",
"_+	c #4F4943",
":+	c #80776E",
"<+	c #545454",
"[+	c #282827",
"}+	c #49433E",
"|+	c #827A70",
"1+	c #4C4741",
"2+	c #786F66",
"3+	c #585858",
"4+	c #3A3A3A",
"5+	c #2F2E2E",
"6+	c #7A7168",
"7+	c #797878",
"8+	c #282826",
"9+	c #7E756B",
"0+	c #262625",
"a+	c #524C45",
"b+	c #827970",
"c+	c #363636",
"d+	c #2B2A2A",
"e+	c #847A71",
"f+	c #818180",
"g+	c #272626",
"h+	c #5A544D",
"i+	c #8A8177",
"j+	c #464646",
"k+	c #58534C",
"l+	c #7F766D",
"m+	c #A8A8A8",
"n+	c #292828",
"o+	c #837A70",
"p+	c #818080",
"q+	c #A1A1A1",
"r+	c #3E3E3E",
"s+	c #2A2A29",
"t+	c #56504A",
"u+	c #877E74",
"v+	c #6F6E6E",
"  . + @ # $ % & * = - ; - > $ , ' ) ! ~ ! > { + ] ^ - / / & ( % ",
"( _ : / < [ { ) ; { } } | $ ! 1 % [ 2 3 4 2 < ! ) 5 1 [ { ; < ^ ",
"6 - 7 / 4 8 & 1 9 ^ % < . 0 4 a b $ / c % % d e e 5 % < : _ > f ",
") < a > ( } 9 - - [   4 b : 4 7 @ _ ( : < 4 ; g # b < 2 h [ 9 f ",
"% 7 > % i 1 < ; 9 - a [ - / 2 a , ( ' < < a / ( 3 [ * ( j k l e ",
") / d 8 ( 2 # & ^ ( > [ > c m n | 2 4 [ o $ ( [ 1 & $ | & { 9 p ",
": % 7 7 [ 7 q % % - _ > 4 3 ! c ; r 8 c a : 3 2 . a l 3 ^ 9 * p ",
"3 $ ! < ) / [ } - ) / } ' 7 ] } [     ] / a ) 2 d p s 0 ; = = 9 ",
"] m b   _ 3 % % : - [ 2 ! % _ t h , u 2 ( $ ! 8 / - v ; [ 5 ( < ",
", a @ 3 ' : ( 3 , % ! 7 ( 3 w x a y $ < @ ) > 4 1 9 0 7 [ b > % ",
"( | @ c + $ : 2 @ # ( ] _ ~ z o y A B C C D y , [ 2 # [ 7 7 1 _ ",
". o E i ] : : 4   c F c 4 G H I J K C C L M a | b ' 8 4 < $ < + ",
"y u u N O N ~ w P y G E F Q y R K S T C U G y o ! I y G h I I w ",
"V W W X W Y V Z `  .W ..+.@.#.$.%.&.%.C *.=.-.;.>.=...+.,. .'.,.",
").!.~.{.].].^././.(._.:.<.[.}.C |.1.C C 2.3.:.4.5.6.^.6.(.(.~.~.",
"7.8.9.0.a.b.c.d.e.f.g.h.i.j.C k.l.m.C C n.o.p.h.q.r.s.t.r.t.u.v.",
"w.x.y.z.A.B.C.D.E.F.G.H.I.C J.K.L.M.C C N.O.P.Q.R.S.O.T.P.U.V.W.",
"! > ^ X.^ 6 Y.* 6 Z.`. +.+C C C C C C C C ++r ; [ ; q ; @+#+s $+",
"} 6 ^ 0 > q ) r [ % ] h %+@ &+*+=+C C -+^ ;+- 0 } / l r @+r ; = ",
") < > 3 7 4 ) [ : a y j >+I ,+'+)+C C !+/ > : } # 4 q ~+* ^ 1 ' ",
"+ < ! 4 _ _ < > < _ @ F @ h ,+{+]+C C ^+- & ( . < [ 2 # _ 2 < 4 ",
"i ) q / ) > ] [ 7 o w ,   I /+(+_+:+b = 5 : 3 a ;+& : < 7 ' d b ",
"! _ - _ [ / . # i ~ i | y <+,.[+}+|+} { ) 4 r < { - 8 > } ) } 1 ",
"8 > - q % ) % # $ | N ' | y ` {+1+2+] l @+} r [ { 8 2 [ { 9 & } ",
"# % % b / 8 2 [   | ' % | 3+4+5+9.6+7+5 6 b 2 : b ) ( 7 % - b % ",
"b 8 2 < a ' i # ! ) @ 4 | N ,+8+f.9+< g 9   ' # t b # . > { d 9 ",
"- % 8 2 $ 4 4 4 ( 3 7 o 4 E >.0+a+b+% } & 3 - $ b ) 6 ; % l p r ",
"l [ > < # ( _ b / ( # 8 ! N c+d+0.e+f+2 ( > d ! = I & 1 & ^ 0 l ",
"# < b 7 q < 7 1 > [ i 7 7 y ` g+h+i+# % $ < $ j+[ ~ & 6 ^ 0 6 l ",
") q > # } 8 d } d - [ 4 . m 4+[+k+l+) 4 ! %+c j 3 + > m+& 9 } 6 ",
"9 } 0 1 ( 7 % < } [ } > . h 4+n+b.o+p+q+c . 8 I 7 2 6 p & b } l ",
"a b 8 [ : _ > 1 % b 7 : b | r+s+t+u+v+{ < a / 4 l 7 } r & & } g "};
