/* XPM */
static char * collectible_xpm[] = {
"32 32 213 2",
"  	c #2A2825",
". 	c #2B2825",
"+ 	c #2B2925",
"@ 	c #2C2925",
"# 	c #2D2A24",
"$ 	c #4E3F36",
"% 	c #918073",
"& 	c #D2CCC0",
"* 	c #D3CDC1",
"= 	c #D0C9BB",
"- 	c #BEB5A6",
"; 	c #D2CBBD",
"> 	c #D8D3C8",
", 	c #C6BCAF",
"' 	c #CFC7B8",
") 	c #D0C9BA",
"! 	c #D4CEC2",
"~ 	c #D1CABC",
"{ 	c #D5CFC4",
"] 	c #D5D0C5",
"^ 	c #A3F0FF",
"/ 	c #9BE8FB",
"( 	c #D1CABD",
"_ 	c #CABEB0",
": 	c #DAD5CB",
"< 	c #DEDBD4",
"[ 	c #E0DED8",
"} 	c #DCD8D0",
"| 	c #CFC8BA",
"1 	c #D0C9BC",
"2 	c #CFC8B9",
"3 	c #D2CBBE",
"4 	c #282724",
"5 	c #292724",
"6 	c #0090B6",
"7 	c #00E3FF",
"8 	c #24525E",
"9 	c #007089",
"0 	c #DDD9D2",
"a 	c #E1DFDA",
"b 	c #E3E1DD",
"c 	c #DDD9D1",
"d 	c #CEC5BA",
"e 	c #C9BEAE",
"f 	c #C9BDAE",
"g 	c #272624",
"h 	c #D7CDC2",
"i 	c #E0DDD8",
"j 	c #E2E0DB",
"k 	c #E5E4E1",
"l 	c #E1DED9",
"m 	c #DBD6CD",
"n 	c #D0C8BA",
"o 	c #89ECED",
"p 	c #21525D",
"q 	c #DBD7CE",
"r 	c #E0DDD7",
"s 	c #DAD6CC",
"t 	c #D3CDC0",
"u 	c #FFFFFF",
"v 	c #00FFFF",
"w 	c #E2E0DC",
"x 	c #D4CEC4",
"y 	c #D7D2C7",
"z 	c #D1CBBE",
"A 	c #D1CBBD",
"B 	c #292825",
"C 	c #76CAFF",
"D 	c #76CBFF",
"E 	c #CBC2B5",
"F 	c #2E2A24",
"G 	c #9FD9FF",
"H 	c #C9C0B4",
"I 	c #D3CCC1",
"J 	c #2C2A25",
"K 	c #DCD9D1",
"L 	c #D9D3C9",
"M 	c #77C9FF",
"N 	c #00718A",
"O 	c #BFFFFF",
"P 	c #DEDAD3",
"Q 	c #D2CCBF",
"R 	c #2F2B24",
"S 	c #2F2B23",
"T 	c #D4CEC3",
"U 	c #D4CFC4",
"V 	c #2D2A25",
"W 	c #302B23",
"X 	c #00A1C5",
"Y 	c #00E2FF",
"Z 	c #D9D4CA",
"` 	c #C4BBAC",
" .	c #D3CDC2",
"..	c #302B22",
"+.	c #00D4FF",
"@.	c #DFDCD6",
"#.	c #CBC4B9",
"$.	c #9CFFFF",
"%.	c #C9FFFF",
"&.	c #00A2C2",
"*.	c #00BBE7",
"=.	c #CFC7B9",
"-.	c #312B23",
";.	c #312B22",
">.	c #00B4E0",
",.	c #00CBFF",
"'.	c #DDDAD4",
").	c #CFC8BB",
"!.	c #CEC7BA",
"~.	c #D2CCC1",
"{.	c #453A31",
"].	c #453B32",
"^.	c #463A32",
"/.	c #00D2FF",
"(.	c #7D6A58",
"_.	c #7D6857",
":.	c #866F5B",
"<.	c #89725D",
"[.	c #B5A8A1",
"}.	c #AD9E93",
"|.	c #AF9B8A",
"1.	c #00A2C3",
"2.	c #332A23",
"3.	c #352A25",
"4.	c #372B26",
"5.	c #44362C",
"6.	c #DBD7D0",
"7.	c #B6AB9F",
"8.	c #CEC7B9",
"9.	c #00B3E0",
"0.	c #171615",
"a.	c #151413",
"b.	c #181716",
"c.	c #231F19",
"d.	c #C7C0B4",
"e.	c #C5BEB1",
"f.	c #00B3DE",
"g.	c #086A82",
"h.	c #111110",
"i.	c #10100F",
"j.	c #131212",
"k.	c #161514",
"l.	c #00B0E1",
"m.	c #8FE5FC",
"n.	c #22525F",
"o.	c #00A1C2",
"p.	c #121212",
"q.	c #C3BAAB",
"r.	c #D6D1C7",
"s.	c #086A7F",
"t.	c #121111",
"u.	c #D6D1C6",
"v.	c #205361",
"w.	c #111010",
"x.	c #111111",
"y.	c #D9D5CD",
"z.	c #DCD9D3",
"A.	c #121211",
"B.	c #1F1D18",
"C.	c #D9D5CC",
"D.	c #1F1D19",
"E.	c #1C1A17",
"F.	c #1E1C18",
"G.	c #201D19",
"H.	c #252018",
"I.	c #D5CFC5",
"J.	c #DDDBD5",
"K.	c #6CBED5",
"L.	c #27231A",
"M.	c #221F19",
"N.	c #242019",
"O.	c #D3CEC2",
"P.	c #D8D3CA",
"Q.	c #DAD7CF",
"R.	c #DDDAD3",
"S.	c #DDDAD5",
"T.	c #DEDBD6",
"U.	c #6CBED3",
"V.	c #342C23",
"W.	c #2B251C",
"X.	c #2A251C",
"Y.	c #D6D0C6",
"Z.	c #DCD8D2",
"`.	c #DEDCD7",
" +	c #2C271E",
".+	c #342E26",
"++	c #322C23",
"@+	c #D7D2C9",
"#+	c #D9D4CC",
"$+	c #DBD8D1",
"%+	c #DFDCD8",
"&+	c #2E2920",
"*+	c #D3CCC0",
"=+	c #DAD6CE",
"-+	c #DCD9D2",
";+	c #E0DEDA",
">+	c #2F2A24",
",+	c #28231A",
"'+	c #312A22",
")+	c #262117",
"!+	c #DAD6CF",
"~+	c #E0DEDB",
"{+	c #22535E",
"]+	c #262118",
"^+	c #CEC7B8",
"/+	c #DFDDD9",
"(+	c #E0DFDB",
"_+	c #E0DED9",
":+	c #DFDDD8",
"<+	c #DBD8D3",
"[+	c #A48C7D",
"}+	c #473D35",
"|+	c #242018",
"  . . . + +   + +   + + + @ # $ % & * = - ; > , ' ) ! * ~ { ] * ",
"    + + .               ^ ^ ^ ^ ^ / ^ ( _ : < [ } | = 1 2 ( 3 ~ ",
"4 5 5   5 4 5 5 5   ^ ^ 6 6 7 8 8 8 9 9 6 0 < a b c d e f ) = 3 ",
"g 4 5   5 4 4 4 4 ^ 8 8 6 7 7 8 8 8 6 9 9 6 h i j k l m : 3 n ~ ",
"4 4 5     5 5 o ^ 8 p 6 6 6 6 8 8 8 6 6 9 9 6 q r k < s q t 2 = ",
"5 5   @ +   + o 8 8 8 6 9 6 6 6 8 6 6 6 6 u v 6 r w } x y = z A ",
"B   + # @ @ o p 8 C C D 9 6 6 6 9 6 6 u u u v 6 6 0 c : E 1 * { ",
"  + # F F o o G G C C C 9 9 6 9 9 9 u u u u v v 6 6 q H I n ! * ",
"+ J J F F o o G G C C C 9 9 6 u u u u u u u 7 v v 6 K L ~ n & ! ",
"@ # F F 6 o G G G M C 9 N ^ ^ ^ u u u u u u 7 7 v O P } ( ~ t Q ",
"@ F R S 6 6 G G C M D 9 ^ ^ ^ ^ ^ ^ u u u u 7 7 7 O O } | Q T U ",
"V F W W 6 6 X G C 7 ^ ^ ^ ^ ^ ^ ^ ^ ^ u u u 7 Y 7 O O Z ` 3  .{ ",
"F W ....6 6 X 6 7 7 ^ ^ ^ ^ ^ ^ ^ ^ ^ ^ ^ ^ ^ 7 O O +.@.#.= Q { ",
"R W ..6 6 6 X X 7 ^ ^ $.$.$.%.^ ^ ^ ^ ^ $.^ &.Y O +.+.*.* =.( { ",
"W -.;.6 6 >.X X 7 ^ ^ $.$.$.%.%.^ ^ ^ ^ $.$.&.&.,.+.+.*.'.).!.~.",
"{.].^.6 6 >.>.X 7 ^ $.$.$.$.%.%.^ ^ ^ ^ $.$.$.&.,./.+.*.(._.:.<.",
"[.}.|.6 >.>.>.X 7 ^ $.$.$.$.$.%.^ ^ ^ ^ $.$.$.&.,.1.1.*.2.3.4.5.",
"6.7.8.6 9.>.>.X 7 ^ ^ $.$.$.$.%.^ ^ ^ ^ $.$.$.&.,.1.1.*.0.a.b.c.",
"d.t e.f.9.f.>.X g.^ ^ $.$.$.$.%.^ ^ ^ ^ $.$.$.&.,.1.1.1.h.i.j.k.",
"( ' 2 6 6 l.9.X g.g.^ ^ $.$.$.%.^ ^ ^ ^ $.$.m.n.1.1.o.1.i.i.i.p.",
"q.~ A r.6 6 m.m.g.s.^ ^ ^ $.$.%.^ ^ ^ ^ $.$.m.n.1.1.1.1.i.i.t.a.",
"2 ~ u.6.6 6 m.m.g.s.s.^ ^ ^ ^ %.^ ^ ^ ^ ^ ^ n.v.,.1.1.w.i.i.x.0.",
"=.Q y.z.^ 7 7 m.g.g.s.^ ^ ^ ^ $.%.^ ^ ^ ^ ^ n.,.,.,.1.k.A.A.0.B.",
"( ] C.z.'.7 7 7 n.g.s.^ ^ ^ $.$.%.^ ^ ^ ^ ^ n.,.,.Y c.D.E.F.G.H.",
" .I.y.'.J.Y 7 m.8 n.g.g.^ $.$.$.$.$.^ ^ ^ K.,.,.,.7 W L.M.M.H.N.",
"O.P.Q.R.S.T.m.m.8 n.g.g.,.,.^ ^ ^ ^ ^ K.K.U.8 8 Y W S ..V.W.X.M.",
"U Y.y.Z.z.z.`.8 8 8 n.g.g.,.,.g.^ ^ U.K.K.U.p Y W S S W  +.+++c.",
"* @+y.y.Q.J.'.8 8 8 n.8 g.,.,.s.g.8 U.U.U.U.7 7 R R R W W ..H.c.",
"Q { #+C.$+J.S.T.%+p p 8 8 ,.,.,.,.8 8 8 8 Y 7 F F F R W ..&+X.H.",
"3 *+y.=+-+J.J.-+'.;+8 8 8 n.n.,.,.,.,.Y 7 F F R >+>+R W ;.,+'+)+",
"| *+P.!+!+!+-+$+$+`.~+;+8 {+Y Y 7 Y 7 # # F F F R W W W ..]+]+X.",
"^+3 ! r.C.#+#+y.y.'./+(+_+:+<+[+}+V # # J J F F R W W ..&+|+|+M."};
