/* XPM */
static char * collectible6_xpm[] = {
"32 32 210 2",
"  	c #2A2825",
". 	c #2B2825",
"+ 	c #2B2925",
"@ 	c #2C2925",
"# 	c #2D2A24",
"$ 	c #4E3F36",
"% 	c #918073",
"& 	c #D2CCC0",
"* 	c #D3CDC1",
"= 	c #D0C9BB",
"- 	c #BEB5A6",
"; 	c #D2CBBD",
"> 	c #D8D3C8",
", 	c #C6BCAF",
"' 	c #CFC7B8",
") 	c #D0C9BA",
"! 	c #D4CEC2",
"~ 	c #D1CABC",
"{ 	c #D5CFC4",
"] 	c #D5D0C5",
"^ 	c #DF4A84",
"/ 	c #D6437B",
"( 	c #D1CABD",
"_ 	c #CABEB0",
": 	c #DAD5CB",
"< 	c #DEDBD4",
"[ 	c #E0DED8",
"} 	c #DCD8D0",
"| 	c #CFC8BA",
"1 	c #D0C9BC",
"2 	c #CFC8B9",
"3 	c #D2CBBE",
"4 	c #282724",
"5 	c #292724",
"6 	c #9F0000",
"7 	c #FF0052",
"8 	c #070000",
"9 	c #540000",
"0 	c #DDD9D2",
"a 	c #E1DFDA",
"b 	c #E3E1DD",
"c 	c #DDD9D1",
"d 	c #CEC5BA",
"e 	c #C9BEAE",
"f 	c #C9BDAE",
"g 	c #272624",
"h 	c #D7CDC2",
"i 	c #E0DDD8",
"j 	c #E2E0DB",
"k 	c #E5E4E1",
"l 	c #E1DED9",
"m 	c #DBD6CD",
"n 	c #D0C8BA",
"o 	c #D9398B",
"p 	c #DBD7CE",
"q 	c #E0DDD7",
"r 	c #DAD6CC",
"s 	c #D3CDC0",
"t 	c #E8C1D7",
"u 	c #FF007C",
"v 	c #E2E0DC",
"w 	c #D4CEC4",
"x 	c #D7D2C7",
"y 	c #D1CBBE",
"z 	c #D1CBBD",
"A 	c #292825",
"B 	c #D71538",
"C 	c #D9143A",
"D 	c #CBC2B5",
"E 	c #2E2A24",
"F 	c #D23E55",
"G 	c #C9C0B4",
"H 	c #D3CCC1",
"I 	c #2C2A25",
"J 	c #DCD9D1",
"K 	c #D9D3C9",
"L 	c #D81438",
"M 	c #560000",
"N 	c #580000",
"O 	c #FF66AD",
"P 	c #DEDAD3",
"Q 	c #D2CCBF",
"R 	c #2F2B24",
"S 	c #2F2B23",
"T 	c #D4CEC3",
"U 	c #D4CFC4",
"V 	c #2D2A25",
"W 	c #302B23",
"X 	c #B20017",
"Y 	c #D9D4CA",
"Z 	c #C4BBAC",
"` 	c #D3CDC2",
" .	c #302B22",
"..	c #EC004F",
"+.	c #DFDCD6",
"@.	c #CBC4B9",
"#.	c #F44D95",
"$.	c #EF6BA4",
"%.	c #AA001F",
"&.	c #D70035",
"*.	c #CFC7B9",
"=.	c #312B23",
"-.	c #312B22",
";.	c #D10029",
">.	c #FF0018",
",.	c #DDDAD4",
"'.	c #CFC8BB",
").	c #CEC7BA",
"!.	c #D2CCC1",
"~.	c #453A31",
"{.	c #453B32",
"].	c #463A32",
"^.	c #EB004D",
"/.	c #7D6A58",
"(.	c #7D6857",
"_.	c #866F5B",
":.	c #89725D",
"<.	c #B5A8A1",
"[.	c #AD9E93",
"}.	c #AF9B8A",
"|.	c #332A23",
"1.	c #352A25",
"2.	c #372B26",
"3.	c #44362C",
"4.	c #DBD7D0",
"5.	c #B6AB9F",
"6.	c #CEC7B9",
"7.	c #D00027",
"8.	c #171615",
"9.	c #151413",
"0.	c #181716",
"a.	c #231F19",
"b.	c #C7C0B4",
"c.	c #C5BEB1",
"d.	c #D00029",
"e.	c #460000",
"f.	c #111110",
"g.	c #10100F",
"h.	c #131212",
"i.	c #161514",
"j.	c #D50020",
"k.	c #D93874",
"l.	c #A8001F",
"m.	c #121212",
"n.	c #C3BAAB",
"o.	c #D6D1C7",
"p.	c #450000",
"q.	c #121111",
"r.	c #D6D1C6",
"s.	c #0A0000",
"t.	c #111010",
"u.	c #111111",
"v.	c #D9D5CD",
"w.	c #DCD9D3",
"x.	c #121211",
"y.	c #1F1D18",
"z.	c #D9D5CC",
"A.	c #1F1D19",
"B.	c #1C1A17",
"C.	c #1E1C18",
"D.	c #201D19",
"E.	c #252018",
"F.	c #D5CFC5",
"G.	c #DDDBD5",
"H.	c #B3134B",
"I.	c #27231A",
"J.	c #221F19",
"K.	c #242019",
"L.	c #D3CEC2",
"M.	c #D8D3CA",
"N.	c #DAD7CF",
"O.	c #DDDAD3",
"P.	c #DDDAD5",
"Q.	c #DEDBD6",
"R.	c #B2134C",
"S.	c #342C23",
"T.	c #2B251C",
"U.	c #2A251C",
"V.	c #D6D0C6",
"W.	c #DCD8D2",
"X.	c #DEDCD7",
"Y.	c #7F262E",
"Z.	c #2C271E",
"`.	c #342E26",
" +	c #322C23",
".+	c #D7D2C9",
"++	c #D9D4CC",
"@+	c #DBD8D1",
"#+	c #DFDCD8",
"$+	c #2E2920",
"%+	c #D3CCC0",
"&+	c #DAD6CE",
"*+	c #DCD9D2",
"=+	c #E0DEDA",
"-+	c #2F2A24",
";+	c #28231A",
">+	c #312A22",
",+	c #262117",
"'+	c #DAD6CF",
")+	c #E0DEDB",
"!+	c #262118",
"~+	c #CEC7B8",
"{+	c #DFDDD9",
"]+	c #E0DFDB",
"^+	c #E0DED9",
"/+	c #DFDDD8",
"(+	c #DBD8D3",
"_+	c #A48C7D",
":+	c #473D35",
"<+	c #242018",
"  . . . + +   + +   + + + @ # $ % & * = - ; > , ' ) ! * ~ { ] * ",
"    + + .               ^ ^ ^ ^ ^ / ^ ( _ : < [ } | = 1 2 ( 3 ~ ",
"4 5 5   5 4 5 5 5   ^ ^ 6 6 7 8 8 8 9 9 6 0 < a b c d e f ) = 3 ",
"g 4 5   5 4 4 4 4 ^ 8 8 6 7 7 8 8 8 6 9 9 6 h i j k l m : 3 n ~ ",
"4 4 5     5 5 o ^ 8 8 6 6 6 6 8 8 8 6 6 9 9 6 p q k < r p s 2 = ",
"5 5   @ +   + o 8 8 8 6 9 6 6 6 8 6 6 6 6 t u 6 q v } w x = y z ",
"A   + # @ @ o 8 8 B B C 9 6 6 6 9 6 6 t t t u 6 6 0 c : D 1 * { ",
"  + # E E o o F F B B B 9 9 6 9 9 9 t t t t u u 6 6 p G H n ! * ",
"+ I I E E o o F F B B B 9 9 6 t t t t t t t 7 u u 6 J K ~ n & ! ",
"@ # E E 6 o F F F L B M N ^ ^ ^ t t t t t t 7 7 u O P } ( ~ s Q ",
"@ E R S 6 6 F F B L C M ^ ^ ^ ^ ^ ^ t t t t 7 7 7 O O } | Q T U ",
"V E W W 6 6 X F B 7 ^ ^ ^ ^ ^ ^ ^ ^ ^ t t t 7 7 7 O O Y Z 3 ` { ",
"E W  . .6 6 X 6 7 7 ^ ^ ^ ^ ^ ^ ^ ^ ^ ^ ^ ^ ^ 7 O O ..+.@.= Q { ",
"R W  .6 6 6 X X 7 ^ ^ #.#.#.$.^ ^ ^ ^ ^ #.^ %.7 O ....&.* *.( { ",
"W =.-.6 6 ;.X X 7 ^ ^ #.#.#.$.$.^ ^ ^ ^ #.#.%.%.>.....&.,.'.).!.",
"~.{.].6 6 ;.;.X 7 ^ #.#.#.#.$.$.^ ^ ^ ^ #.#.#.%.>.^...&./.(._.:.",
"<.[.}.6 ;.;.;.X 7 ^ #.#.#.#.#.$.^ ^ ^ ^ #.#.#.%.>.%.%.&.|.1.2.3.",
"4.5.6.6 7.;.;.X 7 ^ ^ #.#.#.#.$.^ ^ ^ ^ #.#.#.%.>.%.%.&.8.9.0.a.",
"b.s c.d.7.d.;.X e.^ ^ #.#.#.#.$.^ ^ ^ ^ #.#.#.%.>.%.%.%.f.g.h.i.",
"( ' 2 6 6 j.7.X e.e.^ ^ #.#.#.$.^ ^ ^ ^ #.#.k.8 %.%.l.%.g.g.g.m.",
"n.~ z o.6 6 k.k.e.p.^ ^ ^ #.#.$.^ ^ ^ ^ #.#.k.8 %.%.%.%.g.g.q.9.",
"2 ~ r.4.6 6 k.k.e.p.p.^ ^ ^ ^ $.^ ^ ^ ^ ^ ^ 8 s.>.%.%.t.g.g.u.8.",
"*.Q v.w.^ 7 7 k.e.e.p.^ ^ ^ ^ #.$.^ ^ ^ ^ ^ 8 >.>.>.%.i.x.x.8.y.",
"( ] z.w.,.7 7 7 8 e.p.^ ^ ^ #.#.$.^ ^ ^ ^ ^ 8 >.>.7 a.A.B.C.D.E.",
"` F.v.,.G.7 7 k.8 8 e.e.^ #.#.#.#.#.^ ^ ^ H.>.>.>.7 W I.J.J.E.K.",
"L.M.N.O.P.Q.k.k.8 8 e.e.>.>.^ ^ ^ ^ ^ H.H.R.8 8 7 W S  .S.T.U.J.",
"U V.v.W.w.w.X.8 8 8 8 e.e.>.>.e.^ ^ R.H.H.R.8 7 Y.S S W Z.`. +a.",
"* .+v.v.N.G.,.8 8 8 8 8 e.>.>.p.e.8 R.R.R.R.7 7 R R R W W  .E.a.",
"Q { ++z.@+G.P.Q.#+8 8 8 8 >.>.>.>.8 8 8 8 7 7 E E E R W  .$+U.E.",
"3 %+v.&+*+G.G.*+,.=+8 8 8 8 8 >.>.>.>.7 7 E E R -+-+R W -.;+>+,+",
"| %+M.'+'+'+*+@+@+X.)+=+8 s.7 7 7 7 7 # # E E E R W W W  .!+!+U.",
"~+3 ! o.z.++++v.v.,.{+]+^+/+(+_+:+V # # I I E E R W W  .$+<+<+J."};
