/* XPM */
static char * collectible5_xpm[] = {
"32 32 212 2",
"  	c #2A2825",
". 	c #2B2825",
"+ 	c #2B2925",
"@ 	c #2C2925",
"# 	c #2D2A24",
"$ 	c #4E3F36",
"% 	c #918073",
"& 	c #D2CCC0",
"* 	c #D3CDC1",
"= 	c #D0C9BB",
"- 	c #BEB5A6",
"; 	c #D2CBBD",
"> 	c #D8D3C8",
", 	c #C6BCAF",
"' 	c #CFC7B8",
") 	c #D0C9BA",
"! 	c #D4CEC2",
"~ 	c #D1CABC",
"{ 	c #D5CFC4",
"] 	c #D5D0C5",
"^ 	c #BE58D0",
"/ 	c #B64FC8",
"( 	c #D1CABD",
"_ 	c #CABEB0",
": 	c #DAD5CB",
"< 	c #DEDBD4",
"[ 	c #E0DED8",
"} 	c #DCD8D0",
"| 	c #CFC8BA",
"1 	c #D0C9BC",
"2 	c #CFC8B9",
"3 	c #D2CBBE",
"4 	c #282724",
"5 	c #292724",
"6 	c #58009A",
"7 	c #BC00FF",
"8 	c #04000C",
"9 	c #2C0056",
"0 	c #DDD9D2",
"a 	c #E1DFDA",
"b 	c #E3E1DD",
"c 	c #DDD9D1",
"d 	c #CEC5BA",
"e 	c #C9BEAE",
"f 	c #C9BDAE",
"g 	c #272624",
"h 	c #D7CDC2",
"i 	c #E0DDD8",
"j 	c #E2E0DB",
"k 	c #E5E4E1",
"l 	c #E1DED9",
"m 	c #DBD6CD",
"n 	c #D0C8BA",
"o 	c #A750D1",
"p 	c #DBD7CE",
"q 	c #E0DDD7",
"r 	c #DAD6CC",
"s 	c #D3CDC0",
"t 	c #E6CADD",
"u 	c #D119FF",
"v 	c #E2E0DC",
"w 	c #D4CEC4",
"x 	c #D7D2C7",
"y 	c #D1CBBE",
"z 	c #D1CBBD",
"A 	c #292825",
"B 	c #BB16C1",
"C 	c #BA16C2",
"D 	c #CBC2B5",
"E 	c #2E2A24",
"F 	c #C13CBA",
"G 	c #C9C0B4",
"H 	c #D3CCC1",
"I 	c #2C2A25",
"J 	c #DCD9D1",
"K 	c #D9D3C9",
"L 	c #BC14C2",
"M 	c #2D0057",
"N 	c #2D005A",
"O 	c #E275FB",
"P 	c #DEDAD3",
"Q 	c #D2CCBF",
"R 	c #2F2B24",
"S 	c #2F2B23",
"T 	c #D4CEC3",
"U 	c #D4CFC4",
"V 	c #2D2A25",
"W 	c #302B23",
"X 	c #6A00AF",
"Y 	c #BD00FF",
"Z 	c #D9D4CA",
"` 	c #C4BBAC",
" .	c #D3CDC2",
"..	c #302B22",
"+.	c #A900E8",
"@.	c #DFDCD6",
"#.	c #CBC4B9",
"$.	c #D05CEC",
"%.	c #D677E5",
"&.	c #6B00A1",
"*.	c #8D00D2",
"=.	c #CFC7B9",
"-.	c #312B23",
";.	c #312B22",
">.	c #8500CD",
",.	c #C500FA",
"'.	c #DDDAD4",
").	c #CFC8BB",
"!.	c #CEC7BA",
"~.	c #D2CCC1",
"{.	c #453A31",
"].	c #453B32",
"^.	c #463A32",
"/.	c #A800E5",
"(.	c #7D6A58",
"_.	c #7D6857",
":.	c #866F5B",
"<.	c #89725D",
"[.	c #B5A8A1",
"}.	c #AD9E93",
"|.	c #AF9B8A",
"1.	c #6B00A2",
"2.	c #332A23",
"3.	c #352A25",
"4.	c #372B26",
"5.	c #44362C",
"6.	c #DBD7D0",
"7.	c #B6AB9F",
"8.	c #CEC7B9",
"9.	c #8500CB",
"0.	c #171615",
"a.	c #151413",
"b.	c #181716",
"c.	c #231F19",
"d.	c #C7C0B4",
"e.	c #C5BEB1",
"f.	c #8200CC",
"g.	c #240047",
"h.	c #111110",
"i.	c #10100F",
"j.	c #131212",
"k.	c #161514",
"l.	c #8400D2",
"m.	c #B548CC",
"n.	c #6A00A1",
"o.	c #121212",
"p.	c #C3BAAB",
"q.	c #D6D1C7",
"r.	c #220045",
"s.	c #121111",
"t.	c #D6D1C6",
"u.	c #06000D",
"v.	c #111010",
"w.	c #111111",
"x.	c #D9D5CD",
"y.	c #DCD9D3",
"z.	c #121211",
"A.	c #1F1D18",
"B.	c #D9D5CC",
"C.	c #1F1D19",
"D.	c #1C1A17",
"E.	c #1E1C18",
"F.	c #201D19",
"G.	c #252018",
"H.	c #D5CFC5",
"I.	c #DDDBD5",
"J.	c #8B26A5",
"K.	c #27231A",
"L.	c #221F19",
"M.	c #242019",
"N.	c #D3CEC2",
"O.	c #D8D3CA",
"P.	c #DAD7CF",
"Q.	c #DDDAD3",
"R.	c #DDDAD5",
"S.	c #DEDBD6",
"T.	c #8926A5",
"U.	c #342C23",
"V.	c #2B251C",
"W.	c #2A251C",
"X.	c #D6D0C6",
"Y.	c #DCD8D2",
"Z.	c #DEDCD7",
"`.	c #62267C",
" +	c #2C271E",
".+	c #342E26",
"++	c #322C23",
"@+	c #D7D2C9",
"#+	c #D9D4CC",
"$+	c #DBD8D1",
"%+	c #DFDCD8",
"&+	c #2E2920",
"*+	c #D3CCC0",
"=+	c #DAD6CE",
"-+	c #DCD9D2",
";+	c #E0DEDA",
">+	c #2F2A24",
",+	c #28231A",
"'+	c #312A22",
")+	c #262117",
"!+	c #DAD6CF",
"~+	c #E0DEDB",
"{+	c #262118",
"]+	c #CEC7B8",
"^+	c #DFDDD9",
"/+	c #E0DFDB",
"(+	c #E0DED9",
"_+	c #DFDDD8",
":+	c #DBD8D3",
"<+	c #A48C7D",
"[+	c #473D35",
"}+	c #242018",
"  . . . + +   + +   + + + @ # $ % & * = - ; > , ' ) ! * ~ { ] * ",
"    + + .               ^ ^ ^ ^ ^ / ^ ( _ : < [ } | = 1 2 ( 3 ~ ",
"4 5 5   5 4 5 5 5   ^ ^ 6 6 7 8 8 8 9 9 6 0 < a b c d e f ) = 3 ",
"g 4 5   5 4 4 4 4 ^ 8 8 6 7 7 8 8 8 6 9 9 6 h i j k l m : 3 n ~ ",
"4 4 5     5 5 o ^ 8 8 6 6 6 6 8 8 8 6 6 9 9 6 p q k < r p s 2 = ",
"5 5   @ +   + o 8 8 8 6 9 6 6 6 8 6 6 6 6 t u 6 q v } w x = y z ",
"A   + # @ @ o 8 8 B B C 9 6 6 6 9 6 6 t t t u 6 6 0 c : D 1 * { ",
"  + # E E o o F F B B B 9 9 6 9 9 9 t t t t u u 6 6 p G H n ! * ",
"+ I I E E o o F F B B B 9 9 6 t t t t t t t 7 u u 6 J K ~ n & ! ",
"@ # E E 6 o F F F L B M N ^ ^ ^ t t t t t t 7 7 u O P } ( ~ s Q ",
"@ E R S 6 6 F F B L C M ^ ^ ^ ^ ^ ^ t t t t 7 7 7 O O } | Q T U ",
"V E W W 6 6 X F B 7 ^ ^ ^ ^ ^ ^ ^ ^ ^ t t t 7 Y 7 O O Z ` 3  .{ ",
"E W ....6 6 X 6 7 7 ^ ^ ^ ^ ^ ^ ^ ^ ^ ^ ^ ^ ^ 7 O O +.@.#.= Q { ",
"R W ..6 6 6 X X 7 ^ ^ $.$.$.%.^ ^ ^ ^ ^ $.^ &.Y O +.+.*.* =.( { ",
"W -.;.6 6 >.X X 7 ^ ^ $.$.$.%.%.^ ^ ^ ^ $.$.&.&.,.+.+.*.'.).!.~.",
"{.].^.6 6 >.>.X 7 ^ $.$.$.$.%.%.^ ^ ^ ^ $.$.$.&.,./.+.*.(._.:.<.",
"[.}.|.6 >.>.>.X 7 ^ $.$.$.$.$.%.^ ^ ^ ^ $.$.$.&.,.1.1.*.2.3.4.5.",
"6.7.8.6 9.>.>.X 7 ^ ^ $.$.$.$.%.^ ^ ^ ^ $.$.$.&.,.1.1.*.0.a.b.c.",
"d.s e.f.9.f.>.X g.^ ^ $.$.$.$.%.^ ^ ^ ^ $.$.$.&.,.1.1.1.h.i.j.k.",
"( ' 2 6 6 l.9.X g.g.^ ^ $.$.$.%.^ ^ ^ ^ $.$.m.8 1.1.n.1.i.i.i.o.",
"p.~ z q.6 6 m.m.g.r.^ ^ ^ $.$.%.^ ^ ^ ^ $.$.m.8 1.1.1.1.i.i.s.a.",
"2 ~ t.6.6 6 m.m.g.r.r.^ ^ ^ ^ %.^ ^ ^ ^ ^ ^ 8 u.,.1.1.v.i.i.w.0.",
"=.Q x.y.^ 7 7 m.g.g.r.^ ^ ^ ^ $.%.^ ^ ^ ^ ^ 8 ,.,.,.1.k.z.z.0.A.",
"( ] B.y.'.7 7 7 8 g.r.^ ^ ^ $.$.%.^ ^ ^ ^ ^ 8 ,.,.Y c.C.D.E.F.G.",
" .H.x.'.I.Y 7 m.8 8 g.g.^ $.$.$.$.$.^ ^ ^ J.,.,.,.7 W K.L.L.G.M.",
"N.O.P.Q.R.S.m.m.8 8 g.g.,.,.^ ^ ^ ^ ^ J.J.T.8 8 Y W S ..U.V.W.L.",
"U X.x.Y.y.y.Z.8 8 8 8 g.g.,.,.g.^ ^ T.J.J.T.8 Y `.S S W  +.+++c.",
"* @+x.x.P.I.'.8 8 8 8 8 g.,.,.r.g.8 T.T.T.T.7 7 R R R W W ..G.c.",
"Q { #+B.$+I.R.S.%+8 8 8 8 ,.,.,.,.8 8 8 8 Y 7 E E E R W ..&+W.G.",
"3 *+x.=+-+I.I.-+'.;+8 8 8 8 8 ,.,.,.,.Y 7 E E R >+>+R W ;.,+'+)+",
"| *+O.!+!+!+-+$+$+Z.~+;+8 u.Y Y 7 Y 7 # # E E E R W W W ..{+{+W.",
"]+3 ! q.B.#+#+x.x.'.^+/+(+_+:+<+[+V # # I I E E R W W ..&+}+}+L."};
