/* XPM */
static char * door_close_xpm[] = {
"32 32 510 2",
"  	c #2A2825",
". 	c #2B2825",
"+ 	c #2B2925",
"@ 	c #2C2925",
"# 	c #2D2A24",
"$ 	c #4E3F36",
"% 	c #918073",
"& 	c #D2CCC0",
"* 	c #D3CDC1",
"= 	c #D0C9BB",
"- 	c #BEB5A6",
"; 	c #D2CBBD",
"> 	c #D8D3C8",
", 	c #C6BCAF",
"' 	c #CFC7B8",
") 	c #D0C9BA",
"! 	c #D4CEC2",
"~ 	c #D1CABC",
"{ 	c #D5CFC4",
"] 	c #D5D0C5",
"^ 	c #25231F",
"/ 	c #9BA298",
"( 	c #93998F",
"_ 	c #989F95",
": 	c #676C67",
"< 	c #D1CABD",
"[ 	c #CABEB0",
"} 	c #DAD5CB",
"| 	c #DEDBD4",
"1 	c #E0DED8",
"2 	c #DCD8D0",
"3 	c #CFC8BA",
"4 	c #D0C9BC",
"5 	c #CFC8B9",
"6 	c #D2CBBE",
"7 	c #282724",
"8 	c #292724",
"9 	c #3C4240",
"0 	c #7B7E76",
"a 	c #7B7D71",
"b 	c #84887E",
"c 	c #656861",
"d 	c #60665E",
"e 	c #D7D2C7",
"f 	c #DDD9D2",
"g 	c #E1DFDA",
"h 	c #E3E1DD",
"i 	c #DDD9D1",
"j 	c #CEC5BA",
"k 	c #C9BEAE",
"l 	c #C9BDAE",
"m 	c #272624",
"n 	c #292825",
"o 	c #767C72",
"p 	c #7E7F72",
"q 	c #82867C",
"r 	c #6D7069",
"s 	c #3D4341",
"t 	c #D7CDC2",
"u 	c #E0DDD8",
"v 	c #E2E0DB",
"w 	c #E5E4E1",
"x 	c #E1DED9",
"y 	c #DBD6CD",
"z 	c #D0C8BA",
"A 	c #4E534E",
"B 	c #292824",
"C 	c #23221F",
"D 	c #848A81",
"E 	c #6C7167",
"F 	c #6F7269",
"G 	c #696C64",
"H 	c #7D8076",
"I 	c #424845",
"J 	c #959C92",
"K 	c #565B54",
"L 	c #CBBFAF",
"M 	c #C4B8AA",
"N 	c #404441",
"O 	c #E0DDD7",
"P 	c #DAD6CC",
"Q 	c #DBD7CE",
"R 	c #D3CDC0",
"S 	c #636861",
"T 	c #797D73",
"U 	c #898F86",
"V 	c #757B72",
"W 	c #6D736B",
"X 	c #7C7F75",
"Y 	c #787C72",
"Z 	c #80837A",
"` 	c #80867F",
" .	c #6F746C",
"..	c #6B7068",
"+.	c #8B9188",
"@.	c #85887C",
"#.	c #828479",
"$.	c #424643",
"%.	c #E2E0DC",
"&.	c #D4CEC4",
"*.	c #D1CBBE",
"=.	c #D1CBBD",
"-.	c #3D413F",
";.	c #71776D",
">.	c #7B8178",
",.	c #525852",
"'.	c #6E7269",
").	c #4E524E",
"!.	c #5B605B",
"~.	c #73786F",
"{.	c #474B48",
"].	c #888E85",
"^.	c #818479",
"/.	c #CBC2B5",
"(.	c #2E2A24",
"_.	c #2D2A25",
":.	c #6E746B",
"<.	c #40221A",
"[.	c #824C2D",
"}.	c #975733",
"|.	c #A15C38",
"1.	c #A8603B",
"2.	c #BE6B49",
"3.	c #AB633C",
"4.	c #A45E3A",
"5.	c #844E2F",
"6.	c #3E3129",
"7.	c #888B7F",
"8.	c #808276",
"9.	c #C9C0B4",
"0.	c #D3CCC1",
"a.	c #2C2A25",
"b.	c #858A80",
"c.	c #50544F",
"d.	c #6A6F66",
"e.	c #492A1A",
"f.	c #6E4123",
"g.	c #B97040",
"h.	c #B16A3E",
"i.	c #C17544",
"j.	c #C67948",
"k.	c #DB8555",
"l.	c #C97C48",
"m.	c #BC7242",
"n.	c #B96D42",
"o.	c #C2714A",
"p.	c #512F1C",
"q.	c #6D7269",
"r.	c #414542",
"s.	c #80847A",
"t.	c #BFBAB1",
"u.	c #DCD9D1",
"v.	c #D9D3C9",
"w.	c #878D83",
"x.	c #75776B",
"y.	c #82857D",
"z.	c #482919",
"A.	c #A56039",
"B.	c #784725",
"C.	c #CD7D4A",
"D.	c #C97E47",
"E.	c #D3844D",
"F.	c #D0844A",
"G.	c #E38F58",
"H.	c #D7884E",
"I.	c #D1844A",
"J.	c #CF814C",
"K.	c #D98652",
"L.	c #B36C3E",
"M.	c #502E1C",
"N.	c #797C70",
"O.	c #DEDAD3",
"P.	c #D2CCBF",
"Q.	c #2F2B24",
"R.	c #2F2B23",
"S.	c #9C5B34",
"T.	c #7B4A26",
"U.	c #D6874E",
"V.	c #CE8348",
"W.	c #DA8D4E",
"X.	c #D2864A",
"Y.	c #E59158",
"Z.	c #DB904E",
"`.	c #D08549",
" +	c #D4884B",
".+	c #E28E57",
"++	c #BF7543",
"@+	c #B26B3F",
"#+	c #787B6F",
"$+	c #D4CEC3",
"%+	c #D4CFC4",
"&+	c #302B23",
"*+	c #4F544E",
"=+	c #683C23",
"-+	c #AA6639",
";+	c #C97D47",
">+	c #774824",
",+	c #D9894F",
"'+	c #DA8A4F",
")+	c #D3854C",
"!+	c #DD934E",
"~+	c #D6884E",
"{+	c #D3864C",
"]+	c #D78A4E",
"^+	c #D38F48",
"/+	c #CB7F48",
"(+	c #BA7141",
"_+	c #7B482A",
":+	c #595F59",
"<+	c #D9D4CA",
"[+	c #C4BBAC",
"}+	c #D3CDC2",
"|+	c #302B22",
"1+	c #A76835",
"2+	c #CF8249",
"3+	c #925A2A",
"4+	c #D8884F",
"5+	c #E38E58",
"6+	c #D4864C",
"7+	c #D1844B",
"8+	c #DD914E",
"9+	c #CE8249",
"0+	c #D98D4E",
"a+	c #D59348",
"b+	c #C37A43",
"c+	c #B76E3F",
"d+	c #DFDCD6",
"e+	c #CBC4B9",
"f+	c #464A48",
"g+	c #BB7242",
"h+	c #D2844C",
"i+	c #D7894E",
"j+	c #935B2A",
"k+	c #DB8F4D",
"l+	c #DB8F4E",
"m+	c #CE8349",
"n+	c #E28C57",
"o+	c #D1844C",
"p+	c #D98A4F",
"q+	c #DA8E4F",
"r+	c #DA9B4C",
"s+	c #CF844A",
"t+	c #CB8048",
"u+	c #CFC7B9",
"v+	c #312B23",
"w+	c #312B22",
"x+	c #73776E",
"y+	c #6F746D",
"z+	c #CD7F48",
"A+	c #D0804A",
"B+	c #DA8A50",
"C+	c #E49057",
"D+	c #D98C4E",
"E+	c #D3864D",
"F+	c #D5884D",
"G+	c #E08C55",
"H+	c #D5874D",
"I+	c #DE934E",
"J+	c #DB8F50",
"K+	c #E5A156",
"L+	c #CC8148",
"M+	c #7E8177",
"N+	c #878A81",
"O+	c #CFC8BB",
"P+	c #CEC7BA",
"Q+	c #D2CCC1",
"R+	c #453A31",
"S+	c #453B32",
"T+	c #463A32",
"U+	c #81847A",
"V+	c #CB7F47",
"W+	c #D1834A",
"X+	c #D4874B",
"Y+	c #E38F57",
"Z+	c #D3864B",
"`+	c #D2854B",
" @	c #DC924D",
".@	c #E18F54",
"+@	c #EBAC55",
"@@	c #7D6857",
"#@	c #866F5B",
"$@	c #89725D",
"%@	c #B5A8A1",
"&@	c #AD9E93",
"*@	c #AF9B8A",
"=@	c #C87C45",
"-@	c #CE8048",
";@	c #D3844B",
">@	c #E28D57",
",@	c #D0834A",
"'@	c #D3844C",
")@	c #DB904C",
"!@	c #EBAA55",
"~@	c #352A25",
"{@	c #372B26",
"]@	c #44362C",
"^@	c #DBD7D0",
"/@	c #B6AB9F",
"(@	c #CEC7B9",
"_@	c #D0814A",
":@	c #D1824A",
"<@	c #DA8E4C",
"[@	c #D5854D",
"}@	c #E08A56",
"|@	c #EAA255",
"1@	c #151413",
"2@	c #181716",
"3@	c #231F19",
"4@	c #C7C0B4",
"5@	c #C5BEB1",
"6@	c #D5D0C6",
"7@	c #CD8148",
"8@	c #7A4A22",
"9@	c #D88B4B",
"0@	c #DE8556",
"a@	c #CF8149",
"b@	c #CF804A",
"c@	c #D18149",
"d@	c #E69F54",
"e@	c #CA7C47",
"f@	c #CE7E48",
"g@	c #CD7E47",
"h@	c #666962",
"i@	c #111110",
"j@	c #10100F",
"k@	c #131212",
"l@	c #161514",
"m@	c #D7D3C9",
"n@	c #D48748",
"o@	c #CE8149",
"p@	c #D08249",
"q@	c #D6864E",
"r@	c #D98052",
"s@	c #CE7F48",
"t@	c #E9A454",
"u@	c #C77844",
"v@	c #C67744",
"w@	c #C97946",
"x@	c #101010",
"y@	c #121212",
"z@	c #C3BAAB",
"A@	c #D6D1C7",
"B@	c #DAD6CE",
"C@	c #D5834D",
"D@	c #CC7F47",
"E@	c #D88052",
"F@	c #CF8049",
"G@	c #CC7D46",
"H@	c #DA904E",
"I@	c #E8A553",
"J@	c #5E3819",
"K@	c #747474",
"L@	c #A05C33",
"M@	c #62655F",
"N@	c #121111",
"O@	c #D6D1C6",
"P@	c #DBD8D0",
"Q@	c #CC7F46",
"R@	c #794A21",
"S@	c #D6874C",
"T@	c #CD7F46",
"U@	c #4A4947",
"V@	c #A0A0A0",
"W@	c #111010",
"X@	c #111111",
"Y@	c #171615",
"Z@	c #D9D5CD",
"`@	c #363B3A",
" #	c #75796E",
".#	c #CC7F48",
"+#	c #C77C44",
"@#	c #CD8047",
"##	c #EAA954",
"$#	c #707368",
"%#	c #3A403E",
"&#	c #121211",
"*#	c #1F1D18",
"=#	c #D9D5CC",
"-#	c #CA7B47",
";#	c #C07343",
">#	c #CF7F49",
",#	c #C87B45",
"'#	c #CE7E49",
")#	c #E8A652",
"!#	c #2F2E2C",
"~#	c #EAEAEA",
"{#	c #1E1C18",
"]#	c #201D19",
"^#	c #252018",
"/#	c #D5CFC5",
"(#	c #C77747",
"_#	c #BD6D41",
":#	c #B6693E",
"<#	c #4D2D13",
"[#	c #D67D52",
"}#	c #C47543",
"|#	c #C57643",
"1#	c #C67743",
"2#	c #DA8252",
"3#	c #C27543",
"4#	c #BD7240",
"5#	c #E0994C",
"6#	c #C57845",
"7#	c #C37743",
"8#	c #C87945",
"9#	c #221F19",
"0#	c #242019",
"a#	c #D3CEC2",
"b#	c #D8D3CA",
"c#	c #DAD7CF",
"d#	c #C07141",
"e#	c #AC5F3B",
"f#	c #5A3617",
"g#	c #CC714E",
"h#	c #B5683D",
"i#	c #B96A3F",
"j#	c #BA6B3F",
"k#	c #C77843",
"l#	c #AA6436",
"m#	c #B3673C",
"n#	c #D38549",
"o#	c #B0633B",
"p#	c #9B5632",
"q#	c #9B5733",
"r#	c #2B251C",
"s#	c #2A251C",
"t#	c #D6D0C6",
"u#	c #DCD8D2",
"v#	c #DCD9D3",
"w#	c #9F5534",
"x#	c #A05634",
"y#	c #4F2E12",
"z#	c #C4684B",
"A#	c #A75B37",
"B#	c #A95C38",
"C#	c #AA5D38",
"D#	c #BA6D3D",
"E#	c #98552F",
"F#	c #A45A37",
"G#	c #A85B38",
"H#	c #C47840",
"I#	c #914E2F",
"J#	c #85482A",
"K#	c #83462A",
"L#	c #2C271E",
"M#	c #342E26",
"N#	c #322C23",
"O#	c #D7D2C9",
"P#	c #8E492F",
"Q#	c #924C30",
"R#	c #492B11",
"S#	c #B55D45",
"T#	c #954E31",
"U#	c #A15337",
"V#	c #A15437",
"W#	c #A85E37",
"X#	c #89492B",
"Y#	c #964F31",
"Z#	c #A65D36",
"`#	c #783E26",
" $	c #804627",
".$	c #7D4028",
"+$	c #D9D4CC",
"@$	c #DBD8D1",
"#$	c #7A7E72",
"$$	c #81422B",
"%$	c #432710",
"&$	c #A65340",
"*$	c #87462D",
"=$	c #9A5432",
"-$	c #924A33",
";$	c #A75340",
">$	c #7C4128",
",$	c #8A472F",
"'$	c #9B5532",
")$	c #753D25",
"!$	c #773E25",
"~$	c #733D23",
"{$	c #2E2920",
"]$	c #D3CCC0",
"^$	c #DCD9D2",
"/$	c #743B27",
"($	c #6E3923",
"_$	c #3D220F",
":$	c #994A3A",
"<$	c #7A3E29",
"[$	c #8A4A2D",
"}$	c #84422E",
"|$	c #6C3822",
"1$	c #713A25",
"2$	c #683720",
"3$	c #28231A",
"4$	c #312A22",
"5$	c #262117",
"6$	c #DAD6CF",
"7$	c #DEDCD7",
"8$	c #E0DEDB",
"9$	c #E0DEDA",
"0$	c #DFDDD9",
"a$	c #DBD8D3",
"b$	c #A38B7B",
"c$	c #473D35",
"d$	c #262118",
"e$	c #CEC7B8",
"f$	c #DDDAD4",
"g$	c #E0DFDB",
"h$	c #E0DED9",
"i$	c #DFDDD8",
"j$	c #A48C7D",
"k$	c #242018",
"  . . . + +   + +   + + + @ # $ % & * = - ; > , ' ) ! * ~ { ] * ",
"    + + .                 ^ / ( _ / : < [ } | 1 2 3 = 4 5 < 6 ~ ",
"7 8 8   8 7 8 8 8         9 0 a b c d ~ e f | g h i j k l ) = 6 ",
"m 7 8   8 7 7 7 7 8 n   + + o p q r s 4 ~ ; t u v w x y } 6 z ~ ",
"7 7 8     8 8 8 A 8 B C D E F G H H I J K L M N O w | P Q R 5 = ",
"8 8   @ +   + S T S U V W V X Y Z Y `  ...+.@.#.$.%.2 &.e = *.=.",
"n   + # @ @ -.;.>.>.,.o o '.).!.!.!.D o ~.{.].@.^.f i } /.4 * { ",
"  + # (.(._.@ -.;.:.o <.[.}.|.1.2.3.4.5.6.7.8.^.-.2 Q 9.0.z ! * ",
"+ a.a.(.(.(.(.b.c.d.e.f.g.h.i.j.k.l.m.n.o.p.q.r.s.t.u.v.~ z & ! ",
"@ # (.(.(.(.w.x.y.z.A.B.C.D.E.F.G.H.I.J.K.L.M.N.s.x.O.2 < ~ R P.",
"@ (.Q.R.Q.(.q.Y q.S.L.T.U.V.W.X.Y.Z.`. +.+++@+#+x.q.O 2 3 P.$+%+",
"_.(.&+&+&+*+'.!.=+-+;+>+,+,+'+)+!+~+{+]+^+/+(+_+:+'.-.<+[+6 }+{ ",
"(.&+|+|+&+x.'.'.1+i.2+3+4+5+6+7+8+6+9+0+a+9+b+c+'.'.x.d+e+= P.{ ",
"Q.&+|+&+&+f+-.f+g+h+i+j+k+l+m+2+n+o+p+q+r+s+t+g+f+-.f+1 * u+< { ",
"&+v+w+-.x+G y+-.z+A+B+j+C+D+E+F+G+H+I+J+K+F.F+L+-.M+N+'.-.O+P+Q+",
"R+S+T+-.'.U+p -.V+W+X+j+Y+Z+`+6+ @.@X+X++@`+6+6+-.x+M+0 -.@@#@$@",
"%@&@*@-.d.d.y+-.=@-@;@j+>@,@'@;@)@l+;@'@!@,@'@;@-.x+o G -.~@{@]@",
"^@/@(@-.-.-.-.-._@:@:@j+<@:@:@[@}@[@:@_@|@:@:@[@-.-.-.-.-.1@2@3@",
"4@R 5@* 6@U+N+-.7@7@7@8@9@,@'@;@0@a@b@c@d@e@f@g@-.'.h@i@i@j@k@l@",
"< ' 5 ! m@d.U+-.V+W+W+j+n@o@p@q@r@_@s@_@t@u@v@w@-.M+x+x@j@j@j@y@",
"z@~ =.A@B@d.p -.=@-@-@j+C@D@:@-@E@F@G@H@I@J@K@L@-.M@M@x@j@j@N@1@",
"5 ~ O@^@P@!.!.-.s@Q@Q@R@S@T@W+'@n+2+7@;@!@U@V@U@-.!.!.W@j@j@X@Y@",
"u+P.Z@`@p  #M+-..#+#+#j+}@@#p@_@<@-@_@[@##V@U@V@-.$#$#U+%#&#Y@*#",
"< ] =#%#'.U+$#-.-#e@;#J@0@g@>#f@9@,#'#g@)#!#~#!#-.G M+#+f+{#]#^#",
"}+/#Z@%##+p $#-.(#_#:#<#[#}#|#1#2#3#4#}#5#6#7#8#-.U+U+d.f+9#^#0#",
"a#b#c#$.h@!.!.-.d#e#e#f#g#h#i#j#k#l#m#h#n#o#p#q#-.!.!.f+%#r#s#9#",
"%+t#Z@u#v#$#0 -.w#x#x#y#z#A#B#C#D#E#F#G#H#I#J#K#-.'.'.&+L#M#N#3@",
"* O#Z@Z@c#x.y+-.P#Q#Q#R#S#T#U#V#W#X#Y#T#Z#`# $.$-.o '.&+&+|+^#3@",
"P.{ +$=#@$#$y+-.$$$$$$%$&$*$=$-$;$>$*$,$'$)$!$~$-.o U+&+|+{$s#^#",
"6 ]$Z@B@^$G M@-./$($($_$:$<$[$}$:$($<$<$<$|$1$2$-.o U+&+w+3$4$5$",
"3 ]$b#6$6$6$^$@$@$7$8$9$0$0$a$b$c$@ @ # # (.(.(.Q.&+&+&+|+d$d$s#",
"e$6 ! A@=#+$+$Z@Z@f$0$g$h$i$a$j$c$_.# # a.a.(.(.Q.&+&+|+{$k$k$9#"};
