/* XPM */
static char * door_open_xpm[] = {
"32 32 445 2",
"  	c #2A2825",
". 	c #2B2825",
"+ 	c #2B2925",
"@ 	c #2C2925",
"# 	c #2D2A24",
"$ 	c #4E3F36",
"% 	c #918073",
"& 	c #D2CCC0",
"* 	c #D3CDC1",
"= 	c #D0C9BB",
"- 	c #BEB5A6",
"; 	c #D2CBBD",
"> 	c #D8D3C8",
", 	c #C6BCAF",
"' 	c #CFC7B8",
") 	c #D0C9BA",
"! 	c #D4CEC2",
"~ 	c #D1CABC",
"{ 	c #D5CFC4",
"] 	c #D5D0C5",
"^ 	c #585E5A",
"/ 	c #BAB6AB",
"( 	c #D1CABD",
"_ 	c #CABEB0",
": 	c #DAD5CB",
"< 	c #DEDBD4",
"[ 	c #E0DED8",
"} 	c #DCD8D0",
"| 	c #CFC8BA",
"1 	c #D0C9BC",
"2 	c #CFC8B9",
"3 	c #D2CBBE",
"4 	c #282724",
"5 	c #292724",
"6 	c #3C4240",
"7 	c #7B7E76",
"8 	c #7C7E73",
"9 	c #82857C",
"0 	c #6E7269",
"a 	c #666C65",
"b 	c #D7D2C7",
"c 	c #DDD9D2",
"d 	c #E1DFDA",
"e 	c #E3E1DD",
"f 	c #DDD9D1",
"g 	c #CEC5BA",
"h 	c #C9BEAE",
"i 	c #C9BDAE",
"j 	c #272624",
"k 	c #292825",
"l 	c #25231F",
"m 	c #7E7F72",
"n 	c #82867C",
"o 	c #696C65",
"p 	c #434946",
"q 	c #D7CDC2",
"r 	c #E0DDD8",
"s 	c #E2E0DB",
"t 	c #E5E4E1",
"u 	c #E1DED9",
"v 	c #DBD6CD",
"w 	c #D0C8BA",
"x 	c #292824",
"y 	c #25221F",
"z 	c #404542",
"A 	c #767A70",
"B 	c #808379",
"C 	c #73766E",
"D 	c #414744",
"E 	c #424743",
"F 	c #CFC7B9",
"G 	c #CBBFAF",
"H 	c #C4B8AA",
"I 	c #DBD7CE",
"J 	c #E0DDD7",
"K 	c #DAD6CC",
"L 	c #D3CDC0",
"M 	c #8B9187",
"N 	c #52504A",
"O 	c #3E4341",
"P 	c #74786F",
"Q 	c #71766E",
"R 	c #6D736A",
"S 	c #676A64",
"T 	c #72756C",
"U 	c #6D7169",
"V 	c #7D8076",
"W 	c #6D736D",
"X 	c #70756D",
"Y 	c #71766D",
"Z 	c #666B66",
"` 	c #656A62",
" .	c #90968B",
"..	c #E2E0DC",
"+.	c #D4CEC4",
"@.	c #D1CBBE",
"#.	c #D1CBBD",
"$.	c #888F85",
"%.	c #787C72",
"&.	c #636861",
"*.	c #7D847B",
"=.	c #757B71",
"-.	c #858982",
";.	c #747A70",
">.	c #7E8177",
",.	c #7F8278",
"'.	c #7C8076",
").	c #707368",
"!.	c #868D84",
"~.	c #777D73",
"{.	c #71766C",
"].	c #696D64",
"^.	c #84867C",
"/.	c #7D827A",
"(.	c #CBC2B5",
"_.	c #2E2A24",
":.	c #2D2A25",
"<.	c #7A7E75",
"[.	c #6D7269",
"}.	c #747B73",
"|.	c #798076",
"1.	c #878A81",
"2.	c #22120A",
"3.	c #1E1008",
"4.	c #090400",
"5.	c #000000",
"6.	c #535049",
"7.	c #767C72",
"8.	c #81887F",
"9.	c #85887C",
"0.	c #C9C0B4",
"a.	c #D3CCC1",
"b.	c #2C2A25",
"c.	c #595F59",
"d.	c #757A70",
"e.	c #5A341E",
"f.	c #533219",
"g.	c #392111",
"h.	c #2A170B",
"i.	c #0A0401",
"j.	c #8A8F85",
"k.	c #7C8077",
"l.	c #84877E",
"m.	c #75776B",
"n.	c #D9D4CA",
"o.	c #DCD9D1",
"p.	c #D9D3C9",
"q.	c #3D413F",
"r.	c #3E423E",
"s.	c #5B605B",
"t.	c #7F4C2D",
"u.	c #945934",
"v.	c #60391E",
"w.	c #3D2411",
"x.	c #090500",
"y.	c #4E534F",
"z.	c #8F958C",
"A.	c #80847A",
"B.	c #DEDAD3",
"C.	c #D2CCBF",
"D.	c #2F2B24",
"E.	c #2F2B23",
"F.	c #7C482A",
"G.	c #AE683C",
"H.	c #A16138",
"I.	c #683C22",
"J.	c #472B15",
"K.	c #2B170B",
"L.	c #0B0501",
"M.	c #7E8075",
"N.	c #D4CEC3",
"O.	c #D4CFC4",
"P.	c #302B23",
"Q.	c #28251E",
"R.	c #5F3E22",
"S.	c #AF693C",
"T.	c #BF7542",
"U.	c #9B5C35",
"V.	c #663E20",
"W.	c #432813",
"X.	c #28150A",
"Y.	c #090401",
"Z.	c #676662",
"`.	c #C6C4C0",
" +	c #C4BBAC",
".+	c #D3CDC2",
"++	c #302B22",
"@+	c #C27E44",
"#+	c #B86F3E",
"$+	c #C07542",
"%+	c #90592C",
"&+	c #603621",
"*+	c #402513",
"=+	c #26140A",
"-+	c #070300",
";+	c #DFDCD6",
">+	c #CBC4B9",
",+	c #C47F45",
"'+	c #A45F37",
")+	c #B9703F",
"!+	c #9F6137",
"~+	c #623821",
"{+	c #432814",
"]+	c #2B180B",
"^+	c #0B0601",
"/+	c #312B23",
"(+	c #312B22",
"_+	c #666962",
":+	c #6A6F66",
"<+	c #75796E",
"[+	c #AD673B",
"}+	c #BD7340",
"|+	c #9D5D35",
"1+	c #683C23",
"2+	c #412815",
"3+	c #2B2B2B",
"4+	c #1C120B",
"5+	c #71756B",
"6+	c #CFC8BB",
"7+	c #CEC7BA",
"8+	c #D2CCC1",
"9+	c #453A31",
"0+	c #453B32",
"a+	c #463A32",
"b+	c #696C64",
"c+	c #B26B3C",
"d+	c #BF7541",
"e+	c #9D5C35",
"f+	c #6B4021",
"g+	c #3C2513",
"h+	c #282828",
"i+	c #1D140C",
"j+	c #7D6857",
"k+	c #866F5B",
"l+	c #89725D",
"m+	c #B5A8A1",
"n+	c #AD9E93",
"o+	c #AF9B8A",
"p+	c #787B6F",
"q+	c #81847A",
"r+	c #BF7441",
"s+	c #8F572D",
"t+	c #5D371D",
"u+	c #362215",
"v+	c #121212",
"w+	c #180F08",
"x+	c #7A7E72",
"y+	c #352A25",
"z+	c #372B26",
"A+	c #44362C",
"B+	c #DBD7D0",
"C+	c #B6AB9F",
"D+	c #CEC7B9",
"E+	c #62655F",
"F+	c #BC7841",
"G+	c #BA713E",
"H+	c #B1693B",
"I+	c #91592C",
"J+	c #553119",
"K+	c #222222",
"L+	c #190E06",
"M+	c #73776E",
"N+	c #151413",
"O+	c #181716",
"P+	c #231F19",
"Q+	c #C7C0B4",
"R+	c #C5BEB1",
"S+	c #D5D0C6",
"T+	c #9BA298",
"U+	c #BB7740",
"V+	c #B46D3B",
"W+	c #B56B3D",
"X+	c #945133",
"Y+	c #4C2B15",
"Z+	c #24150A",
"`+	c #2B190E",
" @	c #180D05",
".@	c #111110",
"+@	c #10100F",
"@@	c #131212",
"#@	c #161514",
"$@	c #D7D3C9",
"%@	c #BC7741",
"&@	c #B7703D",
"*@	c #B46A3C",
"=@	c #995C30",
"-@	c #502C18",
";@	c #341F10",
">@	c #2B180E",
",@	c #160C04",
"'@	c #101010",
")@	c #C3BAAB",
"!@	c #D6D1C7",
"~@	c #DAD6CE",
"{@	c #BD7742",
"]@	c #C07642",
"^@	c #A66337",
"/@	c #59341B",
"(@	c #402613",
"_@	c #666C67",
":@	c #121111",
"<@	c #D6D1C6",
"[@	c #DBD8D0",
"}@	c #BC7240",
"|@	c #985933",
"1@	c #412513",
"2@	c #27140A",
"3@	c #060200",
"4@	c #111010",
"5@	c #111111",
"6@	c #171615",
"7@	c #D9D5CD",
"8@	c #3A403E",
"9@	c #8D918A",
"0@	c #A9AEA5",
"a@	c #AE663A",
"b@	c #925A2D",
"c@	c #522E18",
"d@	c #432713",
"e@	c #26130A",
"f@	c #050100",
"g@	c #121211",
"h@	c #1F1D18",
"i@	c #D9D5CC",
"j@	c #363B3A",
"k@	c #AE673A",
"l@	c #A15A35",
"m@	c #794325",
"n@	c #512A1A",
"o@	c #402412",
"p@	c #221108",
"q@	c #1E1C18",
"r@	c #201D19",
"s@	c #252018",
"t@	c #D5CFC5",
"u@	c #AD613A",
"v@	c #985332",
"w@	c #855028",
"x@	c #4C2719",
"y@	c #371F0F",
"z@	c #241208",
"A@	c #221F19",
"B@	c #242019",
"C@	c #D3CEC2",
"D@	c #D8D3CA",
"E@	c #DAD7CF",
"F@	c #985232",
"G@	c #8C4A2E",
"H@	c #754524",
"I@	c #432414",
"J@	c #341C0E",
"K@	c #6F746D",
"L@	c #2B251C",
"M@	c #2A251C",
"N@	c #D6D0C6",
"O@	c #464A48",
"P@	c #313734",
"Q@	c #B5743E",
"R@	c #86472B",
"S@	c #7C402A",
"T@	c #683A22",
"U@	c #412115",
"V@	c #030303",
"W@	c #040404",
"X@	c #0A0A0A",
"Y@	c #090909",
"Z@	c #0A0909",
"`@	c #0B0A09",
" #	c #0F0E0C",
".#	c #342E26",
"+#	c #322C23",
"@#	c #D7D2C9",
"##	c #C58445",
"$#	c #6E3A21",
"%#	c #713926",
"&#	c #0B0B0B",
"*#	c #232322",
"=#	c #29221E",
"-#	c #1B1714",
";#	c #12110F",
">#	c #141311",
",#	c #161511",
"'#	c #191714",
")#	c #1A1814",
"!#	c #1B1914",
"~#	c #D9D4CC",
"{#	c #DBD8D1",
"]#	c #A86C3A",
"^#	c #6C3823",
"/#	c #323231",
"(#	c #333231",
"_#	c #3D3D3C",
":#	c #5C5B5A",
"<#	c #838380",
"[#	c #67594E",
"}#	c #2E2722",
"|#	c #201E1B",
"1#	c #211F1A",
"2#	c #221F1A",
"3#	c #221F1B",
"4#	c #23201B",
"5#	c #2E2920",
"6#	c #D3CCC0",
"7#	c #DCD9D2",
"8#	c #393938",
"9#	c #656462",
"0#	c #858482",
"a#	c #90908D",
"b#	c #A1A19E",
"c#	c #B3B1AD",
"d#	c #867467",
"e#	c #3D342E",
"f#	c #262420",
"g#	c #28241F",
"h#	c #2B2722",
"i#	c #2A2722",
"j#	c #2C2923",
"k#	c #28231A",
"l#	c #312A22",
"m#	c #262117",
"n#	c #DAD6CF",
"o#	c #2D3331",
"p#	c #565452",
"q#	c #380909",
"r#	c #ABA9A6",
"s#	c #B7B6B2",
"t#	c #C0BEBA",
"u#	c #C2BFBB",
"v#	c #917C6E",
"w#	c #48413B",
"x#	c #353331",
"y#	c #33302C",
"z#	c #34302C",
"A#	c #424643",
"B#	c #262118",
"C#	c #CEC7B8",
"D#	c #DDDAD4",
"E#	c #DFDDD9",
"F#	c #E0DFDB",
"G#	c #E0DED9",
"H#	c #DFDDD8",
"I#	c #DBD8D3",
"J#	c #A48C7D",
"K#	c #473D35",
"L#	c #242018",
"  . . . + +   + +   + + + @ # $ % & * = - ; > , ' ) ! * ~ { ] * ",
"    + + .                 + ^ ^ ^ ^ / ( _ : < [ } | = 1 2 ( 3 ~ ",
"4 5 5   5 4 5 5 5         6 7 8 9 0 a ~ b c < d e f g h i ) = 3 ",
"j 4 5   5 4 4 4 4 5 k   + l 7 m n o p 1 ~ ; q r s t u v : 3 w ~ ",
"4 4 5     5 5 5 5 5 x k y z 0 A B C D E F G H I J t < K I L 2 = ",
"5 5   @ +   +   M N O P Q R S T U V W X Y Z `  .J ..} +.b = @.#.",
"k   + # @ @ @ $.%.&.*.=.-.;.>.,.'.).!.~.{.]. .^./.c f : (.1 * { ",
"  + # _._.:.@ <.[.%.}.|.1.2.3.4.5.5.6.7.%.8.^./.9.} I 0.a.w ! * ",
"+ b.b._._._._.c.<.d.7.e.f.g.h.i.5.5.5.5.5.j.k.l.m.n.o.p.~ w & ! ",
"@ # _._._._.q.%.r.s.t.u.v.w.h.x.5.5.5.5.5.5.y.z.A.q.B.} ( ~ L C.",
"@ _.D.E.D._.%.%.>.F.G.H.I.J.K.L.5.5.5.5.5.5.5.M.A.m.J } | C.N.O.",
":._.P.P.P.Q.A.0 R.S.T.U.V.W.X.Y.5.5.5.5.5.5.5.Z.c.A.`.n. +3 .+{ ",
"_.P.++++P.0 m.0 @+#+$+%+&+*+=+-+5.5.5.5.5.5.5.5.0 m.0 ;+>+= C.{ ",
"D.P.++P.P.m.m.c.,+'+)+!+~+{+]+^+5.5.5.5.5.5.5.5.c.m.m.[ * F ( { ",
"P./+(+q._+:+<+q.,+[+}+|+1+2+3+4+5.5.5.5.5.5.5.5.q.7.1.5+q.6+7+8+",
"9+0+a+q.0 <+b+q.,+c+d+e+f+g+h+i+5.5.5.5.5.5.5.5.q.7 1.m.q.j+k+l+",
"m+n+o+q.0 p+q+q.,+#+r+s+t+u+v+w+5.5.5.5.5.5.5.5.q.x+>.7.q.y+z+A+",
"B+C+D+q._+E+0 q.F+G+H+I+J+4+K+L+5.5.5.5.5.5.5.5.q.M+b+E+q.N+O+P+",
"Q+L R+* S+).T+q.U+V+W+X+Y+Z+`+ @5.5.5.5.5.5.5.5.q.T+)..@.@+@@@#@",
"( ' 2 ! $@5+q+q.%@&@*@=@-@;@>@,@5.5.5.5.5.5.5.5.q.7 0 '@+@+@+@v+",
")@~ #.!@~@b+q+q.{@G+]@^@/@(@X.-+5.5.5.5.5.5.5.5.q._@b+'@+@+@:@N+",
"2 ~ <@B+[@b+E+q.U+V+}@|@/@1@2@3@5.5.5.5.5.5.5.5.q.0 _+4@+@+@5@6@",
"F C.7@8@9@0@T+q.%@G+a@b@c@d@e@f@5.5.5.5.5.5.5.5.q.T+T+1.8@g@6@h@",
"( ] i@j@0 7 p+q.U+k@l@m@n@o@p@5.5.5.5.5.5.5.5.5.q.E+q+x+8@q@r@s@",
".+t@7@8@0 q+).q.{@u@v@w@x@y@z@5.5.5.5.5.5.5.5.5.q.m.m p+8@A@s@B@",
"C@D@E@8@p+q+).q.{@F@G@H@I@J@5.5.5.5.5.5.5.5.5.5.q.q+m K@8@L@M@A@",
"O.N@7@8@O@P@O@q.Q@R@S@T@U@5.V@W@X@X@Y@Z@Z@`@ # #q.8@O@j@8@.#+#P+",
"* @#7@7@E@:+7 q.##$#%#W@Y@&#*#=#-#;#>#,#'#)#!#!#q.5+:+P.P.++s@P+",
"C.{ ~#i@{#x+0 q.]#^#/#(#_#:#<#[#}#|#|#1#2#3#4#3#q.M+7.P.++5#M@s@",
"3 6#7@~@7#M+b+q.]#8#9#0#a#b#c#d#e#f#f#f#g#h#i#j#q.7.>.P.(+k#l#m#",
"| 6#D@n#n#o#P@P@p#q#0#r#s#t#u#v#w#x#x#y#y#z#z#z#P@j@A#P.++B#B#M@",
"C#3 ! !@i@~#~#7@7@D#E#F#G#H#I#J#K#:.# # b.b._._.D.P.P.++5#L#L#A@"};
