/* XPM */
static char * enemy6_xpm[] = {
"32 32 157 2",
"  	c #2A2825",
". 	c #2B2825",
"+ 	c #2B2925",
"@ 	c #2C2925",
"# 	c #2D2A24",
"$ 	c #4E3F36",
"% 	c #918073",
"& 	c #D2CCC0",
"* 	c #D3CDC1",
"= 	c #D0C9BB",
"- 	c #BEB5A6",
"; 	c #D2CBBD",
"> 	c #D8D3C8",
", 	c #C6BCAF",
"' 	c #CFC7B8",
") 	c #D0C9BA",
"! 	c #D4CEC2",
"~ 	c #D1CABC",
"{ 	c #D5CFC4",
"] 	c #D5D0C5",
"^ 	c #2B2924",
"/ 	c #4F3F37",
"( 	c #8E7E71",
"_ 	c #D3CEC4",
": 	c #D4CFC3",
"< 	c #D1CABD",
"[ 	c #CABEB0",
"} 	c #DAD5CB",
"| 	c #DEDBD4",
"1 	c #E0DED8",
"2 	c #DCD8D0",
"3 	c #CFC8BA",
"4 	c #D0C9BC",
"5 	c #CFC8B9",
"6 	c #D2CBBE",
"7 	c #282724",
"8 	c #292724",
"9 	c #504037",
"0 	c #89796C",
"a 	c #D2CDC3",
"b 	c #D7D2C7",
"c 	c #DDD9D2",
"d 	c #E1DFDA",
"e 	c #E3E1DD",
"f 	c #DDD9D1",
"g 	c #CEC5BA",
"h 	c #C9BEAE",
"i 	c #C9BDAE",
"j 	c #272624",
"k 	c #0F0B0D",
"l 	c #292825",
"m 	c #8A7A6C",
"n 	c #D0CABE",
"o 	c #D3CDC2",
"p 	c #DBD6CD",
"q 	c #D0C8BA",
"r 	c #292824",
"s 	c #8B7A6C",
"t 	c #CFC8BC",
"u 	c #CFC7B9",
"v 	c #CBBFAF",
"w 	c #DAD6CC",
"x 	c #DBD7CE",
"y 	c #D3CDC0",
"z 	c #FFEAD1",
"A 	c #D1CBBE",
"B 	c #D1CBBD",
"C 	c #505B40",
"D 	c #2E3F3B",
"E 	c #6C734E",
"F 	c #D2CCBF",
"G 	c #D4CEC3",
"H 	c #D4CFC4",
"I 	c #2D2A25",
"J 	c #2E2A24",
"K 	c #302B23",
"L 	c #302B22",
"M 	c #2F2B24",
"N 	c #312B23",
"O 	c #312B22",
"P 	c #D2CCC1",
"Q 	c #453A31",
"R 	c #453B32",
"S 	c #463A32",
"T 	c #463A31",
"U 	c #89725D",
"V 	c #B5A8A1",
"W 	c #AD9E93",
"X 	c #AF9B8A",
"Y 	c #AD9458",
"Z 	c #44362C",
"` 	c #DBD7D0",
" .	c #B6AB9F",
"..	c #CEC7B9",
"+.	c #231F19",
"@.	c #C7C0B4",
"#.	c #161514",
"$.	c #121212",
"%.	c #C3BAAB",
"&.	c #151413",
"*.	c #171615",
"=.	c #1F1D18",
"-.	c #D9D5CC",
";.	c #1E1C18",
">.	c #201D19",
",.	c #252018",
"'.	c #D5CFC5",
").	c #D9D5CD",
"!.	c #221F19",
"~.	c #242019",
"{.	c #D3CEC2",
"].	c #D8D3CA",
"^.	c #DAD7CF",
"/.	c #DDDAD3",
"(.	c #DDDAD5",
"_.	c #342C23",
":.	c #2B251C",
"<.	c #2A251C",
"[.	c #D6D0C6",
"}.	c #DCD8D2",
"|.	c #DCD9D3",
"1.	c #2C271E",
"2.	c #342E26",
"3.	c #322C23",
"4.	c #D7D2C9",
"5.	c #E0DFDB",
"6.	c #E1DFDB",
"7.	c #D9D4CC",
"8.	c #DBD8D1",
"9.	c #E1E0DC",
"0.	c #E1DFDC",
"a.	c #2E2920",
"b.	c #D3CCC0",
"c.	c #DAD6CE",
"d.	c #DCD9D2",
"e.	c #DCDAD5",
"f.	c #A38D7D",
"g.	c #473C35",
"h.	c #28231A",
"i.	c #312A22",
"j.	c #262117",
"k.	c #DAD6CF",
"l.	c #E0DEDB",
"m.	c #E0DEDA",
"n.	c #DFDDD9",
"o.	c #DBD8D3",
"p.	c #A38B7B",
"q.	c #473D35",
"r.	c #262118",
"s.	c #CEC7B8",
"t.	c #D6D1C7",
"u.	c #DDDAD4",
"v.	c #E0DED9",
"w.	c #DFDDD8",
"x.	c #A48C7D",
"y.	c #2C2A25",
"z.	c #242018",
"  . . . + +   + +   + + + @ # $ % & * = - ; > , ' ) ! * ~ { ] * ",
"    + + .                 + ^ / ( _ : < [ } | 1 2 3 = 4 5 < 6 ~ ",
"7 8 8   8 7 8 8 8           ^ 9 0 a ] ~ b c | d e f g h i ) = 6 ",
"j 7 8 k k k k k 7 8 l   k k k k m n o 4 ~ ; k k k k k p } 6 q ~ ",
"7 7 8 k k k k k 8 8 r l k k k k s t & ~ u v k k k k k w x y 5 = ",
"8 k k z z z z z k k . + k k k k k k k k k k z z z z z k k = A B ",
"l k k z z z z z k k + @ k k k k k k k k k k z z z z z k k 4 * { ",
"  k k z z C C z k k k k D D C C E E C C k k z z z z z k k q ! * ",
"+ k k z z z z z k k D D C C C C C C E E k k z C C z z k k q & ! ",
"@ k k z z z z z k k D D C C C C C C E E k k z C C z z k k ~ y F ",
"@ k k z z z z z k k C C D D k k k k k k k k z z z z z k k F G H ",
"I k k z z z z z k k C C D D k k k k k k k k z z z z z k k 6 o { ",
"J K L k k k k k D D k k k k k k k k k k k k k k k k k k k = F { ",
"M K L k k k k k D D k k k k k k k k k k k k k k k k k k k u < { ",
"K N O O K k k k k k k k k k k k k k k k k k C E E E E C C k k P ",
"Q R S T Q k k k k k k k k k k k k k k k k k C E E E E C C k k U ",
"V W X k k k k k k k k k k k k k k k D D C C E C C Y Y E E k k Z ",
"`  ...k k k k k k k k k k k k k k k D D C C E C C Y Y E E k k +.",
"@.k k k k C C C C C D D C C C C C C E E E E E Y Y Y Y E E k k #.",
"< k k k k C C C C C D D C C C C C C E E E E E Y Y Y Y E E k k $.",
"%.k k E E Y Y C E E E E E E E E E E D D E E E Y Y C C E E k k &.",
"5 k k E E Y Y C E E E E E E E E E E D D E E E Y Y C C E E k k *.",
"u k k C C E E E C C E E D D D D E E E E E E C C C C C D D k k =.",
"< ] -.k k k k k k k D D D D D D C C C C D D k k k k k k k ;.>.,.",
"o '.).k k k k k k k D D D D D D C C C C D D k k k k k k k !.,.~.",
"{.].^./.(.k k k k k k k k k k k k k k k k k k k k k k L _.:.<.!.",
"H [.).}.|.k k k k k k k k k k k k k k k k k k k k k k K 1.2.3.+.",
"* 4.).).^.k k k k k 5.6.k k k k k k k k J M k k k k k K K L ,.+.",
"F { 7.-.8.k k k k k 9.0.k k k k k k k k J J k k k k k K L a.<.,.",
"6 b.).c.d.k k k k k 0.5.5.5.e.f.g.^ @ @ J J k k k k k K O h.i.j.",
"3 b.].k.k.k k k k k l.m.n.n.o.p.q.@ @ # # J k k k k k K L r.r.<.",
"s.6 ! t.-.7.7.).).u.n.5.v.w.o.x.q.I # # y.y.J J M K K L a.z.z.!."};
