/* XPM */
static char * win_xpm[] = {
"96 32 558 2",
"  	c #717171",
". 	c #707070",
"+ 	c #6F6F6F",
"@ 	c #6E6E6E",
"# 	c #818181",
"$ 	c #777777",
"% 	c #868686",
"& 	c #8E8E8E",
"* 	c #979797",
"= 	c #959595",
"- 	c #8C8C8C",
"; 	c #909090",
"> 	c #888888",
", 	c #666666",
"' 	c #747474",
") 	c #858585",
"! 	c #767676",
"~ 	c #676767",
"{ 	c #919191",
"] 	c #727272",
"^ 	c #929292",
"/ 	c #878787",
"( 	c #7D7D7D",
"_ 	c #7F7F7F",
": 	c #787878",
"< 	c #828282",
"[ 	c #848484",
"} 	c #8A8A8A",
"| 	c #6C6C6C",
"1 	c #8D8D8D",
"2 	c #7E7E7E",
"3 	c #7B7B7B",
"4 	c #7A7A7A",
"5 	c #9A9A9A",
"6 	c #949494",
"7 	c #7C7C7C",
"8 	c #838383",
"9 	c #8F8F8F",
"0 	c #939393",
"a 	c #737373",
"b 	c #808080",
"c 	c #757575",
"d 	c #8B8B8B",
"e 	c #A2A2A2",
"f 	c #9E9E9E",
"g 	c #999999",
"h 	c #6A6A6A",
"i 	c #797979",
"j 	c #696969",
"k 	c #9B9B9B",
"l 	c #969696",
"m 	c #686868",
"n 	c #636363",
"o 	c #6D6D6D",
"p 	c #9D9D9D",
"q 	c #898989",
"r 	c #989898",
"s 	c #A5A5A5",
"t 	c #6B6B6B",
"u 	c #595959",
"v 	c #A3A3A3",
"w 	c #5D5D5D",
"x 	c #505050",
"y 	c #5E5E5E",
"z 	c #787978",
"A 	c #59EF35",
"B 	c #4EFF00",
"C 	c #52FA1E",
"D 	c #7B887A",
"E 	c #4DC635",
"F 	c #5DE343",
"G 	c #7F817F",
"H 	c #7B867A",
"I 	c #65C458",
"J 	c #58E938",
"K 	c #4FF717",
"L 	c #4FFD09",
"M 	c #56F52C",
"N 	c #63DA50",
"O 	c #7C9B78",
"P 	c #63DC4E",
"Q 	c #699565",
"R 	c #768274",
"S 	c #4EFF02",
"T 	c #57E835",
"U 	c #4E4E4E",
"V 	c #63B657",
"W 	c #76A970",
"X 	c #6CA466",
"Y 	c #63E24C",
"Z 	c #848584",
"` 	c #56F22F",
" .	c #56F72C",
"..	c #7F837E",
"+.	c #59DA41",
"@.	c #6B9466",
"#.	c #62DD4D",
"$.	c #5CE83F",
"%.	c #4FC536",
"&.	c #759572",
"*.	c #51F81D",
"=.	c #55E037",
"-.	c #646464",
";.	c #6CBA63",
">.	c #56BD45",
",.	c #53A747",
"'.	c #54EE2C",
").	c #6B7A69",
"!.	c #6F996A",
"~.	c #52F422",
"{.	c #56CA40",
"].	c #71856F",
"^.	c #698966",
"/.	c #60E446",
"(.	c #52FB1C",
"_.	c #72A26D",
":.	c #55ED30",
"<.	c #4FFD0A",
"[.	c #646A63",
"}.	c #70A36B",
"|.	c #5ED549",
"1.	c #5C5C5C",
"2.	c #565656",
"3.	c #555555",
"4.	c #5CAC51",
"5.	c #6BAA63",
"6.	c #54DA36",
"7.	c #5FE644",
"8.	c #70AE68",
"9.	c #6CCD5E",
"0.	c #54EF2B",
"a.	c #50FC13",
"b.	c #727571",
"c.	c #57F031",
"d.	c #4EFE03",
"e.	c #728970",
"f.	c #50E02C",
"g.	c #50F917",
"h.	c #6C6D6C",
"i.	c #70926C",
"j.	c #5EC84D",
"k.	c #606060",
"l.	c #5A5A5A",
"m.	c #5D625C",
"n.	c #4EF319",
"o.	c #4FF31A",
"p.	c #646963",
"q.	c #5A8A54",
"r.	c #4EFA0D",
"s.	c #4FF617",
"t.	c #567E53",
"u.	c #62825F",
"v.	c #4FF715",
"w.	c #55D53A",
"x.	c #738C70",
"y.	c #4EFD08",
"z.	c #4FEC23",
"A.	c #626262",
"B.	c #626761",
"C.	c #50EC24",
"D.	c #59B64B",
"E.	c #51B63F",
"F.	c #535353",
"G.	c #57A24C",
"H.	c #55A749",
"I.	c #5C7D59",
"J.	c #4EFD05",
"K.	c #4EFC0A",
"L.	c #5AE939",
"M.	c #50DE2E",
"N.	c #607D5D",
"O.	c #5D6C5C",
"P.	c #52E82C",
"Q.	c #667365",
"R.	c #5CB94D",
"S.	c #50F61A",
"T.	c #51E42B",
"U.	c #585858",
"V.	c #59AC4D",
"W.	c #65AB5C",
"X.	c #2A2A2A",
"Y.	c #2C2C2C",
"Z.	c #2D2D2D",
"`.	c #2F2F2F",
" +	c #313131",
".+	c #42B428",
"++	c #3DB01F",
"@+	c #4AEE0D",
"#+	c #4DFC02",
"$+	c #38882A",
"%+	c #2E2E2E",
"&+	c #47D81A",
"*+	c #3C7833",
"=+	c #303030",
"-+	c #292929",
";+	c #383838",
">+	c #353535",
",+	c #4AEE0E",
"'+	c #386B31",
")+	c #323232",
"!+	c #387A2E",
"~+	c #44D318",
"{+	c #43CA1D",
"]+	c #3E8E2F",
"^+	c #2B2B2B",
"/+	c #282828",
"(+	c #252525",
"_+	c #398D29",
":+	c #3CA524",
"<+	c #45C325",
"[+	c #42CD18",
"}+	c #4AEA13",
"|+	c #306A28",
"1+	c #4EFE01",
"2+	c #46D31C",
"3+	c #333333",
"4+	c #343434",
"5+	c #358924",
"6+	c #43CB1B",
"7+	c #4CF40A",
"8+	c #47E012",
"9+	c #2D6326",
"0+	c #41C71D",
"a+	c #45C624",
"b+	c #3A6535",
"c+	c #1C1C1B",
"d+	c #1E1D1D",
"e+	c #1F1F1E",
"f+	c #1D1D1C",
"g+	c #1F1E1E",
"h+	c #1C1B1A",
"i+	c #212020",
"j+	c #24411F",
"k+	c #4CF703",
"l+	c #36A317",
"m+	c #1B1A1A",
"n+	c #255C1C",
"o+	c #4EFE00",
"p+	c #47E609",
"q+	c #202020",
"r+	c #1A1A1A",
"s+	c #1E1E1E",
"t+	c #222221",
"u+	c #1E1D1C",
"v+	c #47E708",
"w+	c #2C781C",
"x+	c #20201F",
"y+	c #34A117",
"z+	c #39B713",
"A+	c #46E20A",
"B+	c #27521F",
"C+	c #201F1F",
"D+	c #222120",
"E+	c #201F1E",
"F+	c #2C7E16",
"G+	c #35AB0F",
"H+	c #213C1E",
"I+	c #4CF604",
"J+	c #4DFD01",
"K+	c #2A6F1B",
"L+	c #49EF05",
"M+	c #1E1E1D",
"N+	c #3DC20F",
"O+	c #2F831B",
"P+	c #37B012",
"Q+	c #37AA14",
"R+	c #38AE16",
"S+	c #27561E",
"T+	c #339718",
"U+	c #35A416",
"V+	c #171716",
"W+	c #44DA0E",
"X+	c #49EC07",
"Y+	c #4F4944",
"Z+	c #5A544E",
"`+	c #544F49",
" @	c #59534D",
".@	c #59534C",
"+@	c #544E48",
"@@	c #504A44",
"#@	c #47423C",
"$@	c #423D38",
"%@	c #4EC12E",
"&@	c #48C127",
"*@	c #46413C",
"=@	c #3F3B36",
"-@	c #3EA023",
";@	c #4BD521",
">@	c #433E39",
",@	c #4C4842",
"'@	c #4A4540",
")@	c #423C38",
"!@	c #4EF50E",
"~@	c #49673B",
"{@	c #48433E",
"]@	c #4AC428",
"^@	c #57A042",
"/@	c #4EF80E",
"(@	c #4DF30F",
"_@	c #4E4842",
":@	c #504A45",
"<@	c #423E39",
"[@	c #417A31",
"}@	c #49B72A",
"|@	c #49AD2E",
"1@	c #4BD821",
"2@	c #4C4A42",
"3@	c #4EFF01",
"4@	c #4DF50C",
"5@	c #49523D",
"6@	c #4DF60B",
"7@	c #4CE71A",
"8@	c #46423C",
"9@	c #46403B",
"0@	c #4ED229",
"a@	c #578E45",
"b@	c #4E5D40",
"c@	c #4EEF18",
"d@	c #4AAF2E",
"e@	c #48BF27",
"f@	c #397A28",
"g@	c #403C37",
"h@	c #44403A",
"i@	c #45403B",
"j@	c #4CE519",
"k@	c #4DC22E",
"l@	c #49443E",
"m@	c #45403A",
"n@	c #91877D",
"o@	c #9A9085",
"p@	c #9C9287",
"q@	c #A0958B",
"r@	c #9E9489",
"s@	c #9E9388",
"t@	c #968C81",
"u@	c #7E766C",
"v@	c #787066",
"w@	c #799564",
"x@	c #58E92F",
"y@	c #7A7368",
"z@	c #7E756C",
"A@	c #706860",
"B@	c #5FBB45",
"C@	c #64CF46",
"D@	c #776E66",
"E@	c #797067",
"F@	c #7F766C",
"G@	c #7C7269",
"H@	c #81896D",
"I@	c #4FFE06",
"J@	c #58F02C",
"K@	c #877D74",
"L@	c #65E342",
"M@	c #94A17E",
"N@	c #98A482",
"O@	c #5FE33A",
"P@	c #90867C",
"Q@	c #81786E",
"R@	c #756C64",
"S@	c #7A7268",
"T@	c #6D855B",
"U@	c #6AC74D",
"V@	c #58EC2C",
"W@	c #70A35A",
"X@	c #51FB12",
"Y@	c #52FA16",
"Z@	c #82C169",
"`@	c #70B857",
" #	c #8C8278",
".#	c #887E74",
"+#	c #5FEF37",
"@#	c #50FD0F",
"##	c #9E9989",
"$#	c #61EF39",
"%#	c #56F026",
"&#	c #73D157",
"*#	c #5BE335",
"=#	c #5EE03A",
"-#	c #50FC0D",
";#	c #6A665A",
">#	c #7A7068",
",#	c #7D746A",
"'#	c #56F028",
")#	c #789B63",
"!#	c #847B70",
"~#	c #978D82",
"{#	c #80766E",
"]#	c #949493",
"^#	c #8B8B8A",
"/#	c #7AB572",
"(#	c #4FC837",
"_#	c #656565",
":#	c #545454",
"<#	c #595856",
"[#	c #5CB143",
"}#	c #6EDB5E",
"|#	c #72C367",
"1#	c #7AC970",
"2#	c #9C9C9C",
"3#	c #9D9C9C",
"4#	c #5DF73A",
"5#	c #51FA18",
"6#	c #82BD7B",
"7#	c #79D46D",
"8#	c #878686",
"9#	c #848483",
"0#	c #60605F",
"a#	c #515151",
"b#	c #597053",
"c#	c #5DE93F",
"d#	c #57EE32",
"e#	c #57F82C",
"f#	c #61EC46",
"g#	c #9B9F9A",
"h#	c #999F98",
"i#	c #4FFD0C",
"j#	c #5FF041",
"k#	c #939892",
"l#	c #50FD10",
"m#	c #6CE259",
"n#	c #7CA676",
"o#	c #4EFD04",
"p#	c #50F71B",
"q#	c #51E827",
"r#	c #635C54",
"s#	c #81776E",
"t#	c #9B9B9A",
"u#	c #6FCD62",
"v#	c #5BAD4F",
"w#	c #4C4C4C",
"x#	c #363534",
"y#	c #577446",
"z#	c #50FC0C",
"A#	c #5DF03C",
"B#	c #A0A0A0",
"C#	c #929791",
"D#	c #5AF139",
"E#	c #65EC4C",
"F#	c #979A97",
"G#	c #54FA25",
"H#	c #57F52F",
"I#	c #6ADA58",
"J#	c #4FFE0C",
"K#	c #91AB8E",
"L#	c #616161",
"M#	c #374633",
"N#	c #7CC773",
"O#	c #5BF438",
"P#	c #79D46E",
"Q#	c #8AB286",
"R#	c #6EDE5C",
"S#	c #80AA7B",
"T#	c #6FC963",
"U#	c #52F226",
"V#	c #45CC1F",
"W#	c #58514A",
"X#	c #70D561",
"Y#	c #889C86",
"Z#	c #5CDF42",
"`#	c #51814B",
" $	c #3C3C3C",
".$	c #2D2C2C",
"+$	c #6BBE50",
"@$	c #4EFF03",
"#$	c #6FCF61",
"$$	c #859384",
"%$	c #73976F",
"&$	c #65E44E",
"*$	c #5BE73E",
"=$	c #869385",
"-$	c #9F9F9F",
";$	c #6BDE58",
">$	c #77B170",
",$	c #868F86",
"'$	c #6FB566",
")$	c #4FFD0F",
"!$	c #71C666",
"~$	c #53FA21",
"{$	c #858E85",
"]$	c #5DEF3C",
"^$	c #9AAC98",
"/$	c #67BC5B",
"($	c #73C769",
"_$	c #6BBE60",
":$	c #6FAB67",
"<$	c #5CCC48",
"[$	c #3DAC21",
"}$	c #7A7168",
"|$	c #63E54B",
"1$	c #53F924",
"2$	c #56F42D",
"3$	c #4FFA11",
"4$	c #6E6F6E",
"5$	c #2C2C2B",
"6$	c #787067",
"7$	c #70AA6A",
"8$	c #63E54A",
"9$	c #54F924",
"0$	c #54F626",
"a$	c #59E23D",
"b$	c #73BB6A",
"c$	c #808A80",
"d$	c #66CD57",
"e$	c #54F02C",
"f$	c #51FB1A",
"g$	c #54F528",
"h$	c #62DF4B",
"i$	c #75AC6F",
"j$	c #4EF90A",
"k$	c #6CD55C",
"l$	c #58E935",
"m$	c #62DD4C",
"n$	c #63D650",
"o$	c #6EA568",
"p$	c #66D753",
"q$	c #7F917D",
"r$	c #5A9452",
"s$	c #358226",
"t$	c #57F52E",
"u$	c #62EA49",
"v$	c #404040",
"w$	c #2C2B2A",
"x$	c #4F4943",
"y$	c #80776E",
"z$	c #282827",
"A$	c #49433E",
"B$	c #827A70",
"C$	c #373737",
"D$	c #4C4741",
"E$	c #786F66",
"F$	c #3A3A3A",
"G$	c #2F2E2E",
"H$	c #797878",
"I$	c #282826",
"J$	c #7E756B",
"K$	c #262625",
"L$	c #524C45",
"M$	c #827970",
"N$	c #363636",
"O$	c #2B2A2A",
"P$	c #847A71",
"Q$	c #818180",
"R$	c #272626",
"S$	c #5A544D",
"T$	c #8A8177",
"U$	c #464646",
"V$	c #58534C",
"W$	c #7F766D",
"X$	c #A8A8A8",
"Y$	c #292828",
"Z$	c #837A70",
"`$	c #818080",
" %	c #A1A1A1",
".%	c #3E3E3E",
"+%	c #2A2A29",
"@%	c #56504A",
"#%	c #877E74",
"$%	c #6F6E6E",
"  . + @ # $ % & * = - ; - > $ , ' ) ! ~ ! > { + ] ^ - / / & ( %   . + @ # $ % & * = - ; - > $ , ' ) ! ~ ! > { + ] ^ - / / & ( %   . + @ # $ % & * = - ; - > $ , ' ) ! ~ ! > { + ] ^ - / / & ( % ",
"( _ : / < [ { ) ; { } } | $ ! 1 % [ 2 3 4 2 < ! ) 5 1 [ { ; < ^ ( _ : / < [ { ) ; { } } | $ ! 1 % [ 2 3 4 2 < ! ) 5 1 [ { ; < ^ ( _ : / < [ { ) ; { } } | $ ! 1 % [ 2 3 4 2 < ! ) 5 1 [ { ; < ^ ",
"6 - 7 / 4 8 & 1 9 ^ % < . 0 4 a b $ / c % % d e e 5 % < : _ > f 6 - 7 / 4 8 & 1 9 ^ % < . 0 4 a b $ / c % % d e e 5 % < : _ > f 6 - 7 / 4 8 & 1 9 ^ % < . 0 4 a b $ / c % % d e e 5 % < : _ > f ",
") < a > ( } 9 - - [   4 b : 4 7 @ _ ( : < 4 ; g # b < 2 h [ 9 f ) < a > ( } 9 - - [   4 b : 4 7 @ _ ( : < 4 ; g # b < 2 h [ 9 f ) < a > ( } 9 - - [   4 b : 4 7 @ _ ( : < 4 ; g # b < 2 h [ 9 f ",
"% 7 > % i 1 < ; 9 - a [ - / 2 a , ( ' < < a / ( 3 [ * ( j k l e % 7 > % i 1 < ; 9 - a [ - / 2 a , ( ' < < a / ( 3 [ * ( j k l e % 7 > % i 1 < ; 9 - a [ - / 2 a , ( ' < < a / ( 3 [ * ( j k l e ",
") / d 8 ( 2 # & ^ ( > [ > c m n | 2 4 [ o $ ( [ 1 & $ | & { 9 p ) / d 8 ( 2 # & ^ ( > [ > c m n | 2 4 [ o $ ( [ 1 & $ | & { 9 p ) / d 8 ( 2 # & ^ ( > [ > c m n | 2 4 [ o $ ( [ 1 & $ | & { 9 p ",
": % 7 7 [ 7 q % % - _ > 4 3 ! c ; r 8 c a : 3 2 . a l 3 ^ 9 * p : % 7 7 [ 7 q % % - _ > 4 3 ! c ; r 8 c a : 3 2 . a l 3 ^ 9 * p : % 7 7 [ 7 q % % - _ > 4 3 ! c ; r 8 c a : 3 2 . a l 3 ^ 9 * p ",
"3 $ ! < ) / [ } - ) / } ' 7 ] } [     ] / a ) 2 d p s 0 ; = = 9 3 $ ! < ) / [ } - ) / } ' 7 ] } [     ] / a ) 2 d p s 0 ; = = 9 3 $ ! < ) / [ } - ) / } ' 7 ] } [     ] / a ) 2 d p s 0 ; = = 9 ",
"] m b   _ 3 % % : - [ 2 ! % _ t h , u 2 ( $ ! 8 / - v ; [ 5 ( < ] m b   _ 3 % % : - [ 2 ! % _ t h , u 2 ( $ ! 8 / - v ; [ 5 ( < ] m b   _ 3 % % : - [ 2 ! % _ t h , u 2 ( $ ! 8 / - v ; [ 5 ( < ",
", a @ 3 ' : ( 3 , % ! 7 ( 3 w x a y $ < @ ) > 4 1 9 0 7 [ b > % , a @ 3 ' : ( 3 , % ! 7 ( 3 w x a y $ < @ ) > 4 1 9 0 7 [ b > % , a @ 3 ' : ( 3 , % ! 7 ( 3 w x a y $ < @ ) > 4 1 9 0 7 [ b > % ",
"( | @ c + $ z A B C D ] _ ~ E B B F G H I J K L M N O [ 7 7 1 P B B Q c + R S B T # ( ] _ ~ U V B B W ( c X B B Y 2 # Z ` B  ...( +.B B @.$ : #.B B $.] _ ~ %.B B &._ ( c *.B =.[ 2 # [ 7 7 1 _ ",
". o -.i ] : : ;.B B >.c 4 ,.B B '.).!.~.B {.].^./.B (._.< $ < :.B <.[.i ] }.B B |.c 1.c 4 2.3.4.B B 5.t ' 6.B B 7.' 8 8.B B 9.+ . 0.B a.b.: : c.B B d.e.4 2.f.B g.h.' t i.B B j.b ' 8 4 < $ < + ",
"y u u k.l.k.~ m.n.B o.p.q.r.B s.t.u.v.B w.2.y o x.y.B z.h A.B.y.B C.u k.l.D.B B E.y 2.-.1.F.y G.B B H.y I.J.K.B L.A.y M.B L N.w O.d.B P.l.k.Q.d.B B B R.1.F.S.B T.-.U.y V.B B W.! A.y 2.h A.A.w ",
"X.Y.Y.Z.Y.`.X. +.+B B ++@+B #+$+%+&+B B *+=+-+;+>+,+B B '+)+!+B B ~+Y.Z.Y.{+B B ]+)+Y.^+%+/+(+_+B B :+ +<+B [+B }+=+|+1+B 2+3+4+5+B B 6+Y.`.5+B B 7+B 8+%+9+B B 0+)+%+ +a+B B b+>+=+^+%+4+)+3+4+",
"c+d+e+f+g+g+h+i+j+k+B B B B l+m+n+o+B p+q+r+s+t+u+v+B B w+x+y+B B z+e+f+g+A+B B B+x+C+s+D+E+E+F+B B G+H+I+J+K+B L+M+N+B B O+e+e+P+B B Q+g+g+P+B B R+B 1+S+T+B B U+x+V+C+W+B X+t+u+M+h+M+x+x+e+e+",
"Y+Z+`+ @.@+@@@#@$@%@B B B &@*@=@-@B B ;@>@*@,@'@)@!@B B ~@{@]@B B ^@`+ @.@/@B (@$@_@:@'@#@<@*@[@B B }@|@B 1@2@3@4@5@6@B 7@{@8@9@0@B B a@.@+@0@B 3@b@c@B d@e@B B f@g@h@i@j@B k@'@)@l@m@{@l@{@8@9@",
"n@o@p@q@r@s@t@u@v@w@B B x@y@z@A@B@B B C@D@E@F@G@H@I@B J@F@K@L@B B M@p@q@N@B B O@v@z@P@Q@R@S@z@T@B B U@V@B W@F@X@Y@Z@B B `@K@ #.#+#B @###r@s@$#B %#z@&#B *#=#B -#;#>#,#E@'#B )#G@!#~#E@{#F@K@ #.#",
"! > ^ ]#^ 6 ^#* 6 /#B B (#_#:#<#[#B B }#! ; r ; |#B B 1#2#3#4#B 5#> ^ ]#6#B B 7#6 8#9#0#a#_#:#b#B B c#B d#; r e#I@f#B e#g#3#s h#i#B j#]#^ k#l#B m#8#n#B o#p#B q#r#s#b 9 ! ; r ; [ ; q ; 2#3#s t#",
"} 6 ^ 0 > q ) r [ u#B B v#@ w#x#y#z#B A#^ B#- C#D#B E#F#2#r G#B H#6 ^ 0 I#B J#K#[ % ] h L#@ w#M#B B B B N#B#- O#B B B P#2#r ; Q#B B R#0 > S#B B T#% ] U#B B B V#W#E@$ X#B B Y#0 } / l r 2#r ; = ",
") < > 3 7 4 ) [ : Z#B B `#A. $.$+@+$@$B #$$$%$&$B *$=$-$* ^ ;$B I@>$,$'$)$B !$[ : a y j a#A. $.$d.B B ~${$> : ]$B B @#^$* ^ 1 /$B B ($3 7 _$B B :$a y <$B B B [$+@}$} |$B 1$: } # 4 q -$* ^ 1 ' ",
"+ < ! 4 _ _ < > < 2$B 3$4$h  $5$_@6$7$8$9$l#0$a$b$Z 2 # _ 2 c$d$e$f$i#g$h$i$< > < _ @ 1.@ h  $5$j$B B k$- & ( l$B B m$# _ 2 < n$B B o$4 _ p$B B q$_ @ r$B B B s$_@6$4 t$B u$( . < [ 2 # _ 2 < 4 ",
"i ) q / ) > ] [ 7 o w ,   A.v$w$x$y$b = 5 : 3 a B#& : < 7 ' d b i ) q / ) > ] [ 7 o w ,   A.v$w$x$y$b = 5 : 3 a B#& : < 7 ' d b i ) q / ) > ] [ 7 o w ,   A.v$w$x$y$b = 5 : 3 a B#& : < 7 ' d b ",
"! _ - _ [ / . # i ~ i | y :#4+z$A$B$} { ) 4 r < { - 8 > } ) } 1 ! _ - _ [ / . # i ~ i | y :#4+z$A$B$} { ) 4 r < { - 8 > } ) } 1 ! _ - _ [ / . # i ~ i | y :#4+z$A$B$} { ) 4 r < { - 8 > } ) } 1 ",
"8 > - q % ) % # $ | k.' | y C$5$D$E$] l 2#} r [ { 8 2 [ { 9 & } 8 > - q % ) % # $ | k.' | y C$5$D$E$] l 2#} r [ { 8 2 [ { 9 & } 8 > - q % ) % # $ | k.' | y C$5$D$E$] l 2#} r [ { 8 2 [ { 9 & } ",
"# % % b / 8 2 [   | ' % | U.F$G$`+}$H$5 6 b 2 : b ) ( 7 % - b % # % % b / 8 2 [   | ' % | U.F$G$`+}$H$5 6 b 2 : b ) ( 7 % - b % # % % b / 8 2 [   | ' % | U.F$G$`+}$H$5 6 b 2 : b ) ( 7 % - b % ",
"b 8 2 < a ' i # ! ) @ 4 | k. $I$_@J$< g 9   ' # t b # . > { d 9 b 8 2 < a ' i # ! ) @ 4 | k. $I$_@J$< g 9   ' # t b # . > { d 9 b 8 2 < a ' i # ! ) @ 4 | k. $I$_@J$< g 9   ' # t b # . > { d 9 ",
"- % 8 2 $ 4 4 4 ( 3 7 o 4 -.>+K$L$M$% } & 3 - $ b ) 6 ; % l p r - % 8 2 $ 4 4 4 ( 3 7 o 4 -.>+K$L$M$% } & 3 - $ b ) 6 ; % l p r - % 8 2 $ 4 4 4 ( 3 7 o 4 -.>+K$L$M$% } & 3 - $ b ) 6 ; % l p r ",
"l [ > < # ( _ b / ( # 8 ! k.N$O$ @P$Q$2 ( > d ! = A.& 1 & ^ 0 l l [ > < # ( _ b / ( # 8 ! k.N$O$ @P$Q$2 ( > d ! = A.& 1 & ^ 0 l l [ > < # ( _ b / ( # 8 ! k.N$O$ @P$Q$2 ( > d ! = A.& 1 & ^ 0 l ",
"# < b 7 q < 7 1 > [ i 7 7 y C$R$S$T$# % $ < $ U$[ ~ & 6 ^ 0 6 l # < b 7 q < 7 1 > [ i 7 7 y C$R$S$T$# % $ < $ U$[ ~ & 6 ^ 0 6 l # < b 7 q < 7 1 > [ i 7 7 y C$R$S$T$# % $ < $ U$[ ~ & 6 ^ 0 6 l ",
") q > # } 8 d } d - [ 4 . m F$z$V$W$) 4 ! L#c j 3 + > X$& 9 } 6 ) q > # } 8 d } d - [ 4 . m F$z$V$W$) 4 ! L#c j 3 + > X$& 9 } 6 ) q > # } 8 d } d - [ 4 . m F$z$V$W$) 4 ! L#c j 3 + > X$& 9 } 6 ",
"9 } 0 1 ( 7 % < } [ } > . h F$Y$+@Z$`$ %c . 8 A.7 2 6 p & b } l 9 } 0 1 ( 7 % < } [ } > . h F$Y$+@Z$`$ %c . 8 A.7 2 6 p & b } l 9 } 0 1 ( 7 % < } [ } > . h F$Y$+@Z$`$ %c . 8 A.7 2 6 p & b } l ",
"a b 8 [ : _ > 1 % b 7 : b | .%+%@%#%$%{ < a / 4 l 7 } r & & } g a b 8 [ : _ > 1 % b 7 : b | .%+%@%#%$%{ < a / 4 l 7 } r & & } g a b 8 [ : _ > 1 % b 7 : b | .%+%@%#%$%{ < a / 4 l 7 } r & & } g "};
